<mxfile host="Electron" modified="2023-05-29T19:58:16.502Z" agent="Mozilla/5.0 (Macintosh; Intel Mac OS X 10_15_7) AppleWebKit/537.36 (KHTML, like Gecko) draw.io/21.2.8 Chrome/112.0.5615.165 Electron/24.2.0 Safari/537.36" etag="coydI07e1AsMZ_2bEXZG" version="21.2.8" type="device" pages="2">
  <diagram id="C5RBs43oDa-KdzZeNtuy" name="ProjectOverview">
    <mxGraphModel dx="2348" dy="793" grid="1" gridSize="10" guides="1" tooltips="1" connect="1" arrows="1" fold="1" page="1" pageScale="1" pageWidth="827" pageHeight="1169" background="none" math="0" shadow="0">
      <root>
        <mxCell id="WIyWlLk6GJQsqaUBKTNV-0" />
        <mxCell id="WIyWlLk6GJQsqaUBKTNV-1" parent="WIyWlLk6GJQsqaUBKTNV-0" />
        <mxCell id="KNDpphYwNKjy-yqR0-zG-19" value="" style="group;verticalAlign=top;horizontal=1;spacing=22;fontSize=19;" parent="WIyWlLk6GJQsqaUBKTNV-1" vertex="1" connectable="0">
          <mxGeometry x="-230" y="28" width="1870" height="916" as="geometry" />
        </mxCell>
        <mxCell id="KNDpphYwNKjy-yqR0-zG-33" value="" style="group" parent="KNDpphYwNKjy-yqR0-zG-19" vertex="1" connectable="0">
          <mxGeometry width="780" height="340" as="geometry" />
        </mxCell>
        <mxCell id="KNDpphYwNKjy-yqR0-zG-22" value="" style="edgeStyle=orthogonalEdgeStyle;rounded=0;orthogonalLoop=1;jettySize=auto;html=1;fontSize=22;exitX=0.999;exitY=0.461;exitDx=0;exitDy=0;exitPerimeter=0;" parent="KNDpphYwNKjy-yqR0-zG-33" source="CisExYW3H4FbfbOQDLme-1" edge="1">
          <mxGeometry relative="1" as="geometry">
            <mxPoint x="780" y="96" as="targetPoint" />
            <Array as="points">
              <mxPoint x="740" y="288" />
              <mxPoint x="740" y="96" />
            </Array>
          </mxGeometry>
        </mxCell>
        <mxCell id="KNDpphYwNKjy-yqR0-zG-31" value="" style="group" parent="KNDpphYwNKjy-yqR0-zG-33" vertex="1" connectable="0">
          <mxGeometry width="750" height="340" as="geometry" />
        </mxCell>
        <mxCell id="KNDpphYwNKjy-yqR0-zG-16" value="" style="group" parent="KNDpphYwNKjy-yqR0-zG-31" vertex="1" connectable="0">
          <mxGeometry width="750" height="340" as="geometry" />
        </mxCell>
        <mxCell id="KNDpphYwNKjy-yqR0-zG-9" value="" style="group" parent="KNDpphYwNKjy-yqR0-zG-16" vertex="1" connectable="0">
          <mxGeometry x="380" y="10" width="300" height="170" as="geometry" />
        </mxCell>
        <mxCell id="KNDpphYwNKjy-yqR0-zG-7" value="Transform" style="rounded=1;whiteSpace=wrap;html=1;labelBackgroundColor=none;labelBorderColor=default;fontSize=22;fillColor=#1ba1e2;fontColor=#ffffff;strokeColor=#006EAF;horizontal=1;verticalAlign=top;" parent="KNDpphYwNKjy-yqR0-zG-9" vertex="1">
          <mxGeometry width="300" height="170" as="geometry" />
        </mxCell>
        <mxCell id="KNDpphYwNKjy-yqR0-zG-8" value="" style="shape=image;verticalLabelPosition=bottom;labelBackgroundColor=default;verticalAlign=top;aspect=fixed;imageAspect=0;image=data:image/png,iVBORw0KGgoAAAANSUhEUgAAATUAAAB9CAMAAAD0vQSDAAAA2FBMVEX///8TB1QAAE0AAEoAAEEAADvu7fHi4ekSBVNZWHm/vc9eXnkGAFAAAEQAAEgAADjQztwiGWDm5uv/ygCysMN6epUaGFeoprvnBIhRTHvKyNUAAC+JhqE8Omf39/kQAFN0cJWgnrKSkKcxL2L//PTT0tr/8c33vNn2rdLlAHs7O2L/2mr/1Ur/5qL/0Tnve7LxhryHhpoAACpHQnQlIVwMC1FKSG9kX4hyb40uKmMAACQmJVRZVX8SDk4xMVv/4YX/7rwWFk3/+ef73u350uVOTGgAABkzM1R96k7WAAAK1klEQVR4nO2dbXujuBWGbQkDxgInLsYNwchAabfZdrcZ2wRvktlOu9v+/39UvQLCmBhnkrnS0fNhJqCDXm6koyOJyYxGWlpaWlpaWlpaWlpaWlpaWlpaWlpaWlpar1Us9a0r8pFk3hpU7qSwvnVVPpBMA9tUYKqpnS/TsMdUmtoQaWqnZOVC5nGapnZKD3dchX+cpqmd0o2HmJ5Xx2ma2indQAYGB5raAGlql0hTu0Sa2iXS1C6RpnaJPj61pGRadoTpb6YPTy0uDY/IxYt3LPTjU9sAWkd0rakNUFxqasOlqV0iTe0SvQ+1/GHDlbJLlVooE9mVplbJ+eQxGTN2qVLzZeKSXmlqlZwJIzFGnNrWgFQeSOiVLxKBpqZKUgOcWnovFNKr11Iz8zAMr6yT56cLmp6f077YIpah1Rnws1Jk2glqfc83TBznBSOhFjV5Qsz/GkxtkSZUbHjHYVoWh90um0Z+F5jYScstSV+X9z6raM6eTUJWtrViFzzF8qMpy2mZHBWdJ8siY2np1egENWu1nBKbA3n+it3gmaexanIIxvuAGoUvnZO3qKkaTO3qE4AAeHvyY7hcQwjobjqA++nqqB7hLOPpAHr7GeWc0GfBJGKmYeaRC3dNi/KntswJTdUDjUVUIJkG7yKri1qcTLEnbdbLnNwKaObgl6pXxStugjE1AuvZqr/DfWVqc3rMjAJSjQNA3Hw8tjF4LluW6SNspMPn0hwlz/SU2hXU1ogeWBNq8fQLwMJyjOGuiS3PQJ1mI1iEo6MVlfn03LQBa5LBjmZu31Zolg0TZvRc9na3r02NNW03Sl3ChJ3Ui9Z6mWIYuUhWkdlgb7pIGcaaGm38wRodvEaDSIsypy7uiyTPi7LBwW/3tRhDLG0wsbYB9M0du1VRiwx2jWl/xNRobCR90NrU/lTpNdSCZILHGKD9HskeZ7tbBRqWb5UbjW2jfNgfU7vObzybNAeQ4SO4eTMJJH8U9zAAY14UQvuxQi2+hrwCmBZFqYwRTFRq4SdqYoPder3+/DlAANtuOITarz8K/fMV1EgN7TEIpmWakAkBIIEtqgsVzbVhNovSNCIujoxGZB9Rw8FNgElKNp0VB9l8LMao+QR49aAo6o4UxbtKRS0uxVMIFbw6Y0BGMn9nktoNYHV58i3TtPJVNN15Qf/E3qL20x+E/v4aamN7DIsVt8pTzBuHHuX7W0x5LI1g6bCKmw5pnBjMCjXSGTGGRRIuTMspRXdz77nPSQB7wvaKFWtjnEc7wbGi5n/hgOAuydkNK1nDsRjWgtrikdqAbeXlFv5Lm5otan/7OtTGcJrXRVxzAFB6WH+P+Y2oqpsZiT7Roka6lrsUxZlLjgncsBt5ATi06VVVlJ8BhZo549eg4QxD8c4qaiEj66aNdpgvRKRvQw0UeeOuz4mgO948s/R4c5sv1Fx6XX2N+Luoms0EJwxY5iueq1rUykZNav6OXWLUdFOOfCEKNa89y787NTIdNO/GS44J8bs5xsfNHV2JtrSowZs6BIgjyEFSBmbJL6CyOxML+JxanHKyRqrEEZGYoRRqGHR82vKu1FChuoXcZU/CZVznaoNUffbe66Bmz5tlJay5tkvbZx1QV2UcfptTs/hgRJnyfkb5HWpSs7jvw96Tatajt6Bmc/taC94vwBN9UPQ8lLUmd9FelRp8aPL3A9Y+l640HPYmbNgKrIQn49RCnqV33wpZH3hnk3Poljs/DOfG06rrG7R3oYb3jno7Tl0Oijo2ETCAaWtyt4oOam7UbLBwU24Sy7rhXXtc8SmDU3NYxG97bZsUKNTCiVylYDiZbJPT2w0nqP34k5CghpngQGrP7a7uG4zajjkkHh6AWeulil7SoqZ4JCdjNw1CTb6IdTsc5SsMTs1nTq4K8Orq7NW1QWlIbHSgGLv0paHaovZnqX+x3Of8azZvKLW2gag+64MLHoiAo5VeeS412tfi6BS1/RG1oNX1hf+vqZEJHDW4Ia9oP9FPTZUpvzdlFF7T19hchhGtjOxrr6R2sq+xfqRQazuMI2ojM9kZzeU7fOyfUHupqXr1CMXPbIRm3SM0PnuEMr+W8EGftYkoI5S9LBsdjdDnFjXiVSM498RyjNYO9ca5b0HNBq2JrZoNGLUN7Mwl75wNTlLjFT8+TGvOBuFe2LdsInU2EJV0HvaeJ3cbvKc+FG9DbaPeXkxB/aBEeGj1ADlBnkkt5Etw775VVDPyyEX4Ura69RR1UKOyVg+fxer2tm8ibVELfS6nA8yAKHetWoR8i0xEuY6IciO1Xp1R7mlqFv+5tcIYObtmlDvjUe5OtZHLkGNqRLnYJZlfdSRWpajUthPIzvJ48Pjvvwj9Rq8GrKj2Stwfl+qKKuDtXZ+xojpNTa5mVW8g1llyHSpWVG7viqot7nfnfTtsLWo3kO2KCnfxwx+FfmY1On/1rjrplVgbFmL1LpalysAx5UbYudTkngBYNzvFiq8eJDW5vgr841wqanFr7uIxzbwvZjuixjuLoPbXC6mRttSvKgnkTpG4IYJMjOrgw9zIgOlsanKnSClKAql2inh7QOY3MpGbcHId+nuiLFOe2DND/NrXomajndg8W2yexebNZ/n2FqItGGzDCgfu3JXsoTZKXVGfR+EPLFqUupdb9b0vYlsqjojjU3clfTi+q3f6RlfMCaOgB9rbULMxPTaYXG+SKHPFdjP2al8Xii5hIzfYJMkmcJGNxY7/+dTq3W3oPaVJdDAgthE7UqnPDTZy3xwaW2KznZClKeZ77ZLaBmAEjUMamnFsXm34zDXp+DzorallJP63MfBcV56Y2e6mYZeIwwS6enFdupzBMNocn7b0UpNjlB0NuoaLMPECRbqu1wYUbQGlDSA2gDBFgXLaEk8RTUXu/HZuzOdiuleP1N6DGgkq/EdQL+wYnAfFMIVKOukuS7PjZK+fGjHylFwwXIe5ONySrsoqlJNBUrlH9WTPuqsykWcXNsz64o63opaO/KKxIEYwS1vONcncRroXpItRsj86RbaPqNGbhqQ2CmcN+jaEZU63HOlBdn2KbJUI1myRd+eM4uYpcuxPYXPxTm0Grt7b1IQG9zV6NpUZdH1CfQYuj7+cCJfXBiSVJ+NYpCeeSyLFufxigX3LfauEwk7Ab1bU6JGTQZtsk1IMdlZlfaY2BqqnRdN/Ip7CZj1+wneBbJbPf8QUYPklyZj7EprRPhq4U6RS++3nf3D9MJzaKCaV2WIX7h6SsCucNPPkCZPmZKXYP2Wf/YQOr7EZNq/kI+Km8uWLX+7c+WT8kPL1TBw6zKZJe+EsD8RlGYeNz3ccRT514JP7y61HHNvtHJ+zndtLTf1dFAOp0cdNqtOBj/lC+nkSpfRmE79YFLVYhAvy5xlF9lNTNJza/600tUukqV2iXmrCGwh/oKlV6qUWlkLnfjmvqRH5t+yLcHj2l/PfKbVsbvBf4dT15fyt+NcHmlqLmpOsuFh02aIm/6VLdPKTuO+UmiqV2hnS1EYXUWP755raMGq3/AsHTW0INVMcDJ79IdgH1del9r1IU7tEmtol0tQukaZ2iTS1S6SpXSJN7RJpapeon5ryDbhWpX5q/y2Y7tKOxO9ZvdRiS+g9fwXcR9CAr5m1Kmlql8iZiP+0QFMbIOcXlx2vTH7/1jX5SIr1f8aipaWlpaWlpaWlpaWlpaWlpaWlpaWlpaU1SP8DI9JFqkS3BeQAAAAASUVORK5CYII=;" parent="KNDpphYwNKjy-yqR0-zG-9" vertex="1">
          <mxGeometry x="40" y="60" width="210" height="90" as="geometry" />
        </mxCell>
        <mxCell id="KNDpphYwNKjy-yqR0-zG-10" value="" style="group" parent="KNDpphYwNKjy-yqR0-zG-16" vertex="1" connectable="0">
          <mxGeometry width="240" height="340" as="geometry" />
        </mxCell>
        <mxCell id="KNDpphYwNKjy-yqR0-zG-1" value="&lt;font style=&quot;font-size: 22px;&quot;&gt;Data Sources&lt;/font&gt;" style="rounded=1;whiteSpace=wrap;html=1;rotation=0;fillColor=#1ba1e2;strokeColor=#006EAF;fontColor=#ffffff;horizontal=1;labelBackgroundColor=none;verticalAlign=top;labelBorderColor=default;spacing=20;fontSize=22;" parent="KNDpphYwNKjy-yqR0-zG-10" vertex="1">
          <mxGeometry width="240" height="340" as="geometry" />
        </mxCell>
        <mxCell id="KNDpphYwNKjy-yqR0-zG-2" value="" style="shape=image;verticalLabelPosition=bottom;labelBackgroundColor=default;verticalAlign=top;aspect=fixed;imageAspect=0;image=data:image/png,iVBORw0KGgoAAAANSUhEUgAAAgAAAAIACAYAAAD0eNT6AAAABHNCSVQICAgIfAhkiAAAAAlwSFlzAAAOxAAADsQBlSsOGwAAABl0RVh0U29mdHdhcmUAd3d3Lmlua3NjYXBlLm9yZ5vuPBoAACAASURBVHic7d15uBzVfef/76nuu2i5EhKLEIsAgUFi38GYEBsmdmzsSeIJ8YPze+LJfdi85/FvnHhJJoyTzDPzcxwb+2eMl8R4iSdh4njixPEWMMY2BoyFAQeD2SQQCLFoX67uUmf+6K7u6urq7lpO9zlV9X49D0i6t+p7Tld19+dby+2rBKN1yxW1E/cvO6em1HlavPUi+iTRcowoPSWilojIlO0pAhXni8hOEdktIvtEZJuIPCZKP3LBqnUTXt277fOXvuf7VmcIGKBsT6AKTvjyO5fVFmZ+Wyn1myL6EhFZbntOANK74sRL5JBFy+XAwpy/edvOme0z+zbUdO1Pbn7DW2+3PTcgLRqAIVr/5asu1L68U0T9logssj0fAPkEDUDUC3v2zG3ds+cHRx580O9ff+7vPGVhakBqNABDsO5LV71S+/LHSqnLbM8FgDm9GoDAgtayecf2p5cu8q7+0AW/9+0RTg1IjQbAoFP/5vePnq+PfUxEv9H2XACYN6gBCHtx394Xxye8K//k7Df925CnBWRCA2CCFrXui1e/Q5T8dxFZans6AIYjTQMQeGnv3n8/ePnS1737lDdwaQBOoQHI6bS/feuK2YX5v1Eiv2l7LgCGK0sDICIyt7Dgz/n6A+8757f+P6WUHsLUgNRoAHJ42RevWl8T9Q0ROc72XAAMX9YGILD7wOz9i8cnLn/PmW94xuC0gEw82xMoqpO/eM0FNZEfCOEPIKGpifEzFvy5Rz/+wNd/1fZcABqADNbffO0lvuhbRdTBtucCoFjGa/VFC1rf9rH7v/4223NBtdEApHTK568+U3v+10Vkie25ACgmT5SnRD75sZ99/X/YnguqiwYghXWfv+7YhZr+pvBJfgAMUEr+6Ib7v/5JrTX3Y2HkaAASOufT14xJbf4rIupw23MBUCpv+/iD//K56/X1vB9jpHjCJbR3kf+XIurltucBoIS0nl7x4DmfpQnAKPFkS2D9F67+DyLqnbbnAaDEaAIwYjzRBjjllivGtZJPCJ+ZAGDYaAIwQjzJBpifWfFeEVlnex4AKoImACPCE6yPtbdcs1xE/xfb8wBQMTQBGAGeXH2Mzeh3KpGDbM8DQAXRBGDIeGL1cOzn//OkEnm37XkAqDCaAAwRT6oeFnn13xCRQ2zPA0DF0QRgSHhC9eAr9Xu25wAAIkITgKHgyRTjxK9cc4gSebXteQBAC00ADOOJFEMt6EtFpG57HgDQgSYABvEkiqFELrU9BwCIRRMAQ3gCxdHyq7anAAA90QTAAJ48EafccsW4iLzM9jwAoC+aAOTEEyfCn1l2oojUbM8DAAaiCUAOPGmitMfRP4DioAlARjxhIrSnD7U9BwBIhSYAGfBkifLVUttTAIDUaAKQEk+UKE9P2Z4CAGSi9fTy+8+iCUAiPEmifG/c9hQAIAtfa9Gip6fuO4MmAAPxBAGAEmiGv2itRSs9vfS+02kC0BdPDgAouI7wb/7pi56e3HAqTQB64okBAAUWF/66/fXpiQ2n0AQgFk8KAEhC255AtwHh3zgToP3p+r0n0QSgC08IABikoOHfvhwg03LPiTQB6MCTAQD6KXz4N/4UkWlNE4AQnggA0EtJwl9raX7Nn164ey1NAESEBgAA4pUu/Bvf87VMz959HE0AaAAAoEtpw7+5jK+nZ35ME1B17HwACCt7+DfX1dqf3n/nGpqACmPHA0CgMuHf+PeC1tO77zyKJqCi2OkAIFK58A9fDtj1wyNoAiqIHQ4AVQ3/0I2B2+5YTRNQMexsANVW8fBvrSd6+oU7VtEEVAg7GkB1Ef4dXxetp5///qGfvf56moAqYCcDqCbCv8fX9fRzlxxCE1AB7GAA1UP49wp/0VrEFz39zMUraQJKjp0LoFoI/0Hh3/i70tNPX7yCJqDE2LEAqoPwTxb+rT/96U2vmKIJKCl2KoBqIPxThn8wrpp+giaglNihAMqP8M8Y/s2aWk8//vKlNAElw84EUG6Ef77wb/3bn37kwkmagBJhRwIoL5Phb6hWEcM/NNb0wzQBpcFOBFBOhL/R8PebNX2tp39+/gRNQAmwAwGUD+E/lPAP/i3iTz94bp0moODYeQDKhfAfavi3vq709M/O9WgCCowdB6A8CP/RhH+75vSGc4QmoKDYaQDKgfAfdfgH407fe46mCSggdhiA4htJ+KcbpBrh35yPr6fvPmuBJqBg2FkAio3wtxv+7WWmf3zGHE1AgbCjABQX4e9K+DfmKTL9wzNmaQIKgp0EoJgIf7fCP3Qm4Aenz9AEFAA7CEDxEP5Ohr/f/nP6e6fv/6zQBDiNnROltLI9BQB9EP5Oh3/wb/H19CWn7qUJcBg7BkBxEP6FCP9gLr7W0xedspsmwFHsFADFQPgXKvxbZwK0nn75KbtoAhzEDgHgPsK/kOHf+tP3p88/aQdNgGPYGQDcRvgXO/y1Fl+LaKWnzz1pG02AQ9gRANxVivAXwr/9temzT3yBJsAR7AQAbnIw/OMCbnD4d36vwuEf1Jo+48TnaQIcwA4A4B4Hw7+xBuGfL/ybNbRMn3YCTYBtbHwAbnE0/EWi4Ur4Zwr/Vk1/+uS1z9IEWMSGB+AOh8NftITCa9ANf4R///BvfF2UTK9f+wxNgCVsdABucDz8RZKGPzf8JQn/0NdpAixhgwOwrwDhH/yV8DcX/qHtShNgARsbgF0FCf/GPwl/0+Ef2tQ0ASPGhgZgT4HCv/Elwn8Y4R/a5DQBI8RGBmBHwcJfRIyHKuEfu+lpAkaEDQxg9AoY/sG3CP/hhX9oO9MEjAAbF8BoFTT8G9/n432HHf6hXUETMGRsWACjU+TwFwmFf1zwEf6mwj+0S2gChoiNCmA0Ch7+Is1wI/xHEv6hXUMTMCRsUADDV4LwF+G0/6jDP7SLaAKGgI0JYLhKEv7BCoT/aMO/veVpAkxjQwIYnlKFfzMECf+Rh397+9MEmMRGBDAcJQv/YDXC3074h/YBTYAhbEAA5pUw/EUIf9vhH9Ai0+vWPnOTaFEjG7SEaAAAmFXS8A8KEP52wz/k6nVfvPrjNgYuCxoAAOaUOvyF8I+Zp6Xwb1DyjpO+eM0H7U2g2GgAAJhR8vAPyhD+joR/k9L6z9d/4ao32Z5HEdEAAMivAuEvIqJ9wt+l8BcRESWiRX3ppC9cdbrtqRQNDQCAfCoS/qLjfgqA8HeCkjGlve+ccsvbltqeSpHQAADIrkLhLxIX2IS/Mzy9an7f3E22p1EkNAAAsqlY+Df+Svi7TCn53RNvvvYy2/MoChoAAOlVMPwb/yT8naZElPi3nPPpa8ZsT6UIaAAApFPR8BcRmfXnCX/HKU9W7hlb+DPb8ygCGgAAyVU4/EVEZuZmCf8CUDXvPSf99fSU7Xm4jgYAQDIVD38Rkb1zBwj/IlAy5kvtU7an4ToagC6az5YGogh/ERF5fu92wr8ganX1pmM//58nbc/DZTQAAPoj/Ft2H9gv+2YPEP5FoHR9bG78v9mehstoALqoEjzzAUMI/64Fn9y5hfAvCK+u32p7Di6jAejCJQBARAj/Hp7btU12H5gh/AtA1WVq3Zeuvsj2PFxFAwCgG+HfZxUtP39+o8zOzxP+BbBwQP7C9hxcRQMAoBPhP9DM/Iw89MJm8X3C33VeTS60PQdX0QB04R4AVBjhn9iuAzvlZ89ukpm5ecLfYaomkyf+9bVn2J6Hi2gAunAPACqK8E9t38Ju+dmzG+XZ7Xu6Apnwd4ev9btsz8FFddsTAOAAwj9zPV8OyJM7NsvGF5bJESuWyCFTEzI25hH+DvFEXml7Di6iAejCJQBUDOGfu1695su83iWPbJmVhzeLLJqoyfhYTSbqntQ8ES1KtNbNlVRzVV+0FhHVCGjlN84/atEiWkQ3vx78r7Fs8wu6+WXV/HpzedVavL2MVsFJTSW+74sor7mCFlHhE56tAUIPTvX4e/srXZsjZpWBp1XDw4YeoyjVnGdzoeb2aq0U/l5zUBUU0qpd15elg6ZQRTQAXcLPGqDkCH9j9ep1X6aWzsju3ZMyMzsvM3MLrfBuBJk0wquVX1pUO6468zf0DxUkaEeoqlCNmLm1vthsPFRzJF1rfK/dKbTnJrrRD3T0AaGB20O2/q7j5qwa31DhmSkdurra3njt8Zp/0e356GAgLaKC0A+WbW2DcOh3/i3yQFbK9a+sy/W3z0c3V5VxDwBQVYS/8Xq1ui9TUzONg+xAMxBbYaWCA28VHKg3l9MdqyilW+cKQl9t1tDN78donkVo9wuqfZAcHF13LN4Yp+NkQPhoW7VXDSK39WhUtFawioo5mdpYS6nwIwl/LzgD0o7uYG6Rh988q6AjdeLPUDT/q5+w8rgTBR1oAIAqIvyHVq9W92Xp1IFmcDWirB36ofAUiQ/9ruBMEPrSDv1GbmcMfWkvnyz0VXPePUJf6dZZiu7Qb847CH09IPSlx5fimpBg3ko3L6Uo8dXYmTHDVxoNQBfuAUDJEf5Dr1er+bJk6kB86Euv0A8tHD6u7Rf6HUfMqh2OaUI/1CSkCv3WWLpzqGjoRx5Pa97BSYZgXglCv31lIzSg7vx+OPTba4tokeMFHWgAuvBjgCgxwn9k9ep1X5YuO9AM93ZKxYZ+hFLR09uhqXSdJg8v19lqtEM/XCkS+qEADS5JJAr98Pdjj/RVaCo6EvpBcxAN/c4T+j0bmoGhH5pasK2Vmur6ZsXRAABVQfiPvF6t5svSqZnW9XwlPUJf9wj94KRAr9DXwf9Coa8kJvQ7V+o60g+yOjJ439Bv3iPQFfqhBeJDP3jAOib0Q9ug9QDbZxjaY6m+od/YDp3f0b7iJwEiaAC6cAkAJUT4W6qnG5cDls7G1u4O/dCxfL8jfdUZ+o01U4S+bgd/MJfoKrGh3/yaEtW6ma8j9FX7PoTueWuJpHt73h1fjp7FaDYiOhz68fqdOVFacwYgggagC5cAUDKEv6V67QL1mi9Llx7ouJEvPvTbARcb+qozuYPQj57h73mkL+F3ON21ysDQ1zHh2jf0w+O0u41Bod+eU8bQV+0/gzlrLbUeJSqLBgAoM8LfUj3d9ddazZclS2al4wfpJS70Qz9B3xHG4dCXhKGv2qHfulwQWq11Ft5Q6Ieu+UdXUsHcWw8lHPrtcwmqeWoh+OTDOCqYW8dX29cJus48iBZPVeijDxOiAQDKivC3VK87/AOtywGeP/hIv/GP5v97nNoeGPo9jqyDBiIyjoSCNTb0e12WCAK946J7eJngMfUKfWmHfsx2E4kL/VCt5vrtPqh7HOKuG1sEKCPC31K93uEfqHm+LFl8IHQNXaR1rjr4uwwO/XDwd4R+r9PprbMGwU114dCPNCGtqeiOo/2uHzUMf0JfeCwJQj883/Bja88n/KFFIiLih6aWIvRVuHMIziJ0FOYMQBQNAFA2hL+leoPDP1CraVmyZFaUFwnqPjexBUXbAdsj9MP5GA791lclPvRbk+gMfd0R+jGXCsJzan2aT/t6f8cykdAPXzFoNQdpQr/jAQeXDtqrdXyokvK75l11NABAmRD+luolD/9ArebL4sWNJqB1NiC6roqGfvtGPh2zQjtklXSFfuSsQfc48aHfCv7oKhL0A3GhH5p3r9APllDB2Q6dMPRDj01HQl+aZx46j/xFur4GERoAoDwIf0v10od/oFbzZcni2c6ADX/+vk4Y+hIN/fCEwp+/H4r+5pgDQz+8Smus0FF3R5X2XJTS/UNfR0M/9Nj6hX7z+51X+eMed3jS4esVCNAAAGVA+Fuqlz38A17knoDER/qSNPRDizQ7inboS3zod42lQqfTVeM6fTT0JTjSD472VWeV2CN9aV+aTxr6rcVDH2scPMjwSY+uSwWIogEAio7wt1Qvf/gHvJqWxYtnWz8Z0D42D4SOzpOGvnSs3g59PTj0gxG7fzFRv9CPmXc09Dsu0AfLqHShHz5LEN0Ove4PaKzLGYAIGgCgyAh/S/XMhX/Aq/myZPFc6HS26gjZZKHffUK966N4RQaGfucHCravofcO/Y4i/UNfNUfS8UEdd3q/9RHKPQ7ne9bqnBcNQAQNAFBUhL+leubDP+B5vixeNBcK4WjEDgr9Pp+/H/nlPu2/BaHfPY6ItG7ia/3UgfQIfdXjmn449CUS1KFT+F2hr6OhH3MZRMU1EJHH1qzsE3dd2CJAERH+luoNL/yDel7Nl8WToRsDdeN/qUI/yNaeoS8xod+eRCv0tWqdgu/6MN6O6+wxG6NX6Ieu+Q8+0u8R+l3X/EOPTUsr9IMzIKJEPJ8fA4yiAQCKhvC3VG/44R/waloWL5oNHX2LJDrSD4oFvzMgReiLREJfmhEa7SFCoa/CER46Pd99Hb59tN/6zYPNo/OO0I/ZGL0vgwwO/Y7la/wUQBQNAFAkhL+leqML/4DnaVm0aC50FN8v9JuFWqHfbhl6h35zmebp/fYRef8j/fA9Ch2h33UdPhT6Ehz4q1adcO3+oR/+frtgu06f0JfgEoeIcAagCw0AUBSEv6V6ow//gOf5Mjk5L8rr8XsDwtfRm5KHfvurOnyDvOr8a+cp/tAhvkQ/TTAm9JsL9w39yJe7Q7/9xcbljUYTonU09CPX/sOXCqS5IjrQAABFQPhbqmcv/AO1mi8Tk3PihYOx82pAKDwHh76S8JF+KH2l/dfY6/odywR3+IdDv90GdIV+69spQr9jPs3QF4l8NkLkEodIzKWCAHEXxRYBXEf4W6pnP/wDNU/LxORsqAmQ0P0Buv2FVvHeod9xij98ZC3NWvGX2Vuhr3qGfnu5ztMUumOJ1i8UGhj6jVrh30AoelDo96nFGYAuNAARWnf+BCxgFeFvqZ474R8INwGtLNPh0G/IFPrBF8J/Sij0W1/QrfUHhr4Oz8kLrTogqFv3OgQzyxH6wby0ND+9EGE0AICrCH9L9dwL/4DnaZmYnGuEX+h33vcN/dDhdmzoR3qIdugH1/t1a4HER/paWhWyh36TPyj0Q49Nqc7QD8+7+/pI5dEAAC4i/C3Vczf8A56nZWKicU9AEPx9Q19HQj/4voT/GRP6kV8WFCzXHfqdlYKh201KdIl+od9uIFpNzaDQD8+rpfOXEHFeNx4NAOAawt9SPffDP6jleVrGJ+ZEVKh0vyP94IuhP9vX9HuEfviMQN/Q7zwD0Tv0Vf/Qj9QKn+EIT7wr9EPz0roz9FX4vgg+CrgLDQDgEsLfUr3ihH/A87RMjM+Jar6Lx97I13Hkq6TjSD84so490m9+O3T6P6rzkwmThL70D/327QWRKgNCX0SCDyDuCv3QGQWP/O9CAwC4gvC3VK944R8ImgAvfHk7NvSbERk+na5jQl9LR7hG9Qz90A12qUI/Ot1Q2f6h3/51w6ETH7HjhB42HUAEDQDgAsLfUr3ihn+gcTlgPnSGOyb0W8E/KPS7B+x9pK9a64V/6U6q0I+W0wlDXw8IfdV+bK1tQNp1YZMAthH+luoVP/wDntIyPj4vnkoY+sFfegzY+TsIYkI/CGsdCX0VXV6ad+b3GC6oJc1aHZPrd6TfPU5oau2xwk2C5qcAomgAAJsIf0v1yhP+Ac/TMjY+3/ppt3bohz8Wt3fd4OOD+4a+BPfSdd5l3z/04wZr11LhL0rHzzJ0hr4O1Qq+pqK/bTC6rG4v7vFBAFE0AIAthL+leuUL/0DQBLQCNnxEPjD0wwv1CH0dzuE8oR+O+D6hH1erI/Sj3+sM/eAygBYlWvNJgFE0AIANhL+leuUN/0BwOaDriD84eO4I/Y7D69Z5/3BQh3+0rpGmoWN2pXpcKpBIAyGR0G/Uav+oYY/Qb63SOa/OcbQEP60Q/o2ErV9W3DrzT9xFsUWAUSP8LdUrf/gHPKVlbGy+9ZHBfUO/ecNdR+hLqGcI3yXYvPkuUejr+LBu3Sug40I/9IWuZqSzTiv0pT1eK/SjZyca63AGIIIGABglwt9SveqEf8DztIyNLTTf5KOhL81w1a2A7Qj9SBh3XmfXXXXij/SD70c+la9jGtHQD5fUnbU6Qr99GaBxej8+9FuNitLm93sJ0AAAo0L4W6pXvfAP6rVuDAy+FgnqRjCr7iN9GRD6ouJDv5Xy3aHfeZ9BwtBvzSsa+sF/Oq4XaYd+5xkFWoAIGgBgFAh/S/WqG/4BFVwOUOFb7kKn90MnB7oCtOPIORT6Kmnot6/3t5K7/c2BoS+9Qj/0OLvnHN0QjeUJu25sE2DYCH9L9Qj/QKMJWAhdnG8vFBv6rVo9jvRbKw8K/V5nDXTkkryKDX1RMaHfcY9B+C/dG6HjfgV+F0AXGgBgmAh/S/UI/yiltIzV25cDghDtDtDmrYJaeoe+Thr6oS93HekriWtEgocRG/qimqskDP3Q9/gxwG40AMCwEP6W6hH+vRZoNAELraPrqL5H+iryqXyDQj+ulk4S+rr1zVboh5bonFqoVkfot683tNoOPgmwCw0AMAyEv6V6hP+gBYLLAR1nAiR0j1z4mn449LVqB+yg0I+eUUgT+krFh36rZnfot9sSHV6rfY9ATLMDGgDAPMLfUj3CP+kCSmmp1+djboyPO9IPVkoT+qFxdb/Qbyd4z9BX0v639Ah9FQr9jvmEmwsuAUTRAAAmEf6W6hH+aRdQSqRe90Wp5kfx6pjQD+4RiK4r/UJfi/hJQz+8XPssQCv0W+Op7tCXmBsQlYhoLbGPm18F0KVuewJAaRD+luoR/lkHVEpLreaLng8dC4ZDv334376W3z7THhlHNQM4fNwdiufQJ/fFzjEIbxXEvIos0r6mH16ls1mITE6Fv0oHEEUDAJhA+FuqR/jnHVCJlnrNl/n56AnhcOjr/qHf/JIOHZ0nDn2JCf3ge7o9Tjji26cWmuO0ltMdod/5cLgJMIpLAEBehL+leoR/7gFb19W11OsLrQDuuCmwY+FmoId+1K71+fsdv9mnx+l9kVAyN2vpzp/7D98D0HGKX4Wv66vOMwOxY4bnTPbHoQEA8iD8LdUj/HMPGFm0cU/AQueP7SUN/c5L+wlCX+JDP/hbqzFRnaEfnlfP0A99v3l2QImIx02AXWgAgKwIf0v1CP/cA/Z5vtXrunVaP/zrfrtCX6R1lj/2twNGQ18ioR+6dt9xpC/h0I9MWusEod8ePsh8LVq0x2mAKBoAIAvC31I9wj/3gIMWVVpqni8q9KN18Z/KJ+1P5eu68B4T+q3vx4R+cKTfdZDeXCoYU6nBoR98R/uN+sFtCdwD2IUGAEiL8LdUj/DPPWDSRZUWTy10hG3X6X0d+kb4UkF4ua4jfdUd+sFXwtf0w6GvU4R+0KoEn1WstLQ+X6DGTYBRNABAGoS/pXqEf+4BU85NKRGv1rgnoOv0vkhHsPcMfR0JfZH40/vaQOi3vuJ3nKVo8TkFEEUDACRF+FuqR/jnHjDj3JSIeF47nMM/mpf4SF9Cod+RyNGzBj1CP3R1oWfoNz+lUPl64L0BaONzAIAkCH9L9Qj/3APmnJtSIp7XPKseztJW8jfuAQg+A6D9a3qlxzV9aR2hi1ad3wruKAwPIeH7EFpdiHR9xkB0LEJ/IBoAYBDC31I9wj/3gIbm1vhMAN0IbBUO/eb3+4Z+sFDMCYDgL7GhrwaHfquOlu5vYBAaAKAfwt9SPcI/94CGH6cSEfG0aF91xPKg0A/9EarXDP1IbrdDP7xyTOhHJ4dMaACAXgh/S/UI/9wDDulxNpoAv/EjdTr81ehCcYGtO77aP/SD7wyaG+GfBw1AVPQ+FFQT4W+pHuGfe8AhP85GEyCi/SDQdcLQV6H7BGNCX6T5Y3tJ50b450UDAEQR/pbqEf65BxzR41QiojwRHfuTdeFgb/+GwMYtBElCP3JGIXYIwt8EGgAgjPC3VI/wzz2ghceplBatlIR/a18r9Jt1dON/kjz0Cf9R4XMAgADhb6ke4Z97QFuPUzV/AFA1oqT9ewO0aB18Kl+wbPtn9FWwcnjQJOf+CX+jaAAAEcLfWj3CP/eATjzOxqfvtT+gp10w+ICfzKHfWpzwN40GACD8LdUj/HMP6NDjbN3gF3z+fmy+pwz91mqE/zBwDwCqjfC3VI/wzz2gg4+z/al8keJ5fraK8B8azgCgugh/S/UI/9wDuvo4W/fy5Qz9AOE/VDQAqCbC31I9wj/3gIV+nGlqGZ4cvwywCw0Aqofwt1SP8M89YKEfZ5pahifHiYRYNACoFsLfUj3CP/eAhX6caWoR/qNCA4DqIPwt1SP8cw9Y6MeZphbhP0o0AKgGwt9SPcI/94CFfpxpahH+o0YDgPIj/C3VI/xzD1jox5mmFuFvAw0Ayo3wt1SP8M89YKEfZ5pahL8tNAAoL8LfUj3CP/eAhX6caWqNLvxV+1cRookGAOVE+FuqR/jnHrDQjzNNLY78baMBQPkQ/pbqEf65Byz040xTi/B3AQ0AyoXwt1SP8M89YKEfZ5pahL8raABQHoS/pXqEf+4BC/0409Qi/F1CA4ByIPwt1SP8cw9Y6MeZphbh7xoaABQf4W+pHuGfe8BCP840tQh/F9EAoNgIf0v1CP/cAxb6caapRfi7igYAxUX4W6pH+OcesNCPM00twt9lNAAoJsLfUj3CP/eAhX6caWoR/q6jAUDxEP6W6hH+uQcs9ONMU4vwLwIaABQL4W+pHuGfe8BCP840tQj/oqABQHEQ/pbqEf65Byz040xTi/AvEhoAFAPhb6ke4Z97wEI/zjS1HA5/GolYNABwH+FvqR7hn3vAQj/ONLUI/yKiAYDbCH9L9Qj/3AMW+nGmqUX4FxUNANxF+FuqR/jnHrDQjzNNLcK/yGgA4CbC31I9wj/3gIV+nGlqEf5FRwMA9xD+luoR/rkHLPTjTFOL8C8DGgC4hfC3VI/wzz1goR9nmlqEf1nQAER4Sinbc6gswt9SPcI/94CFfpxpahH+ZUIDADcQ/pbqEf65Byz040xTi/Avm7rtCaCaK8kVDwAAIABJREFUxr0xOW3lMXLWIcfL2qnVcvTSQ2T52BJZVB+Xydq47ekBxs0szMr+uQOyc3avPL37RXli5xa57/nH5MEXNsqsP0f4u1CrYmgAMFLrDjpKfvOYi+SVR5wuS+oTtqcDjMxkrdHcrpickmOXHS6/cuSp8paTf032zs3I7U8/IP/nsR/Jw9ueNjMY4Y8EaAAwEicsWy1vXf96Of+wE21PBXDKkrFJuXzt+XL52vPlni0Py433/7M8vmNL9oKEPxKiAcBQjdXqcs1Jr5Ur1l4sNcUtJ0A/569eJ+esOlFu+eUd8tkH/lXm/Pl0BQh/pEADgKE5fNEK+bNzf0/WHXSU7akAhVHzPLly3SvlrMOOlz/+4edl674dyVYk/JESh2QYiuOmVsmNF7+D8AcyWrfyaLnx194txy1fNXhhwh8Z0ADAuCOXHCw3vPxaOXRyme2pAIV22KLl8olL3yFrlh3WeyHCHxnRAMCoZeOL5aMXXiMrJqZsTwUoheUTS+TDl1wty8YXd3+T8EcONAAwRomSD575Jlm9eKXtqQClcsTSg+X9F1wpSkIfVEr4IycaABjz2qPPlYtWnWx7GkApXXzkKfKaY89p/IPwhwE0ADBiaX1S3rr+dbanAZTa2858gyypT5orWKXw9w3XKwEaABjxxuNeIQdNLLU9DaDUVkxOyRtf9gozxaoU/lpElOJ8QgQNAHIb8+ry28ddbHsaQCVccdIlMubl/AiXqoU/YtEAILeXr1onKzj6B0ZixeSUXLD6pOwFCH800QAgt1cdcbrtKQCVcukxZ2VbkfBHCA0AclGi5OyDT7A9DaBSzl31ss4fCUyC8EcEDQByOWLJSlnJh/4AI7VickpWL03xeRuEP2LQACCXNUv6fEQpgKFZM5XgdwSIEP7oiQYA2WmRwxcdZHsWQCWtXrpi8EKEP/qgAUA2zRfb4jGDH0oCILHFYxP9FyD8MQANANILvdgm8v48MoBMFtXHe3+T8EcCNABIhxcb4DbCvwc+CziKBgDJEf6A2wj/EQ1eDjQASIbXD+A2wn9Eg5cHDQAG4/UDuI3wH9Hg5UIDgP54/QBuI/xHNHj50ACgN14/gNsI/xENXk40AIjH6wdwm8s/Tkf4FwINALrx+gGqhfCvJBoAdOL1A1RLVcKf97YufIwb2gr8Atk7PyPfeXqD3LP1Ydmyb7vsX5jtvbBzp0517F8DSilZOTElJyxfLZcdfZacccjavAMOxf0vPCG3Pn2fPLZji2yf3SO+n/eDV1Js2CGH2KL6uKxeslLOX71OXn3MObKkLB+BTfhXGg0AGgr8Arntmfvlow98TXYc2DN44YKFf+CZPS/Kgy89KV974k65YNU6+eC5V8qKyaV5Bzdi+8we+fOffEXuee6R5CsN3G7uhH/g8R1b5IfP/Lv89YPfkvec85/k0jVnGhzYAsK/8rgEEKF9rWzPYeQK/AL52pN3yvU/+XKpwz/q7q0Py7W33yDbZ3bnnUBu22Z2ybW33VD68A/beWCvXH/nl+Rrj/3I4OAjRvhDaABQ4BfIQ9ufkhse/D+ikzyIkoR/YMvebXL9PV/OO4ncrr/ry7Jl77bkKxQ8/NuLa7lhw9fkoZeeMjiJESH80UQDUGUFf4F85qF/lYUk15lLFv6BDS88Jnc994u8k8nsrud+Ife98HjyFUoS/oEF35fPPPANgxMZAQe2m5l6hL8JNABVVfAXyIszu2RDkvApafgHvvvUffmLZPSdTRuSL1yy8A9s2PqYPL9/p5m5DJtD2y1fPcLfFBqAKirBC+TRnZsHn/ovefiLiDy842kzhTJ4ZPvmZAuWNPwbJbQ8uv2Z/IWGzbHtlr0e4W8SDUDVuPxGkMKOA/v6L1CB8BcR2X7A3o2AO2f3Dl6oxOEf2OHAzZh9Obrd0tcj/E2jAagSl98IUvJ1n2v/FQl/ERF/wd6OGHj/RQXCXyTBdrDJ4e1G+NtHA1AVLr8RmFSh8C/2fihH+Bd7H1iqlboe4T8sNABV4PIbgUnOvbkT/hkXyLToSGsNo55JpdluhP8w0QCUnctvBCY59+ZO+GdcINOiI601jHomlWa7Ef7DRgNQZi6/EZjk3Js74Z9xgUyLjrTWMOqZVJrtRviPAg1AWY3kjcCBV6Fzb+6Ef8YFMi060lrDqGdSabYb4T8qNABlRPhbqkf4Z1wg06IjrTWMeiaVZrsNMfyVcnkPWkEDUDaEv6V6hH/GBTItOtJaw6hnUmm2G0f+o0YDUCZVCX/TCP9sCH/7SrPdCH8baADKgvDPhvAfEsK/UAj/SqIBKAPCPxvCf0gI/0Ih/CuLBqDoCP9sCP8hIfwLpUrh7/AnNttCA1BkhH82hP+QEP6FUqXwr8o+TYkGoKgI/2wI/yEh/AuF8IfQABQT4Z8N4T8khH+hEP5oogEoGsI/G8J/SAj/QiH8EUIDUCSEfzaE/5AQ/oVC+COCBqAoCP9sCH/7CH/7CH/EoAEoApfD3+UXG+FvH+FvH+GPHmgAXEf4Z0P420f420f4ow8aAJcR/tlUJfxLvQ+GVMt0Pe3wTiD8MQANgKsI/2wIf/tcfpyE/wjqEf5FQQPgIsI/G8LfPpcfJ+E/gnqEf5HQALiG8E/E8yJP3YqGf03ZewnXjO+DIdUyXS8S/jb3QRfCHyk49MwF4Z/cioml7X9UNPxFRFZOTBkcIJ0V4bErGv4iIgcvsrcPOhD+SIkGwBWEfyrrVxzdOAKtcPiLiJxyyDEGB0nn5IPXNP5S4fCvKU/WrVxjcJCMCH9kQAPgAsI/teXjS+T8Q9flrFLs8BcRefWacwwOlM5rjjm30uEvInLe6nVy0OTS2O+NDOGPjGgAbCP8M7v2lNfKWK2ece3ih//FR5wiZx92gsHB0jn7sBPkFUecbKaY0/sgvthYrS5vPfP1BgfKgPBHDjQANhH+uRy/fLW87+zfyXATVvHD/7hlq+QD511pcLBsPnjB78ra5YfnK+L0PogvVlOe/NEFb5K1B602OFhKhD9yogGIUlqNZBzC34hXH322fPiiq+TwxSsSrlHs8Fei5NVrzpFPXfoumRpfZHDAbKbGF8mNl71LXnPMuaIkw0vH6X0QX2z10pXy4VdeI6859lyDg1lG+FdS1vOnyIPwN+q8VSfKV37tj+SOLT+Xu7c+LFv2bpP9C7MxSxYz/D2lZMXElJxw0BFy6dFnyvHLLR51xlgyNil/fOGb5c3rL5XbnrpPHtvxjGw/sEcWtN9/xQLtg8VjE3L4khVy4er18itHnZbj0pODCP/KKtGzuCAI/6EYq9XlsqPOlMuOOtP2VCpr7fLDZe1pr7U9DaRRlfDXIllOUJUdlwBGifAH4IoqhT9i0QCMCuEPwBWEP4QGYDQIfwCuIPzRRAMwbIQ/AFcQ/gihARgmwh+AKwh/RNAADAvhD8AVhD9i0AAMQ1XCnxcb4D7CHz3QAJhG+ANwBeEfWsbnXSuCBsAkwh+AKwh/DEADYArhD8AVhD8SoAEwgfAH4ArCHwnRAORF+ANwBeGPFGgA8iD8AbiC8EdKNABZEf4AXEH4IwMagCwIfwCuIPyREQ1AWoQ/AFcQ/siBBiANwh9AIRH+6EYDkBThD6CQCH/EowFIgvAHUEiEf4tvuF4J0AAMQvgDKCTCf2j1SoIGoB/CH0AhEf5Dq1ciNAC9EP4AConwH1q9kqEBiEP4Aygkwj++Hm92cWgAokzeKEL4AxgZwj++Hm92vdAADAvhD2BkCP/4erzZ9UMDMAxVCn9eX4BlhH98Pd6cBqEBMI3wBzAyhH98Pd6ckqABMInwBzAyhH98Pd6ckqrbnkBpEP7O2D8/K/P+gu1pGLW4PiE1rxj9+oLvy775A4aqufFkq3t1WVQftz2N5Fx+zRP+zqABMIHwt+6hbZvklkd/IPdsfVh2z+7PX3Dk263/AkqUHLf8cLn06DPlihMvkcX1CWNTM2Hf/AH5h1/eIbdu+pk8ueM50SY2oDa8E3KWmxpfLOevXie/s+4SOfmQY8zMaRhcfs0T/k6hAciL8LdqwfflEw98Xf7xsR+aCR0R58K/sYSWJ3ZukSd2bJF/fPRH8hcXv0VOPfg4I9PL6+cvPikf/OEXZNv+XeaKOhb+IiK7Z/fJrZs2yG0b75M3nvQr8s5zfsO9szIuv+YJf+c49ux1gFIq8bKEv3X/c8Mt8tXHflDq8I8uum1ml/zB926SX2x7KuusjPnFS0/JH3zvptKHf7iWFi1ffeQO+Z93/53Bwga4/Jon/J1EA5AV4W/drZvvk29u/Im5ggUI/8CBhTm5/sdfkjl/Pu2sjJlbmJc/vfOLcmB+zlxRx8M/7JuP/0Ru3bTB4AA5uPyaJ/ydRQOQBeHvhJv//bvmihUo/APP7nlJvr3x3uR1DPv2xntly55t5goWKPwDn7//OwYHycjl1zzh7zQagLQIfyds3L1VNu7eaqZYAcM/8P3NP09ey7DvP21w7AKGv4jIpl1bZePO5wwOlpLLr3nC33k0AGkQ/s7YtOt5M4UKHP4iIpt22QufTbsNjV3Q8A9s2mnouZiWy695wr8QaACSIvydsmeufD/ql2XR3bP7ktc0bI+RH7csdviLiOw6sNfgoJYU5v2oAG9OBUIDkATh7568wVGC8E+5qHG5xy5B+Jse1orCvB8Vfks7hwZgEMK/fEoS/oVWkvAvPJe3m8nwr9I+TYEGoB/Cv3wIf/sIfze4vN0I/5GgAeiF8C8fwt8+wt8NLm+3IYW/0qaffMVHAxCH8B9lgdEg/O0j/N3g8nbjyH+kaACi/F7fIPyHUGA0CH/7CH83uLzdCP+RowFIhPAfQoHRIPztI/zd4PJ2I/ytoAEYiPAfQoHRIPztI/zd4PJ2I/ytoQHoi/DvW8DlF1tVwt/pfUD4O8Hl7Ub4W0UD0BPh37eAyy82wt++KoW/0/vB0Vpd9Qh/G2gAYhH+fQu4/GIj/O0j/N1QmO1G+NtCA9Cl548B9FeYF1vOAi6/2Ah/+wh/NxRmuxH+NtEAmFCYF1vOAi6/2Ah/+wh/NxRmuxH+ttEA5FWYF1vOAi6/2Ah/+wh/NxRmuxH+LqAByKMwL7acBVx+sRH+9hH+bijMdiP8XUEDkFVhXmw5C7j8YiP87SP83VCY7Ub4u4QGIIvCvNhyFqjSi43wT4/wd0Nhthvh7xoagLQK82LLWaBKLzbC3z6Xt5vL+6Ew243wdxENQBqFebHlLFClFxvhb5/L260q+4HwryQagKRK/SZVvPBXysBTtwThrwwOm5YyMXoJXleesrkXDCD8K4sGIIkSvEklKlCgF9uy8cX5CpQg/EVElk8uNTh4Ossmhr0PLNVKWc/mPsiN8K80GoBBSvImNbBAwV5sa5cfnn3lkoS/iMjxy1cbnEDKsQ/KMXZpXlda1h6U47loU5XCv2Dvb6NCA9BPad6kBhQo4IvjiCUHy0krjkq/YonCX0TkVWvOMDiJdF6ZdWwHtpuZelpOXHmUHDl1iOFJjADhD6EB6K00b1IDChT4xXHVqb+eboWShf/xB62WVx19psGJpHPpmrNkbdqzAA5sNzP1GgtffdbrDE9iBAh/NNEAxCnNm9SAAgV/cVx4+Hp580mvSrZwycJ/anyRfOiit0jNxM2QGdWUJx+6+C0ylfR+DAe2m5l6jYXffMqlcuERJxueyJAR/gihARgm557Q5Qn/wHWnXy7XnXa5jHn13guVLPyPXXa43Pgf3iVrlh1mcDLZHLNsldz46nfJscsGXAd3YLuZqadlrFaXa89+vVx39hsMT2TICH9E9HnXRC7OPaHLF/4ijR9F+911l8qrjj5DvvrYD+We534pW/a+JAcW5hoLlCT8V0xOyQkHrZbL1pwtv37suVLz3Ondj122Sm5+3XvlW0/+RG596j55bMezsn3/7vYCJQj/idqYrF66Us4/4iR540m/Urzr/oQ/YtAADINzT+ghhr8jL7Yjlhws7zzjN0Ts3RNXaTXPk8uPv0AuP/4C21NBFOGPHtw5jCgL557Q5Q9/AD0Q/uiDBiBKedk/1su5JzThD1QW4Y8BaABMce4JTfgDlUX4IwEaABOce0IT/kBlEf5IiAYgL+ee0IQ/UFmEP1KgAcjDuSc04Q9UFuGPlGgAsnLuCU34A5VF+CMDGoAsnHtCE/5AZRH+yIgGIC3nntCEP1BZhH9ivije0SJoANJw7AlN+AMVRvgjJxqApJx7QhP+AAwh/CuJBiAJ557QhD8AQwj/yqIBGMS5JzThD8CQqoQ/722xaAD6ce4JTfgDMITwrzwagF6ce0IT/gAMIfwhNADxnHtCE/4ADCH80UQDEOUbrkf4A3AF4Y8QGoBhIvwBuILwRwQNwLAQ/gBcQfgjBg3AMFQl/HmxAe4j/NEDDYBphD8AVxD+6IMGwCTCH4ArCH8MQANgCuEPwBWEPxKgATCB8AfgCsIfCdEA5EX4A3AF4Y8UaADyIPwBuILwR0o0AFkR/gBcQfiPcBLlQQOQBeEPwBWE/wgnUS40AGkR/gBcQfiPcBLlU7c9gUIh/J21e3a/fGvjT+TuLQ/L1n07ZNafG7yS0/ugs9jyiSVy/Ioj5NKjz5TzVp9kcCBz7nn2Ebntqfvk8e3Pyq4D+4Y0yoCNPKR9Ou6NyWFLD5ILjlgvrz3hPJkaX2x4oLwI/+FOopxoAJIi/J31nU0/lRs2fE12zaYIHaf3QXexZ/e8JL946Sn5l8fuknNWvUz+5BX/jxw8uczgoNm9tH+XfOhHX5INzz2WfuVU281O+Ac27nxO7nnmYbn5/m/Luy/4LXnN2vMMD5gV4T/cSZQXlwCSIPyd9b9/+QP5s7v+ttThH/XTrY/Ktd/6mLy4f5fBgbN5cf8uufZbHyt9+Iftnt0nf/6Dv5X//dD3DQ+aBeGfeEXTv+q9BGgABiH8nfXzlzbKJ3/2T+lWcnofJC+2dd92uf5HXxBtccdp0fKnd9wsW/duz7KyuYUt7dNP3vtP8vMXnjQ8+Ag5/VowvGIB399GgQagH8LfaZ954BuyoFO09U7vg/TF7n/+CfnxMw8ZnEQ6d25+SB7IEoAlCH8RkQXty00//RfDExgRp18Lhlcs6PvbKNAA9EL4O+2F/TvlZ88/kXwFp/dB9mLf3bjB4ETS+bcsY5ck/AMPbH1Cnt+30/BEhsyB7Wa+FuGfBQ1AhFZaEf7ue3T75uSnv53eB/mK/XL7ZkMTSe+RbSnHLln4N1bT8uhL9vZBao5sN7O1CP+saACict8oQviPws6kP2bm9D7IX2zbzG4DE8lm54E9yRcuYfgHdljcB6k4tt3M1CL886ABMIrwHxU/ybV/p/eBmWLaUJ0s/KRjlzj8RSTdfSi2OLjd8tci/POiATCmouHv6ovN5cdpMbRHruThXwgubzfC3yoaACMIf6e4/DhNh7+r+0CkOuFfmn0w4nqEv3U0ALkR/k5x+XES/tkWdnqfGqxlWim3G+FvEg1ALoS/U1x+nIR/toWd3qcGa5lWyu2WM/xVla69JUMDkBnh7xSXHyfhn21hp/epwVqmlXK7ceQ/DDQAmRD+TnH5cRL+2RZ2ep8arGVaKbcb4T8sNACpEf5OcflxEv7ZFnZ6nxqsZVoptxvhP0w0AKkQ/k5x+XES/tkWdnqfGqxlWim3G+E/bDQAiRH+pUb4Z0P421fK7Ub4jwINQCKE/2gGtITwz4bwt6+U243wHxUagIEI/9EMaAnhPwKE/1CUcrsR/qNEA9AX4T+aAS0h/EeA8C8EJ7Yb4T9qNAA9Ef6jGdASwn8ECP9CcGK7jSD8C/A7m0aNBiAW4T+aAS0h/EeA8C8EJ7bbCMK/Svs0BRqAfqr0JkX4Z6hF+Mcj/AvBie1G+NtEA9BLld6kCP8MtQj/eIR/ITix3Qh/22gA4lTpTYrwz1CL8I9H+BeCE9uN8HcBDUCU6RtFXH5CE/4ZahH+8Qj/QnBiuxH+rqABGCaXn9CEf4ZahH88wr8QnNhuhL9LaACGxeUnNOGfoRbhH4/wLwQnthvh7xoagGFw+QltMvxdfrFVJfyt7gPCvxCc2G6Ev4toAExz+QlN+GeoRfhnQvi7wYntRvi7igbAJJef0CULf0/V4r9RsfCvefZewj3HrlL4a5Ga1+O5aJsT243wdxkNgCkuP6FLFv4iIisXLe3+YsXCX0Rk5eQyg4XTWTkx1f3FioW/iMjBi2K2g21ObDfC33U0ACa4/IQuYfiLiKxfuabzCLSC4S8icuqhxxosns7J0bErGP415cn6Q9YYLp6TE9uN8C8CGoC8XH5ClzT8RUSWjS+Wl69e3/hHRcNfROTX155ncIB0OsauYPiLiFx41DpZPhlzNsoWJ7Yb4V8UNAB5uPyELnH4B645/fUy4Y2ZK1iw8P/VNafLGYetNThIOmeuOl4uWXN6ZcN/olaX6879j4YHyMGJ7Ub4FwkNQFYuP6ErEP4iIsctXyUfuPBKqZu4Catg4X/CiiPlfS+/0uAg2bz/ojfLCSuPNFewIK+rmufJBy5+sxx70OGGB8nIie1G+BcNDUAWLj+hKxL+gUvXnCl/9arr5KipQ7MXKVD4e0rJ5SdcIDe+5l2ydGzS4EDZLB2blBt//d1y+QkXiKdUvmIFeV0dtewQ+ehr3iaXrj3b8CAZObHdCP8iqtueQOG4/ISuWPgHzjrsePnS6/5Q7nz2Iblny8Oyde8OmdcLyVY2Hf4mhaa2ZGxSXrbiSHnlMWfIMctW2ZtTjEX1cXnfRVfKladeKrdvul8efWmz7J2bsTehIbyu6qouhy09SC44cp1cdPQpZs46meDE+xHhX1Q0AGm4/ISuaPgH6l5NLjnqNLnkqNNsT6Wyjlm2St5y2qttTwNZEP6VxCWApFx+Qlc8/AHkQPhXFg1AhKd094VMl5/QhD+ArAj/SqMBGMTlJzThDyArwr/yaAD6cfkJTfgDyIrwh9AA9ObyE5rwB5AV4Y8mGoA4Lj+hCX8AWVU4/JXiHS+KBmCYCH8Arqhw+CMeDcCwVCX8eeEC7iP8EYMGYBgIfwBDppN+iiXhjx5oAEyrWPjPLMwZLAogqf3zs4MXIvzRBw2ASRULfxGRvXP7DRYGkNS+2QG/b4HwxwA0AKZUMPxFRLbs3W6wOICknt3zUu9vEv5IgAbAhIqGv4jIpp3PGRwAQFKbdmyN/wbhj4RoAPKqcPiLiGzdt0O27tthcCAAgzy/d4ds3RNz9o3wRwo0AHlUPPwDG7Y+anAwAIP85JlHur9I+CMlGoCsCP+WWzfdZ3BAAIPc9uSGzi8Q/siABiALwr/DvVt/Kc9zGQAYief37pCfPvPL9hcIf2REA5AW4d9lQfvyd4/cbnBwAL38rwdvkwXtN/5B+CMHGoA0CP+evv7Yj7kZEBiy5/Zsl39++M7GPwh/5EQDkBTh39eBhTn5+IavGZwIgKiP3/VVObAwR/jDCBqAJAj/RO7Y/KB888l7zcwFQId//eXd8oNNDxL+MIYGYBDCP5W/uvcf5PEdW8wUAyAiIo9te1Y++uN/IPxhFA1AP4R/ajMLs/Jfbv+0PLd3m7miQIU9t2ebvPfbn5KZuQS//CcW4Y94NAC9EP6Z6724f5e89bsflyc4EwDksnHnc/KOb3xcXty7K2MFwh+90QDEIfxz13tx/y551203yt1bHjY8CFANd21+SN7+zzfI1t1Zf+EW4Y/+aACifMP1Khj+gZ0H9sp7b/+s/P/3/ZPMJPnd5QBk//wB+cTdX5M//PZnZNfMvoxVCH8MVrc9gVKrcPi3v6Xl7x/+vnzvqfvlqtNfJ792zFlS92qGJwAU37y/IN99/KfyuZ9+Q57fu4Mb/jB0NADDQvh3eH7fDvnvd31F/ubBb8nrj79AXnPsOXL4kpWGJwMUz5bdL8l3Hr9X/uWRu+S5Pc2bZwl/jAANwDAQ/j09t3ebfO6Bb8rnHvimHLtslZx12AmydsVqWTN1mCwbXySLxyYNT9JBvIFW1r7ZGdk1u0+e2vm8PPHSs3Lflsdk487nOhci/DEiNACmEf6Jbdy1VTbu2iqiDU+uNNttwMIO7tOh1Oqql7N4Kbcb4Y/0uAnQJMI/Qy3CP9PCTu9Tg7W66hH+iVd0Ym5wGQ2AKYR/hlqEf6aFnd6nBmt11SP8E6/oxNzgOhoAEwj/DLUI/0wLO71PDdbqqkf4J17RibmhCGgA8iL8M9Qi/DMt7PQ+NVirqx7hn3hFJ+aGoqAByIPwz1CL8M+0sNP71GCtrnqEf+IVnZgbioQGIEIrrZItmHuBTIuOtJbpeoR/toWd3qcGa3XVI/wTr+jE3FA0NABZEP4ZahH+mRZ2ep8arNVVj/BPvKITc0MR0QCkRfhnqEX4Z1rY6X1qsFZXPcI/8YpOzA1FRQOQBuGfoRbhn2lhp/epwVpd9Qj/xCs6MbcC0abfjIqPBiApwj9DLcI/08JO71ODtbrqEf6JV3Ribig6GoAkCP8MtQj/TAs7vU8N1uqqR/gnXtGJuaEMaAAGIfwz1CL8My3s9D41WKurHuGfeEUn5oayoAHoh/DPUIvwz7Sw0/vUYK2ueoR/4hWdmBvKhAagF8I/Qy3CP9PCTu9Tg7W66hH+iVd0Ym4oGxqAOIR/hlqEf6aFnd6nBmt11SP8E6/oxNxQRjQAUf6gBQj/7lqEf6aFnd6nBmt11SP8E6/oxNxQVjQAqRD+3bUI/0wLO71PDdbqqkf4J17RibmhzGgAEiP8u2sR/pkWdnqfGqzVVY/wT7yiE3ND2dEAJEL4d9ci/DMt7PQ+NVirqx7hn3hFJ+aGKqABGIjw765F+Gda2Ol9arBWVz3CP/GKTswNVUED0Bfh312L8M+0sNP71GCtrnqEf+IVnZgbqoQGoCfCv7sW4Z9pYaf3qcFaXfUI/8QrOjE3VA0NQCzCv7sW4Z9pYaf3qcFaXfUI/8QrOjE3VBENQB4uv3AJ/xHUI/zj6xH+iVdN1SQuAAAINUlEQVR0Ym6oKhqArFx+4RL+I6hH+MfXI/wTr+jE3FBlNABZuPzCJfxHUI/wj69H+Cde0Ym5oerqtifgHCWqb+65/MIl/EdQj/CPr0f4J17RiblVj1KibM/BNTQAEZ6uqQXd4xcCuPzCNR7+Bl8rpdluA7aL0/vUYK2uejmfLy6HWK7wj9kmLu/TklO+4ox3BA1AhK91/DuZyy9cjvxHUG/ER/4i5noww/1cZz0DR/6m52a9Fkf+LvJVj/f2CqMBiNBavK6nicsvXMI/u8RvBwnCv3QhlrSeQ0f+Tmw3jvxdxSWAbjQAUVrU0F5gTr/hVSj8XT7yd3m7mSxeyu3Gkb/LtNZcAoigAYjwlRpOA+D0Gx7X/HsvXNBr/iJDPCvh2DV/Z55vHPm7TJl9RZQCDUCUUkr7Dh8Nm67Hkf+IBh/hcJz2H3GtETxXCP/ctHAPQBQNQIRaMPwkcfoNr0LhL5Iytwp65M+P+mWX6ZXPaf/CUPwUQBQNQDdPmzpT5PIbnhapzGl/k4M7v0+HVc/AZaKh/SSCgVomJ+HyPq0wZeyNvTxoACJ8LcrIa66yQeEYbvizX7yU220ER/4wSysagAgagC5K8YZnsZ5JVQl/kSHf8GeqlgFOvBb6rGj9rAR68YWfAoiiAYjQovKdAXD6DW8I7yquvuG5HP4iBdlujoW/iCMfjsRp/0JSPmcAImgAonw/+z0ALr9wuebfZ3Bu+Isvzt3+w5uEvSGqSimPMwARNAARvtJepp8WcfmFW8o34xEM7vJ2E+G0f1bc7V9JutfHvFcYDUBETXuzC2lfiC6/cF1/MzbJ9dP+plTttL8pueY25NP+GDql1ZztObiGBiBiQWRfqksALr8JEP59Fh7haX+Tqvajfi7WCrh6HwdiaSV7bM/BNTQAEVp5exLfK+fyC5cb/rIvXNkQK+k1fxFO+0M8Ubttz8E1NAARnq9f8G1cKnL9bn9TXA9/k6oSFK6Hfyb8nH/ZaL3wou05uIYGIML3/H/XCyPeLMbD39F7XayH/wi3ixNHsD243phYP9PU57lifW7Iakz0A7bn4BoagIjxcfXTmRkZ3QuUI//sqvDZ/qaZvOFPpISNCT/qV07K3zk7+aDtWbjG0UNFu4756LUvaVEru75R2aBwDKf97Svl3Aj/Etvy1Ac+c4TtSbiGMwBxlLpPa3VZx9esH8H24fJv9TOtKuEv4u7RtYi7cyP8EaOm5F7bc3ARDUAsdbuWUAPg8gt3GNf8Xb3Ombpega/5m2T6tL9JzjQmI/g5f863WuN7/m225+AiGoAYE/P7/2G/t+hDIkq59n7ZoWrX/E2p7Nwc+5Cfyu4HjJLW4o+N179qex4uoiftYc1fXfcLX3vrbM+jJ8I/m8rOzbHwN4m5oQ9P6fueev+nz7Y9DxdxBqAX5f299tWf2p5GrCr9qJ9JlZ1bzueLy9vNtCo91opQ4v8v23NwFQ1AD/7UgY+rnZPv01ombM+lgxYh/DMO7uqNayJDnltJP943Mz7kp0L27T4w8Wnbk3AVvx6xh81X/fU25el/tD2PDq6/QSmD/6VS8Lv9TWJuA/SZhJXnLobJ8/y/33b9J3bZnoerOAPQxyLtv3ePeL8tWo1lKmD0Dc+Jd894Dk+tunNz7IE7Np0OLs8NmSmlDyyd0B+0PQ+X0a8OcPRH3vaVBd+7MvWKhL99Ls/NNJcfqxNz4+f8q6Ym/s1Pf/Cm37c9D5dxBmCA/fMz147XFr1Wa3VQ4pWMvxE42qdxzd8NLs9NxIHPlRjRBnL0ZVpFntbbZg7y3ml7Hq6r2Z6A6/b9232zB7/2nF3zC97lIx/c5Td218O/wMNZU9rHGXOhXpu8YYX/XPuv7vnv2PKeT90t6IueNaEj//Ltty743qUjG7C0b8YxXP54X5MKPPXUqvJYq/I4C6Tu+d/a/P4bX2t7HkXAJYCE9NShb/B2vfi476vDhz/Y0EdwB+FfPlV6rHBKTfwtcy/t/m3b8ygKzgCkcPTH3nbe3Kx3h9ZqcmiD8OaZTZW2m8uf7W9SiR8azFOi901MLly86f+96T7bcykKPgcghaf/4MafjC2a/01RMjeUAXjDy6Zq2611qVPnu1TqOpOXhVFyen5cyZsI/3R4aWRw1Eeuu3p2buxTolU1bqKs0g1/JhV46lax3ZCG0gsTMn/N0x+86W9sT6VoaAAyOvIjb71ifm7sy76WcdtzKRTe3LOpyml/09hUpaaUnhuvzU1vft+nv2x7LkVEA5DDkR95+2Xz894/aV8tsT2XQuDN2IAS/1Y/IAUleu+YN//6ze+/6XbbcykqGoCcjv3k2w6f3Vv73ty8w786uGwIMTc4sR+cmARGrKYWHltcm7vsifd95inbcykyGgATtKgjPvL2z83O198iPh+uVCjkR/mwT8tL6YVxPX/zs39841W2p1IGNAAGHX3DdafOHaj/3dx87ZS+W5Y3qPJhn5YP+9QpdTW/aXJM3rjpDz+5wfZcyoIGYAiO+PA7ft/31YfmFryjur7JmwoG4TkCtIyphc2eWvivz37gU5+3PZeyoQEYojUffvvvzGr1X+cW6utFK8/4OztBgVHi+YaR0f6Yt/DwmJ7/s6c/eNPf2Z5NWdEAjMCJf3nNIbv12J8sLKjXLyzU1mit+AjmMiAQAWOU8hfqsvB0zZN/XjS7688fv/5Lz9ueU9nRAIzaLVfUjnry0N9YEHmdr9V60bVjfC3LRakxX0tda+XlChYlIpr9CoNodGCCElGifaX0ghKZ97S/Q4l+2vPkF3Ut//rU3KH/KNdfP297mlXyfwH9YKNu7WkHAgAAAABJRU5ErkJggg==;" parent="KNDpphYwNKjy-yqR0-zG-10" vertex="1">
          <mxGeometry x="80" y="170" width="80" height="80" as="geometry" />
        </mxCell>
        <mxCell id="KNDpphYwNKjy-yqR0-zG-3" value="" style="shape=image;verticalLabelPosition=bottom;labelBackgroundColor=default;verticalAlign=top;aspect=fixed;imageAspect=0;image=data:image/svg+xml,PHN2ZyB4bWxucz0iaHR0cDovL3d3dy53My5vcmcvMjAwMC9zdmciIHhtbDpzcGFjZT0icHJlc2VydmUiIHZpZXdCb3g9IjAgMCAzNjMuMiA3MiIgeT0iMCIgeD0iMCIgaWQ9IkxheWVyXzEiIHZlcnNpb249IjEuMSI+PHN0eWxlPi5zdDB7ZmlsbDojNTk1OTVifTwvc3R5bGU+PHBhdGggZD0iTTExMi43IDQ3LjZoMTIuOGM3LjEgMCAxMC42IDIuNCAxMC42IDcuMSAwIDMuMi0xLjggNS40LTUuNCA2LjRsNi45IDEwLjNoLTQuNGwtNi4zLTkuNmgtMTAuNHY5LjZoLTMuN1Y0Ny42aC0uMXptMTIuNCAxMS4zYzQuNyAwIDctMS40IDctNC4yIDAtMS41LS41LTIuNS0xLjYtMy4yLTEuMS0uNy0yLjgtMS01LjMtMWgtOC44djguNGg4Ljd6TTE0MS45IDQ3LjZoMjEuOHYyLjloLTE4djcuMmgxNy4xdjIuOWgtMTcuMXY3LjloMTguOGwtLjcgMi45aC0yMS45VjQ3LjZ6TTE2OS42IDQ3LjZoMjAuN3YyLjloLTE2LjlWNThoMTYuMXYyLjloLTE2LjF2MTAuNWgtMy44VjQ3LjZ6TTE5NSA0Ny42aDIxLjh2Mi45aC0xOHY3LjJoMTcuMXYyLjloLTE3LjF2Ny45aDE4LjhsLS43IDIuOUgxOTVWNDcuNnpNMjIyLjMgNDcuNmgxMi44YzcuMSAwIDEwLjYgMi40IDEwLjYgNy4xIDAgMy4yLTEuOCA1LjQtNS40IDYuNGw2LjkgMTAuM2gtNC40bC02LjMtOS42aC0xMC40djkuNmgtMy43VjQ3LjZoLS4xem0xMi40IDExLjNjNC43IDAgNy0xLjQgNy00LjIgMC0xLjUtLjUtMi41LTEuNi0zLjItMS4xLS43LTIuOC0xLTUuMy0xSDIyNnY4LjRoOC43ek0yNTEuMSA0Ny42aDIxLjh2Mi45aC0xOHY3LjJIMjcydjIuOWgtMTcuMXY3LjloMTguOGwtLjcgMi45aC0yMS45VjQ3LjZ6TTI3OC41IDQ3LjZoMy43bDE4LjIgMTkuMVY0Ny42aDMuN3YyMy44aC0zLjdsLTE4LjItMTkuMXYxOS4xaC0zLjdWNDcuNnpNMzM2IDU0LjhsLTMuNy41Yy0uOC0xLjktMS45LTMuMy0zLjQtNC4xLTEuNS0uOC0zLjUtMS4zLTYuMi0xLjMtMi4yIDAtNC4xLjQtNS43IDEuMi0xLjYuOC0yLjggMS45LTMuNyAzLjMtLjkgMS40LTEuMyAzLjEtMS4zIDUuMSAwIDIgLjQgMy43IDEuMyA1LjEuOSAxLjQgMi4xIDIuNSAzLjcgMy4zIDEuNi44IDMuNSAxLjEgNS44IDEuMSAyLjggMCA1LS40IDYuNi0xLjMgMS42LS45IDIuNi0yLjMgMy4xLTQuMmgzLjljLS41IDIuNy0yIDQuOC00LjMgNi4zLTIuMyAxLjQtNS40IDIuMi05LjMgMi4yLTMgMC01LjYtLjUtNy44LTEuNXMtMy45LTIuNS01LjEtNC4zYy0xLjItMS45LTEuOC00LjEtMS44LTYuNnMuNi00LjcgMS44LTYuNmMxLjItMS45IDIuOS0zLjMgNS4xLTQuNCAyLjItMSA0LjgtMS42IDcuNy0xLjYgNy4yIDAgMTEuNiAyLjYgMTMuMyA3Ljh6TTM0MC42IDQ3LjZoMjEuOHYyLjloLTE4djcuMmgxNy4xdjIuOWgtMTcuMXY3LjloMTguOGwtLjcgMi45aC0yMS45VjQ3LjZ6IiBjbGFzcz0ic3QwIi8+PGc+PHBhdGggZD0iTTExMi43IDFoOC44djE1LjRoMTUuNlYxaDguOHY0MGgtOC44VjI0LjNoLTE1LjZWNDFoLTguOFYxek0xNTIuMSA5LjdjMS42LTMuMiAzLjgtNS42IDYuNy03LjJDMTYxLjcuOSAxNjUuMSAwIDE2OS4xIDBjMy45IDAgNy4zLjggMTAuMiAyLjQgMi45IDEuNiA1LjEgNCA2LjYgNy4xczIuMyA2LjkgMi4zIDExLjNjMCA0LjUtLjggOC4zLTIuNCAxMS41LTEuNiAzLjItMy44IDUuNi02LjcgNy4yLTIuOSAxLjctNi4zIDIuNS0xMC4zIDIuNS0zLjkgMC03LjMtLjgtMTAuMi0yLjQtMi45LTEuNi01LjEtNC02LjctNy4xLTEuNi0zLjEtMi40LTYuOS0yLjQtMTEuNHMxLTguMyAyLjYtMTEuNHpNMTY5IDcuNmMtMy40IDAtNS45IDEuMi03LjYgMy42LTEuNyAyLjQtMi41IDUuNi0yLjUgOS44cy44IDcuNSAyLjUgOS44YzEuNyAyLjQgNC4yIDMuNiA3LjYgMy42IDMuMyAwIDUuOC0xLjIgNy41LTMuNiAxLjctMi40IDIuNS01LjYgMi41LTkuOHMtLjgtNy41LTIuNS05LjhjLTEuNy0yLjQtNC4yLTMuNi03LjUtMy42ek0xOTYuOCAzNi42Yy0zLjMtMy42LTUtOC43LTUtMTUuMyAwLTQuNS44LTguNCAyLjQtMTEuNSAxLjYtMy4yIDMuOC01LjYgNi42LTcuMiAyLjgtMS43IDYuMi0yLjUgMTAtMi41IDUgMCA4LjggMS4yIDExLjQgMy42IDIuNiAyLjQgNC4zIDUuOCA1LjEgMTAuMWwtOC43IDEuMWMtLjUtMi40LTEuNC00LjEtMi42LTUuNC0xLjItMS4yLTMtMS44LTUuNS0xLjgtMyAwLTUuMyAxLjItNi45IDMuNS0xLjYgMi40LTIuNCA1LjYtMi40IDkuOCAwIDQuMy44IDcuNiAyLjQgOS45IDEuNiAyLjQgNCAzLjUgNy4xIDMuNSAyLjcgMCA0LjYtLjcgNS45LTIgMS4zLTEuNCAyLjEtMy4yIDIuNC01LjVoOC44Yy0uNCA0LjYtMiA4LjItNC45IDExLTIuOSAyLjgtNyA0LjItMTIuNCA0LjItNS44LS4xLTEwLjQtMS45LTEzLjctNS41ek0yMzIgMWg4Ljh2MTYuNkwyNTUuNiAxaDkuNWwtMTMuNCAxNC45TDI2Ni41IDQxaC05LjdsLTExLTE4LjgtNSA1LjVWNDFIMjMyVjF6TTI3MCAxaDI3Ljd2Ny4xaC0xOVYxN2gxNy45djcuMWgtMTh2OS43aDIwLjJsLS45IDcuMWgtMjhMMjcwIDF6TTMwMS4xIDFoOS42bDguNCAxNyA4LjYtMTdoOS4ybC0xMy40IDI0LjFWNDFoLTguOVYyNS4xTDMwMS4xIDF6IiBjbGFzcz0ic3QwIi8+PC9nPjxnPjxwYXRoIGZpbGw9IiNmZmYiIGQ9Ik0xMDIuMiAwdjcycy0xNC45LTEwLTM3LTEwQzQ3LjQgNjIgMTAgNjUgMCAxNi4xYzAgMCA2LjggNS45IDIwLjcgNS45IDIyLjUgMCAyOS45LTIyIDgxLjUtMjJ6Ii8+PHBhdGggZmlsbD0iIzAwOThkNCIgZD0iTTQ1LjcgNDAuNWwyLjcgMS45LTEuOSAyLjYtMi43LTEuOSAxLjktMi42em0tNS43LS4xbDIuNyAxLjkgMS45LTIuNy0yLjctMS45LTEuOSAyLjd6bTExLjEtMmwtMi43LTEuOS0xLjggMi43IDIuNyAxLjkgMS44LTIuN3ptNTEuMSA0LjZ2MjlzLTE0LjktMTAtMzctMTBDNDcuNCA2MiAxMCA2NSAwIDE2LjFjMCAwIDYuOCA1LjkgMjAuNyA1LjkgMjIuNSAwIDI5LjktMjIgODEuNS0yMnYyMS45Yy0zLjcgNS4yLTE1LjcgMTAuNS0zMC40IDEzLTkuNSAxLjYtMTguNCAxLjctMjQuOC42bC4zLjItMS45IDIuNy0yLjctMS45IDEuMi0xLjdjLS40LS4xLS43LS4yLTEuMS0uM2wtMSAxLjQtMi41LTEuOS41LS44Yy0uNS0uMy0uOS0uNS0xLjMtLjhsLS41LjctLjktLjYuNiAzLjYuNi0uOSAyLjcgMS45LTEuOSAyLjctLjktLjYuNSAzIC40LS41IDIuNyAxLjktMS45IDIuNy0uNS0uNC4zIDEuN2MxIDYuMSAxNi44IDguNiAzNS4yIDUuNCAxMS45LTIgMjItNS45IDI3LjMtMTB6TTQxLjEgMjYuOWMuOSA1LjIgMTQuNCA3LjMgMzAuMSA0LjdDODcgMjguOSA5OSAyMi41IDk4LjEgMTcuMyA5Ny4yIDEyIDgzLjcgMTAgNjggMTIuNnMtMjcuOCA5LjEtMjYuOSAxNC4zem0xMS4yIDE4LjJsLTIuNy0xLjktMS45IDIuNyAyLjcgMS45IDEuOS0yLjd6bTIuNy00bC0yLjctMS45LTEuOSAyLjcgMi43IDEuOSAxLjktMi43ek00OS41IDQ5bC0yLjctMS45LTEuOSAyLjcgMi43IDEuOSAxLjktMi43em0tNS43LS4xbDEuOS0yLjctMi43LTEuOS0xLjkgMi43IDIuNyAxLjl6Ii8+PC9nPjwvc3ZnPg==;" parent="KNDpphYwNKjy-yqR0-zG-10" vertex="1">
          <mxGeometry x="10" y="90" width="210" height="40" as="geometry" />
        </mxCell>
        <mxCell id="KNDpphYwNKjy-yqR0-zG-12" value="" style="edgeStyle=orthogonalEdgeStyle;rounded=0;orthogonalLoop=1;jettySize=auto;html=1;fontSize=22;entryX=-0.007;entryY=0.442;entryDx=0;entryDy=0;entryPerimeter=0;exitX=1;exitY=0.5;exitDx=0;exitDy=0;startArrow=none;" parent="KNDpphYwNKjy-yqR0-zG-16" source="KNDpphYwNKjy-yqR0-zG-0" target="KNDpphYwNKjy-yqR0-zG-7" edge="1">
          <mxGeometry relative="1" as="geometry">
            <mxPoint x="400" y="169.5" as="targetPoint" />
          </mxGeometry>
        </mxCell>
        <mxCell id="KNDpphYwNKjy-yqR0-zG-13" value="Extract" style="edgeLabel;html=1;align=center;verticalAlign=bottom;resizable=0;points=[];fontSize=22;horizontal=1;labelPosition=center;verticalLabelPosition=top;spacing=16;" parent="KNDpphYwNKjy-yqR0-zG-12" vertex="1" connectable="0">
          <mxGeometry relative="1" as="geometry">
            <mxPoint x="-74" y="-20" as="offset" />
          </mxGeometry>
        </mxCell>
        <mxCell id="KNDpphYwNKjy-yqR0-zG-14" value="" style="edgeStyle=orthogonalEdgeStyle;rounded=0;orthogonalLoop=1;jettySize=auto;html=1;fontSize=22;entryX=-0.007;entryY=0.442;entryDx=0;entryDy=0;entryPerimeter=0;exitX=1;exitY=0.25;exitDx=0;exitDy=0;endArrow=none;" parent="KNDpphYwNKjy-yqR0-zG-16" source="KNDpphYwNKjy-yqR0-zG-1" target="KNDpphYwNKjy-yqR0-zG-0" edge="1">
          <mxGeometry relative="1" as="geometry">
            <mxPoint x="240" y="85.75" as="sourcePoint" />
            <mxPoint x="447.9000000000001" y="74.93000000000006" as="targetPoint" />
          </mxGeometry>
        </mxCell>
        <mxCell id="KNDpphYwNKjy-yqR0-zG-0" value="" style="shape=image;aspect=fixed;image=data:image/png,iVBORw0KGgoAAAANSUhEUgAAAIIAAACCCAMAAAC93eDPAAABdFBMVEX///8IwM7gMh4Joz0BcewAcewW3esR0E8Qrf//ak0AbuwAvcwAoDLfKxONyZoAq/+N2uIAZ+sAmh3/Z0jdAwARsP8R0uAR0krfIgDlPCcFe+8AZOsX4PIKqkAAnCbfJwz31dNXzNes17Xn7vzg+Pn99fXvqqbyu7jxVTzS7/LoJwDtHADy+v8AtP8KkPUNyddm5O4NukbR3vrt+fGe0ankSjjobmDwnpX1y8eh4ujkUUHmYlXqhH3B7fH76OboenLtkon+dFt33OP/ysD/tKb/oJHcXlpSktN4gbPanZMyvP+PeKXPRUlarLK5TlaQoaN1i8bjeGTYfm24jILMgnPQPjh0q7Bjx/+mbZOO1P8MoPrFS1On3/8QhfE+n+auyfYgisI6QUJ0S0NddnZDODktdn15pPILpbgzcD0JmLwphEIPwnAKrVwGgtoMs4QTzsQLqpcNsnQWvZwQyWGQu/WC5JNKsWDL69WF2qGn7L1TmPFovHz3IpNhAAAHB0lEQVR4nO2Y61sTRxSHd7NsLrMJdFlyIcEE0IrSkCgoIoKF3rCW1tba1tJGpU2jVJSClij8853ZZJOd3bmc2aRPPzQ/PsA+xMeX95w5M7OaNsooo4wyiiR3/2sArVDJ+HNz9dbaLMmHQ/+fblsfsH+xXoj5k8lUCm7ubGxtba0NkWBT5yFoGzRDj6WCU5iamtpaWxtGrW5bus5D0FbZDF6wlfWNj2cHJNjEBHwEbUvM4BopTK0uDICxqetCBF4tAhyFm6sLAxGIELRbUwAGQlG4HKVDr+pyBO0WxANJIXZHuTkvzVkABO0yzIOrYkNtZlyqWxALmAHqAZu4qdITPQdSBAUPsczUFlzEnK5DEbQFuIdYZRrK4COQI6h4iGXWYQx+AgCCtqDCEAMwVCkCCMLQPdAE1m0AgpKHyhUZA02gW5sQBDUP22KGAIGuV0EISh6mhQz9eeAFRqA0o2KOgCFMAEZQ8eA427wdg0EAR1DwMJ1yUmwGFoECAtzDdCrlbM9CCSwFBG2hAkZIOU6YgUmg11UQwPvFFcKQ+hREoH+ihAD1QBCwB5qBQ2BdVUMAenARcPwMHAJ1BG0N70RgBOczKUEEBG0hI2fwEPoMXIIoCNrstJShh+Ax8An0+iV1BG12XdaUfYQOg4DAUlwQ3dxdLyzicAmmU744n4sI+JdaGcMXOzs796YLnIpQCCnnSz5AdITq/WQ2m136ape9RGmE1PbXIgTQmSlMkJ1IkmST30AQnAcihIEIcJa+/Ujcjf8SQrJHQBgY/UATpL4TdKPSVs1wwPMQkPCwPtxWqCYpAtwQIQ/BVhBJiDAbq/cDBAwPdCs434vKoMNO8H6CpRAB9nCPXpsORfBIUIYoszHswM0PFW4dHNFQ0K05VQccgmxyN8Opg/OjsAyW6h71E5uAtGSBXQfhSNDVpwKXALfk40VWHSQOlM+NAoJk8knvMOU7K6RkBMAbrZefMUHWS7gUOx6CbyQJpyLJHPBG2yVITkxM1BpFN7U9/ECDLP1SoesgmQeuBKU6/LpXayCExrrBPxZrtT0/xZOKvxmd1QeiedBFUCJomGPIHOt8ed+QWWzsTXgU2ccVnwTx1tSNioRls/f30yEyPBfZxVjvEgNQgKOwPzy1ewZ8FroP+LG2h6cTntOLbjM62/IucMugIGG5xFbgSwOryD7ZrVzBBh4JR7IPAT4ZnxICvgX3GxpDtYln+/u/bT8EAug6/KSwbEsduIiouN/cb/4OBQC/5cJbU5HTiSEIu7m/3/xj+ARay+a4px+QbT9/0Ww2ddBSULo+LMMc2OZBPp/484U+E89BIBQIqg3E/cP7DwgdvMwnEokLFw5n4ji5IRLgiSA3gEqvXuddAsNIH7kM8VzOEo1HlbHYQPzye2N67K83BCCRMDDCcbyX4RDIJZj2s+MOQOI6RjDKJzN9iFyuHpBh6VY9d02BQDtDgkXgLgR0kO8SkDqQxAOp6/Veg9bruXhcaYeuyiYzapx4AG4dSCn8Gnw+SNwflRxgCaJRQAZiok/QlYA7koHQj9ppsVoTDwXUeNMn6EogHcnS4EXNAW5GUzgQGz4HnWbslmJYDmTrARX9DnwI4Y6M6kDTSqawCn4H/TqIGNQvkCXRTKYdUBKoATWIA+2tqA6lE4qAlmCUjxgtqU6gtRDfAjpI0LlAMxhhhmtK15ZOzkRL8iUt4XqAwJgMMkRwQE4KXAvoFU0QRgh5iPKmWXRmtI/lCLSHKARkKnAtlIIIYQJ6REV44a+Ro4JgPbwEIBjlw/jMAA6oqRCyYD+HIBhp4/VRfGbmSPmtmofAl2CW3v7NH0wURPn49Un6dCUSQZVvwbSfato73gYRhEinjfRhOwqCYDaW3pIP+D0EB1O4IlEYWrxuNDsElAcZAoaYj4LALoRpt7yP9BnkCEYEDxwLPQck71UQ1D2cMS2YqOX/0Ps8HEHZw0XmhRpXgd7v3qsgKHpYtsfCFkx0Ftxx23nJoozOwNykUC28588rIBiTKgwsC6hxkfHJNn9AD+aBYYFNQBjywGZQ8xC2gIpsAk1bSeShlcDb5w0oQugOgRCPgDDAEeAeWoi2wHfQYQBXAu4hcHZFJREBYYAjQD3QFymxAzdv0goMIA+IepEhcUCyYigwlCEekJoDwnA6ZA8+C8iGEAzfQ98CMmEExENZwYOUoWdBNA9CmU/DRUhnNVJ24KZ9Dhch64euBUUCnPlDsIi0mAFJpzIvK/OHZSBFeVyCEMVBJ+1zA1aP9DsxAng1siDaxmQa0JsiDwg6kfh5d35alpYkfSpAgExlSVba7fPJyXJa5KN8zvnHVTSoAx/I+Pj4ebqMjTBBeJfei/bgDiiMNs78KbnkhjLJ6YfW8jAJAjw3boz7E+naPcooo4zyf8o/DmcaawaR3IsAAAAASUVORK5CYII=;" parent="KNDpphYwNKjy-yqR0-zG-16" vertex="1">
          <mxGeometry x="270" y="50" width="70" height="70" as="geometry" />
        </mxCell>
        <mxCell id="KNDpphYwNKjy-yqR0-zG-21" value="" style="group" parent="KNDpphYwNKjy-yqR0-zG-19" vertex="1" connectable="0">
          <mxGeometry x="381" y="198" width="1159" height="718" as="geometry" />
        </mxCell>
        <mxCell id="CisExYW3H4FbfbOQDLme-0" value="" style="group" vertex="1" connectable="0" parent="KNDpphYwNKjy-yqR0-zG-21">
          <mxGeometry y="12" width="300" height="170" as="geometry" />
        </mxCell>
        <mxCell id="CisExYW3H4FbfbOQDLme-1" value="Stage" style="rounded=1;whiteSpace=wrap;html=1;labelBackgroundColor=none;labelBorderColor=default;fontSize=22;fillColor=#1ba1e2;fontColor=#ffffff;strokeColor=#006EAF;horizontal=1;verticalAlign=top;" vertex="1" parent="CisExYW3H4FbfbOQDLme-0">
          <mxGeometry width="300" height="170" as="geometry" />
        </mxCell>
        <mxCell id="CisExYW3H4FbfbOQDLme-3" value="" style="sketch=0;points=[[0,0,0],[0.25,0,0],[0.5,0,0],[0.75,0,0],[1,0,0],[0,1,0],[0.25,1,0],[0.5,1,0],[0.75,1,0],[1,1,0],[0,0.25,0],[0,0.5,0],[0,0.75,0],[1,0.25,0],[1,0.5,0],[1,0.75,0]];outlineConnect=0;fontColor=#232F3E;gradientColor=#60A337;gradientDirection=north;fillColor=#277116;strokeColor=#ffffff;dashed=0;verticalLabelPosition=bottom;verticalAlign=top;align=center;html=1;fontSize=12;fontStyle=0;aspect=fixed;shape=mxgraph.aws4.resourceIcon;resIcon=mxgraph.aws4.s3;" vertex="1" parent="CisExYW3H4FbfbOQDLme-0">
          <mxGeometry x="116" y="50" width="78" height="78" as="geometry" />
        </mxCell>
        <mxCell id="KNDpphYwNKjy-yqR0-zG-32" value="Load&#xa;&#xa;&#xa;&#xa;" style="shape=image;aspect=fixed;image=data:image/png,iVBORw0KGgoAAAANSUhEUgAAAIIAAACCCAMAAAC93eDPAAABdFBMVEX///8IwM7gMh4Joz0BcewAcewW3esR0E8Qrf//ak0AbuwAvcwAoDLfKxONyZoAq/+N2uIAZ+sAmh3/Z0jdAwARsP8R0uAR0krfIgDlPCcFe+8AZOsX4PIKqkAAnCbfJwz31dNXzNes17Xn7vzg+Pn99fXvqqbyu7jxVTzS7/LoJwDtHADy+v8AtP8KkPUNyddm5O4NukbR3vrt+fGe0ankSjjobmDwnpX1y8eh4ujkUUHmYlXqhH3B7fH76OboenLtkon+dFt33OP/ysD/tKb/oJHcXlpSktN4gbPanZMyvP+PeKXPRUlarLK5TlaQoaN1i8bjeGTYfm24jILMgnPQPjh0q7Bjx/+mbZOO1P8MoPrFS1On3/8QhfE+n+auyfYgisI6QUJ0S0NddnZDODktdn15pPILpbgzcD0JmLwphEIPwnAKrVwGgtoMs4QTzsQLqpcNsnQWvZwQyWGQu/WC5JNKsWDL69WF2qGn7L1TmPFovHz3IpNhAAAHB0lEQVR4nO2Y61sTRxSHd7NsLrMJdFlyIcEE0IrSkCgoIoKF3rCW1tba1tJGpU2jVJSClij8853ZZJOd3bmc2aRPPzQ/PsA+xMeX95w5M7OaNsooo4wyiiR3/2sArVDJ+HNz9dbaLMmHQ/+fblsfsH+xXoj5k8lUCm7ubGxtba0NkWBT5yFoGzRDj6WCU5iamtpaWxtGrW5bus5D0FbZDF6wlfWNj2cHJNjEBHwEbUvM4BopTK0uDICxqetCBF4tAhyFm6sLAxGIELRbUwAGQlG4HKVDr+pyBO0WxANJIXZHuTkvzVkABO0yzIOrYkNtZlyqWxALmAHqAZu4qdITPQdSBAUPsczUFlzEnK5DEbQFuIdYZRrK4COQI6h4iGXWYQx+AgCCtqDCEAMwVCkCCMLQPdAE1m0AgpKHyhUZA02gW5sQBDUP22KGAIGuV0EISh6mhQz9eeAFRqA0o2KOgCFMAEZQ8eA427wdg0EAR1DwMJ1yUmwGFoECAtzDdCrlbM9CCSwFBG2hAkZIOU6YgUmg11UQwPvFFcKQ+hREoH+ihAD1QBCwB5qBQ2BdVUMAenARcPwMHAJ1BG0N70RgBOczKUEEBG0hI2fwEPoMXIIoCNrstJShh+Ax8An0+iV1BG12XdaUfYQOg4DAUlwQ3dxdLyzicAmmU744n4sI+JdaGcMXOzs796YLnIpQCCnnSz5AdITq/WQ2m136ape9RGmE1PbXIgTQmSlMkJ1IkmST30AQnAcihIEIcJa+/Ujcjf8SQrJHQBgY/UATpL4TdKPSVs1wwPMQkPCwPtxWqCYpAtwQIQ/BVhBJiDAbq/cDBAwPdCs434vKoMNO8H6CpRAB9nCPXpsORfBIUIYoszHswM0PFW4dHNFQ0K05VQccgmxyN8Opg/OjsAyW6h71E5uAtGSBXQfhSNDVpwKXALfk40VWHSQOlM+NAoJk8knvMOU7K6RkBMAbrZefMUHWS7gUOx6CbyQJpyLJHPBG2yVITkxM1BpFN7U9/ECDLP1SoesgmQeuBKU6/LpXayCExrrBPxZrtT0/xZOKvxmd1QeiedBFUCJomGPIHOt8ed+QWWzsTXgU2ccVnwTx1tSNioRls/f30yEyPBfZxVjvEgNQgKOwPzy1ewZ8FroP+LG2h6cTntOLbjM62/IucMugIGG5xFbgSwOryD7ZrVzBBh4JR7IPAT4ZnxICvgX3GxpDtYln+/u/bT8EAug6/KSwbEsduIiouN/cb/4OBQC/5cJbU5HTiSEIu7m/3/xj+ARay+a4px+QbT9/0Ww2ddBSULo+LMMc2OZBPp/484U+E89BIBQIqg3E/cP7DwgdvMwnEokLFw5n4ji5IRLgiSA3gEqvXuddAsNIH7kM8VzOEo1HlbHYQPzye2N67K83BCCRMDDCcbyX4RDIJZj2s+MOQOI6RjDKJzN9iFyuHpBh6VY9d02BQDtDgkXgLgR0kO8SkDqQxAOp6/Veg9bruXhcaYeuyiYzapx4AG4dSCn8Gnw+SNwflRxgCaJRQAZiok/QlYA7koHQj9ppsVoTDwXUeNMn6EogHcnS4EXNAW5GUzgQGz4HnWbslmJYDmTrARX9DnwI4Y6M6kDTSqawCn4H/TqIGNQvkCXRTKYdUBKoATWIA+2tqA6lE4qAlmCUjxgtqU6gtRDfAjpI0LlAMxhhhmtK15ZOzkRL8iUt4XqAwJgMMkRwQE4KXAvoFU0QRgh5iPKmWXRmtI/lCLSHKARkKnAtlIIIYQJ6REV44a+Ro4JgPbwEIBjlw/jMAA6oqRCyYD+HIBhp4/VRfGbmSPmtmofAl2CW3v7NH0wURPn49Un6dCUSQZVvwbSfato73gYRhEinjfRhOwqCYDaW3pIP+D0EB1O4IlEYWrxuNDsElAcZAoaYj4LALoRpt7yP9BnkCEYEDxwLPQck71UQ1D2cMS2YqOX/0Ps8HEHZw0XmhRpXgd7v3qsgKHpYtsfCFkx0Ftxx23nJoozOwNykUC28588rIBiTKgwsC6hxkfHJNn9AD+aBYYFNQBjywGZQ8xC2gIpsAk1bSeShlcDb5w0oQugOgRCPgDDAEeAeWoi2wHfQYQBXAu4hcHZFJREBYYAjQD3QFymxAzdv0goMIA+IepEhcUCyYigwlCEekJoDwnA6ZA8+C8iGEAzfQ98CMmEExENZwYOUoWdBNA9CmU/DRUhnNVJ24KZ9Dhch64euBUUCnPlDsIi0mAFJpzIvK/OHZSBFeVyCEMVBJ+1zA1aP9DsxAng1siDaxmQa0JsiDwg6kfh5d35alpYkfSpAgExlSVba7fPJyXJa5KN8zvnHVTSoAx/I+Pj4ebqMjTBBeJfei/bgDiiMNs78KbnkhjLJ6YfW8jAJAjw3boz7E+naPcooo4zyf8o/DmcaawaR3IsAAAAASUVORK5CYII=;fontSize=22;verticalAlign=middle;horizontal=1;" parent="KNDpphYwNKjy-yqR0-zG-21" vertex="1">
          <mxGeometry x="319" y="52" width="70" height="70" as="geometry" />
        </mxCell>
        <mxCell id="KNDpphYwNKjy-yqR0-zG-34" value="" style="group" parent="KNDpphYwNKjy-yqR0-zG-19" vertex="1" connectable="0">
          <mxGeometry x="780" y="2" width="370" height="340" as="geometry" />
        </mxCell>
        <mxCell id="KNDpphYwNKjy-yqR0-zG-17" value="Data Warehouse" style="whiteSpace=wrap;html=1;fontSize=22;fillColor=#1ba1e2;strokeColor=#006EAF;fontColor=#ffffff;rounded=1;labelBackgroundColor=none;labelBorderColor=default;verticalAlign=top;spacing=10;" parent="KNDpphYwNKjy-yqR0-zG-34" vertex="1">
          <mxGeometry width="370" height="340" as="geometry" />
        </mxCell>
        <mxCell id="KNDpphYwNKjy-yqR0-zG-20" value="" style="shape=image;verticalLabelPosition=bottom;labelBackgroundColor=default;verticalAlign=top;aspect=fixed;imageAspect=0;image=data:image/png,iVBORw0KGgoAAAANSUhEUgAAAggAAAElCAYAAACBJhoWAAAAAXNSR0IArs4c6QAAIABJREFUeF7sXQWYVdUWXns6mAGGobu7uxukFZAWkBIEUURsWkQaTBAJEemWRkQQAUFSuruGAaZ79vv+de+5bxhn5t6JSzjrfG8+HzPn7Pj3OXv9e6XSWmuSSxAQBAQBQUAQEAQEgTgIKCEI8j4IAoKAICAICAKCQHwEhCDIOyEICAKCgCAgCAgC/0JACIK8FIKAICAICAKCgCAgBEHeAUFAEBAEBAFBQBCwjoBoEKxjJHcIAoKAICAICALpDgEhCOluyWXCgoAgIAgIAoKAdQSEIFjHSO4QBAQBQUAQEATSHQJCENLdksuEBQFBQBAQBAQB6wgIQbCOkdwhCAgCgoAgIAikOwSEIKS7JZcJCwKCgCAgCAgC1hEQgmAdI7lDEBAEBAFBQBBIdwgIQUh3Sy4TFgQEAUFAEBAErCMgBME6RnKHICAICAKCgCCQ7hAQgpDullwmLAgIAoKAICAIWEdACIJ1jOQOQUAQEAQEAUEg3SEgBCHdLblMWBAQBAQBQUAQsI6AEATrGMkdgoAgIAgIAoJAukNACEK6W3KZsCAgCAgCgoAgYB0BIQjWMZI7BAFBQBAQBASBdIeAEIR0t+QyYUFAEBAEBAFBwDoCQhCsYyR3CAKCgCAgCAgC6Q4BIQjpbsllwoKAICAICAKCgHUEhCBYx0juEAQEAUFAEBAE0h0CQhDS3ZLLhAUBQUAQEAQEAesICEGwjpHcIQgIAoKAICAIpDsEhCCkuyWXCQsCgoAgIAgIAtYREIJgHSO5QxAQBAQBQUAQSHcICEFId0suExYEBAFBQBAQBKwjIATBOkZyhyAgCAgCgoAgkO4QEIKQ7pZcJiwICAKCgCAgCFhHQAiCdYzkDkFAEBAEBAFBIN0hIAQh3S25TFgQEAQEAUFAELCOgBAE6xjJHYKAICAICAKCQLpDQAhCultymbAgIAgIAoKAIGAdASEI1jGSOwQBQUAQEAQEgXSHgBCEdLfkMmFBQBAQBAQBQcA6AkIQrGMkdwgCgoAgIAgIAukOASEI6W7JZcKCgCAgCAgCgoB1BIQgWMdI7hAEBAFBQBAQBNIdAkIQ0t2Sy4QFAUFAEBAEBAHrCAhBsI6R3CEICAKCgCAgCKQ7BIQgpLsllwkLAoKAICAICALWERCCYB0juUMQEAQEAUFAEEh3CAhBSHdLLhMWBAQBQUAQEASsIyAEwTpGcocgIAgIAoKAIJDuEBCCkO6WXCYsCAgCgoAgIAhYR0AIgnWM5A5BQBAQBAQBQSDdISAEId0tuUxYEBAEBAFBQBCwjoAQBOsYyR2CgCAgCAgCgkC6Q0AIQrpbcpmwICAICAKCgCBgHQEhCNYxkjsEAUFAEBAEBIF0h4AQhHS35DJhQUAQEAQEAUHAOgJCEKxjJHcIAoKAICAICALpDgEhCOluyWXCgoAgIAgIAoKAdQSEIFjHSO4QBAQBQUAQEATSHQJCENLdksuEBQFBQBAQBAQB6wgIQbCOkdwhCAgCgoAgIAikOwSEIKS7JZcJCwKCgCAgCAgC1hEQgmAdI7lDEBAEBAFBQBBIdwgIQUh3Sy4TFgQEAUFAEBAErCMgBME6RnKHICAICAKCgCCQ7hAQgpDullwmLAgIAoKAICAIWEdACIJ1jOQOQUAQEAQEAUEg3SEgBCHdLblMWBAQBAQBQUAQsI6AEATrGMkdgoAgIAgIAoJAukNACEK6W3KZsCAgCAgCgoAgYB0BIQjWMZI7BAFBQBAQBASBdIeAEIR0t+QyYUFAEBAEBAFBwDoCQhCsYyR3CAKCgCAgCAgC6Q4BIQjpbsllwoKAICAICAKCgHUEhCBYx0juEAQEAUFAEBAE0h0CQhDS3ZLLhAUBQUAQEAQEAesICEGwjpHcIQgIAoKAICAIpDsEhCCkuyWXCQsCgoAgIAgIAtYREIJgHSO5QxAQBAQBQUAQSHcICEFId0suExYEBAFBQBAQBKwjIATBOkZyhyAgCAgCgoAgkO4QEIKQ7pZcJiwICAKCgCAgCFhHQAiCdYzkDkFAEBAEBAFBIN0hIAQh3S25TFgQEAQEAUFAELCOgBAE6xjJHYKAICAICAKCQLpDQAhCultymbAgIAgIAoKAIGAdASEI1jGSOwQBQUAQEAQEgXSHgBCEdLfkMmFBQBAQBAQBQcA6AkIQrGMkdwgCgoAgIAgIAukOASEI6W7JZcKCgCAgCAgCgoB1BIQgWMdI7rAzAlrrJ3pQSj35i3j9a62V8SulLP/XzqOU5gUBQUAQSF8ICEFIX+ud6tnGF+YJNZiU0DaeN0hAbGwsJLyOjo5WwcHB9ODBA7p27Rr5+/vr0NBQwu+cnJzIzc2NXF3dyNfXl4oUKawyZ85MXl5e5OjoCDKhHBwcmFSAPAhpSPUySwOCgCAgCJAQhBfwJUhKSEM44u/2EJJGvxERkRQaGkIREREUGRkJ+Uzu7m7k4uJCHh4e5OzszKjGHwOex09AQACdOHGC/vnnHzp37hydOnVKX7lyBaSAQArM/bBqIA6hsKwUyAD6yZYtG5UsWZLKlCmjKlasSJUqVdIFChQAWbDL/F/AV0WGLAgIAoJAihEQgpBi6Oz/IIRjdHQMPX78SN++fVvduXOHLl++TLdu3dL4/zhdGwIVJ+wMGTJQzpw5KXv27CpHjhyUJUsWyp07N2XOnFl7e3srCFUIbVvJA/oPDQ3V165dUxDk//zzjz58+DDdvn2bAgMDKSYmhn9w4ZQPYpApUyYFwV2kSBFdoUIFVaxYMcqRI4eOjIxUR44coe3bt+uDBw8Sxh8YGKiioqJ0AoTHmt3gCRME5uPp6al8fHx0+fLlqU2btqp+/XpUqFAh7ejoKBoF+7+q0oMgIAj8BxEQgvCcLSqEJYQmCMGOHTv0ypUr1eXLl7Wfnx+FhYWp6OjohATqE7MwS0Tt7OysPD09QQ4IPyVKlKBGjRqpGjVqUJ48efA7vifuad9ESqL11atX1eLFi2ndunX65s2bLMzx+wTgMoT5v/6Gk7yrqysL7piYGPXgwQOYEuI28QQRwP0wGYBsODo6WoiMQSBiY2MxNv4xtBGsvvj/xWPAsyBH1apVo48//liVL19eu7u7C1F4zt51GY4gIAg83wgIQXhO1gcCLyYmRv/2229q7Nix+vTp0yowMFBDKJqvfwnCOEO3+cSN0zZIQZYsWXTevHmpVq1a1KNHD1WhQgUIZH3ixAk1ZMgQ/m9wcHBcMpIYEbDWd4IIYxzQepQoUUJXr14d5gGQFpAJNlO4uLhoEAbDIREDATGAxuTGjRusxYBWY+PGjfz/TaYOy2UZKwgKtBljxoyhV155hRwcHIQoPCfvvAxDEBAEnm8EhCA84/Ux+wvovXv/VBMnfq53795tmA3YeS/+8CBAs2fPDrMBq/Pd3d1Z0OKCTwAE6KNHj3Di1/gv7Pr4fQIkgwkBhDDaKFeuHMwRauvWrRqmC7NgtvSPUz36LFy4sMqVKxfly5ePsmTx1V5eGZSrqysp5aDDwkLZv8DPz09BaN++fZs1IXA8DAsLw7h12bJlocHQtWvXodKlS6nMmX3I2dmkMTB8BwwHxjgOh0/gANJkaBMwVvRx7tx5+uWXDTCBqAsXLuioqKi4c2afhS5dutCQIUMI/grizPiMX3zpXhAQBJ57BIQgPKMlMojBvXv31OzZs/V3331H9+7dw2gsxACCO1++fKpq1aq6Ro0aOAlT/gIFtbe3F7m5upKLiyvhQAzBistsHrA4D4IYQDhfvXoVvgv6zJmzdObMaXX9+nV9//59FUc7kRAKLFShWWjYsBFVqVJZlSpVWvv4ZIa9n5ydXcjJyZHi+kOaohVZE8InepCVkJAQJiy3b9+hwoULMbmBacM8ZmU8k7JlgD+FiURh7uHh4dwXSMLKlSv1jh076O7duxaiAOdG+GS8/fbbNHDgQItPRsr6lqcEAUFAEPhvIyAE4Rmsr0EOTp48SW+++SYdOHAAfgeWkRQoUIBatGhBDRo0UFWqVGGhhlN63CtuLoCEp2DiGXFzCkRFR6uH/g/Jz+8+Igdo3759fOKG4yPIiUEYcJqvWLGiHj58ODVs2JCyZs3Kp3vjst534qDGdZCMjoml+4+C6VFQGN17FEwPHoeQf2AYPQ4Oo/CIKIqIjGbp7+zkSM5ODpTR042yZspAWTN5Uo4sXuSb0YMye7mTm4sTdxhH88Bk4dixY7Ro0SLWiiB00vBlAJbt2rWjCRMmwJlStAnP4BuQLgUBQeD5R0AIwlNeI4McXLp0SbVs2VKfP3/eMoJMmTJRmzZt1NChQzVU/ggbjCuUcdqOio6hSPNPaFgUhUVG8e9wuTg7kruLM3m4OZOTIxz+HMjFyZEcHYzIhX+7EQQFBbEtf+fOnbR+/Xp9+fJl1bdvXz148GCVO3duS24BtA+BDqEdFBZBd/yD6K5/MAWGhFNkTCzpWE3urk7k6ebCAjy7TwbKmMGNXJ2deAwOljH8H3C0tenAOZq/8W+6eT+AYrVmkpJYlIUG4SHF8wIpyJrRkwrl9qGyhXNQ/QoFKVcWbx6DOVKDxw4tyunTZ2jChM9o06ZNTBxwgfAUKlRIrV69msqWLcu5FGyN7njKr4x0JwgIAoLAM0FACMJThh3Odg8fPiREEly8eNF88FUatv1p06ZR06bNkFPAIpghNEPDo+j6/cd0/c5jOnrxNp295kc37gVQcFgkhUVEsWBFQkEH5UDurs7k5eFCPt4elD2zJ5UokI0KZM9Evpk8KZevN5+6nRwdycnRRBqMvAkYCLQYyEdQtGhRi5COjdUUHB5BZ689oJNX7tGeo1fo3I0HFBAcbtY4aIhW6PjNSComA24uzpQ7qzeVzJ+NqpTITYVy+VChXJnJy8ONyQvuMUUiEM/t61X7ad/JaxQaEcU2lkRJQrysizGxmkkL+mtQsSC1rVuKyhbKTlm8PQxSwgMDMZgyZYqaP3++oU1gFQu0I1u2bGEnSSEJT/ljkO4EAUHguUZACMJTXB4IxPv37+uOHTvS3r17uWcIQjjNLV26FDkDLMQA9/oHhtL+kzfo+w0H6ey1++Ti7ESuzo7JGjHkKTQO0DJAMBfOnYWqlshDjasUpgI5MpNvJg8+4cfNj2Co4gNCwmn3sSs0a+U+unHvMZMPaCP+f7EPwBNXQkmcDM1DZm8Pal2rBP8Uy5uF3N1cLDGKGOctvwD6YPYWOnPFzxK8aMupPm6fIFPZfDLQ0I61qGnVImyWMOPMERnXrl2nDh3a09GjRy0mB+SP+PPPP6l06dKSZClZb5fcLAgIAv9lBIQgPKXVhXCCunvkyJE0depUi1d+q1at1Lfffschh6aDuFYhYVG08vd/aN7GQ3xSN0wEtgjLxKZjCFE+tRMRNAM4xefPnpk+6F6PapXNb9EmRMXE0O9HrtCUpXvYjGDqP/FTvS0QGv3iv+g7X/ZM9ObL1alG2fzk4+VuaQJkZuVvJ2nmir0UDXMDkygW8bZ0Y9FKQLOQy9eLRr3emKoUz83mF8NHAf4WgwYNorVr11rahCZhxYoVql69eslKJmXToOQmQUAQEAReQASEIDylRYNghFNgs2bN4N3P6m0k8/nrr4NUqFBBQzirwNAIGjPvV9p15LL55Js6wZwUYYiKjqVaZfLRhAHN2ASBCwL6u7V/0cIth1nYOiQj86KtUBokATK/SB5fGtaptomgmBuANuHgmRv0yffbyT8g1ExObCcJxjhiYmLJycmB2tYuRe91rcu+GSAJ6B/JnxDNEJckIGID5gZkobSZkdg6ablPEBAEBIEXDAEhCE9hwSCQkHSod+/etGbNGu4RTnK//PKLatGiBaoLsebg/I0HNHrer3Tm6n0+3bOUskO1QiMLYfkiuWjymy9RtswZuK+HQWE0efEe2rT/LEcN2Kt/E+Qm/wNoM0BCmlQpQoPb16R82TNaVuT6vcf06dwddOLSHTNRSZ7cNrQm0CZULJaLxrzemArkzGwhCQGBQarnaz00ki0Z97Zt2xbmHuSGEKfFp/BtSBeCgCDw/CIgBOEprA2Ez2+//aZbtmxpyfjXuXNnWrjwR+Xm5ooTrbp+P4D6T1pD9/yDEvT4T8thQsWPKIDl47tRvmwmgYxwQwhjOArCJ8G+5OD/s7GkUdaaPN1c6eOeDahljeIW3wb4QUCTsPfE1RRpM+K2D7MGNAn1yrPGhs08SCHduHFj/ffff/OgEDmyevVq1bp1a45sSEvcpS1BQBAQBF4kBIQgPIXVQra//v3762XLlrHcdXNz41TKBQsWZHIQERVDQ2duoIOnbzwV+zecBqcOaUlNKhdmTUZ4ZDSNX7iT1u89Q86Oz6ISokmbgAtje69rPererDw5mnMvBIVG0NCZv9CR87f4dynRqrBZQ2vycnelr4a1pQpFc1pIwvXr15FqmjNP4qpZsybt2rWL60g8hddDuhAEBAFB4LlEQAiCnZcFgmn//v26R48eHEKIlMWof7Bz507l5OTEBGHtntP02Y+/2a1MszFFjAXq9jIFs9O8jzpYEgyt+O0ETfp5j937twZ1XEfKljVL0Ic96pOXhylB1MPAMBq3YCftOno5Tl4Hay0++XfDUTKnjxfN/7gj5fDJwCQBGpX+/fupRYsWod6Dypgxo966bZuqUb168jqQuwUBQUAQ+A8hIATB/oupR44cqT7//HMUXlKoqvjLL79QvXr1mBwga+Br41fSTb+AJOP/UztMQ/jCt+D79ztQ+SLsiEcXb/rTm9PXk9+jkFRHKqR2jHg+rt9AzTL5aOqbLSmDhylhFBwW35y+gc5dv2/RLiS3T4MkFMvjS8vGdTUw15s2bVI9e/bkHBUgcVOmTIETo/ghJBdguV8QEAT+MwgIQbDzUkZHx+gGDepznD1U43Xr1qXt27dz6mQQhClL9tCynSfsfno3aQ9iqXOj8jSiW13OqYCshW/N3Eh7T1xJkX3fntAZSZRqlc1HE99oTt7mfAbIuDhw6jrOvIiMiim50DYyMr5Uoyh91r8ZzCxcmwKkDVklsU5vvPGG+vLLL1H5MiVdyDOCgCAgCLzwCAhBsPMSXr9+nWrXrq1v3rypHB0ddb9+/bg4E7qNjolV7T/+iTMJQmClxLZu6/A5ZNHBgX4a2YlK5s/Kj+08fIk+nrONkyjZs29bxxj/PoMk9G5ZmQa9XJ1zGeBat+c0TV32B4WGR6Z43PBHQBroXV/1Jw9XZ40CU0hgtW7dOu6jTZs2tHz5co5mSOn45TlBQBAQBF5kBIQg2HH1IOA2b96iO3fuxFUNUR0RVRt79uzJ2gOkLu712cqnoj2AE2D1Unnp2/fasbYAdvce41fQmWv3+d/P6wUM4Zg4rHMderVhWQ6/hFPnoq1H6Js1+1Os+UC7kVEx9OusfuyLgGv8+PE0ZswYXo9q1arpX3/9lby8vJ5fcJ7XRZNxCQKCwH8CASEIdlxGCJqpU6fShx9+CP8DJOBRu3fv5loHuCYs2kVwEEypZ76tQ8c4kBRp2pCW1Kyaqc7C6av3qdeElRT9nGoP4s4NZAbag9GvN6YWNYuz30BQWCR9+N0W2nviGqeQTu5lOGwu/Lgj50jAtWjRIurXrx9FR0dT+fLlaffu3TpjxoxCEJILrtwvCAgC/wkEhCDYcRmhtkY55++//55NCmXKlKEjR47Arq1AGDp8+jNduf2ITNF89pNDEIaIBvhlci/y9nDlSIbhX2+m3UcvPxeOibYsAUgC6kbM/6gj5TXnbjh5+R71/WK1pZplcswkhvlifP+mXBsCF6o9vvrqq1zYqXTp0qiXoTNlymS/hbFl4nKPICAICALPCAEhCHYEPiYmRrdt21Zt3rwZvejmzZtzKl/kR4TDYL3Bc7gaY3JqDSR3uEZUADIVThr0EmsPHgWFU5sPFnKVyOQI1eT2nZb3Gyf+NrVK0Og+jcnZyZHTQs9Y/if9vP0oaxGSMxeYXID7Jz0bUvv6pXmoW7dupQ4dOlBYWBiVKlVKw7FUCEJarqK0JQgIAi8SAkIQ7Lha0dHRunLlyurEiRMcb9+3b1+aO3cu+x+ER0VT7YGzn4r/AQTpl2+3pkaVi7AQPXDqOg2aanLGS45QtSNUNjVtkISvhrWhuuWQDZHoxv0Aem38CgoMCU/WfEyJmTQnZeratDzrb3bt+p3atWuLtNhUtWpVvXPnTvFBsGll5CZBQBD4LyIgBMGOqwqCUKJECbp06RLKCOtRo0bRqFGjWGV94aY/dRq1xK65D1gEas3ZCTdN6c2qefx75NwdtHH/2RTnErAjZFabhmmmZIFs9MXAl7giJAoyIXnSsC83sQOjrYTHMDGM7N2IXqlfmtdh+/Yd1L79KyimRU2aNOGIBk9PUxEruQQBQUAQSG8ICEGw44qDIBQoUIBu3bqlEE8/ffp0Gjx4MPe45/gVenvmRrv7AEAQZvfxovUTX2NHv8CQCOoxbrkpMdNzHL2Q2LIYKZMHvlydBrYzZToMDoukxm//kCxfBFM7RDPeakUNKxXidjZs+IUQcRIREaHbt2+vFi9ejDBHO74h0rQgIAgIAs8vAkIQ7Lg2UVFROnfu3OTn56eQGOnbb7+l119/nXtcs/sUjVu4M8VherYM2xCmXZqUpw+61Wcywo59k9ZQVFT0C0sQNGnK7OVBP33aiXJn9eaKkMt3nqAvFv9uM56GuWL+Rx2ocvHcDOeKFSvotddeQxSDHjx4sJoxYwZnVZRLEBAEBIH0iIAQBDuuelyCgBwI8+cvoE6dXuUeZ6/9i2Zv+Muuan7DQRHFiWqXzc/9Lv/tH5r4EwTpi+V/EHeZjHn1b1uNEyjhQsGpOm/O5vwOtmhGOA9CdCxtmWoyvcBHZNasWWrYsGGEhFaSatmOH4Y0LQgIAi8EAkIQ7LhMcQlChgwZ6Mcff6RXXmnPznHTl+/lZD9GxUJ7DMPInvjLF69RTl9v9j8YPe9X2rD3jN1LSqf1fAynQqNdaA3yZM1Iqyd054yIyIw4YNIaOnT2pk2Y4n4kXNr7zRvk4+3OBOHDDz9UkyZN0m5ubrRgwQLq3Lmz1GJI64WU9gQBQeCFQUAIgh2XKp4GQf/44yLq2LEDMKcvV+2j+Zv+tkmYpXSI6CeDuwttmNSLMmVwYyHabcwyOnvdz9KvcRo3+oBDI+5DXgZHR0WOcfwUbDmZp3Ss8Z8zxmUIcvzb3cWJ3FxdyNnBgaJjY7m2xOdvNKfGlQvz478eukjvfbvZJjMD2o2OjqX9cwYhRwQKZ1G3bt0IJbkzZsxIO3b8qqpWrZJW05F2BAFBQBB44RAQgmDHJQNByJ8/P925c0fBxDBv3nycSlmDMGfdQfpu/QG7E4QcWbxozYQeXNoZORdavLeQAkLC2WsfCZOQbhhJlIrn86Vi+Xwpb9ZM5OnuzKr6x8HhdOLSXfr77E0KDovgkzouexIFgxhgXCA1rWuXZB8B+BpkyuDOJEHBPgINQHQM6ihYSkJjfg2HzqWIyBjWkCR1gSD4eHnQtumvI6cCyjyjZgYdPHhQ5c6dWx8/flxlyZLFjm+HNC0ICAKCwPONgBAEO64PnN1KlSpFFy5cUPCGR0bF7t27s+RatPUoTV/+BzkohObZZxAQghWL5qK5H7QnRwfFkQtt3l9E0TEx5JvJkxpWLExVS+ahUgWzkY+XO1d4RMIh1GYwHBwjoqLJPyCMNh84S0u2H6eg0Ai7RV5w6CHrLhT1a1OFWtYsTrmyeHNSJGsCHwhC+4FohoDgcKv3A5uGFQvRtCGtcK9GKGrDhg31jRs3VMuWLfW6des48kQuQUAQEATSKwJCEOy48sikWL16dTp8+LBycXGhL7/8igYM6M897jh0kUbYqA5P6RChBYD6fcqQlqwxQHGooTN/oQYVC1GrWiWoRD5f8nB1sRCUhDQDxoketRz2n7pO4xbsJP+AUDuQBA2lABOUdzvXoQ4NyjAxMC4IdGgV8IN5IT21k5MjOTs68H0YOwhCo6E/cNKkpAgF5oT7h3epS92QJEkpjSyK3bt3p4cPHyJXBRdtEgeElL558pwgIAj8FxAQgmDHVYyNjdUoIbx27VokSqLRo0frkSNHsr7gzDU/6jZ2mV0TJcXqWOrUsBx99FoDnqV/YBgFBIdRgZyZLXZ6I5EScgnApHDvYRBrCSCofTN6Up5s3pTRE058JqD+OH6VPpyzlcLSOE2zoT14vWUVeqtDDYsZ41FQGB08c5OOXbhNt/wCWTsQFRPLSZFgXiiaNyu927l2HIIwl3M9WCMIbq7O7OCY08eLCcLnn3+uxo0bx2Wft2/fTg0aNBB+YMdvQ5oWBASB5x8BIQh2XCNk/fvwww9pypQpGifWgQMHqm+//RYOcSokPIprMRinWXsMA6duI6HQk86IMCHEUmhEFB2/eJd+P3qZDp+7Rbf9AikkPJJP4rhcnBypUG4fbqNpFVOaZlxj5u+k9XtPpxm5MchBvmyZWGgb1Rnh//DZj7vo6p1HVDy/L5sbIiKj6filO0xm8Fy5wjlp0aev8tiiomOo/pC5FBoemSRBAC65fb1p4+RePB+sU/v27WnDhg2ULVs2vX//flWwIFI528n2Y4/FljZfGAQM852RzRMDN/YBvHJ472Dms+f7h29AxyJZmCnnuNkv2fRNYwgO9h/DC7Ng6XigQhDsuPj46mbPnq2HDh3KJYTbtGlD69evZ9U1hDDi9iHw7LURoP8PetSnLo3L8ywNkhAeEUWnrt7nUEsIYWwKEMrYKjJ6uFKVknnI082F7vgH0bnrfkwalo7pQkXz+HI7p6/cp36TVlNYRLRVW78t8Brjer0VtAc1+RH02XXMMnakRKRCmYLZTDhpom2HLtDY+b8S/CPqli1IXw5rw8+AINR5cw4XccIGm/BlMmVUKZEHvhlM1qA1QHnn06dPo4qj3rt3r8qUKZMtQ5d7BIEkETDebWipoqJjVGBIhA4ICVf3HgbTHf9ALph8E2LnAAAgAElEQVQWHB5BkZGx5OXpytVW4R+E3Bw+3u46g7urcnJ04Pc0NfuEmYDoiKhoBQ3hg0chdO3eY/7GYTJ8FBxGrs6O5OHmyg7BubN4U97sPAbK4OGqzX5JyRkDT13rWIV9xUE54F/JeV7erOcAASEIdl6EHTt2oEKgDgoKUmXLlqUjR46y7Ryn1qbD5tPDQJM93x7lnvGBjuzViNo3KG2pyXDw9A36as1+OnPlPndpnFRg1/f2dKVFIztxjQMHpbQpkiFM/bDxEP154hr/DRsYvvzBMzbQn8evkmMyqygmBDfa83R3oTkjXqFSBbLxLWMX7KRVv5+k3i0q0duv1rZoFUCsECK6eNsxjgZpX78MfdqrIT9z/d5jevmjxfz7xDZTY8Pu16YqDW5fkzfe69dvUPHixZBimXr06KEXLlyoHB3/7/9g51dEmv/vIqCjY2LUXf9gvf/UdYX8I7f8AjipV2RUrEaYrskpV+PQzu+t1krDPObm4qg83FwoT1Zv6t6sAlUukUfDkTg5RMEgBSDZ9x4Gqb0nrtHGfWf1Lb8AaDA1+/PAH+fJzYeVCQhvdnN1UgiTrlgsF71SrzQVy+urEUlki6BH2zBFhoRGch/43qqVzGO3w9B/9xV6tjMTgmBn/K9evUo1a9bUd+/eVTly5KBDhw5Rnjx5WMj2/WINHTl303wKT3t1Nvr4sEcD6ty4HPcHU8I7X27kGcdXYeLvTo6ONGFAM2pWrahZ74i9Q9OR87ep52craPGozlS+SE7eyhZvP0ZTl+xJk4RL6DuXb0Za9Vk3DscECWj+7nx6GBTGkRV9Wlaml2oU4zms23Oaluw4xn4IGMfQjrWod8vKPCf4R7w1Y0OSY0Ib6GPehx2oVMHs3Ob8+fOpf392HtXLly9X8BtJzWnNzq+UNP9iIABNAf209ahas/skPQwMYzOj+X/ayUkpjhpycCDlwNyABWl0DBJ4RVNMDLgrf4ZMIgrmzKx6Nq9ITasV1Z5uzracxPlhaAmW7jimfj96he49DDY1iIOBKc+JQn0Ww8kXPeFQAIdkaDZjwVfMkUVwBi6QM7Pq1KgsvVS9mEZodFKnGoQcN31nHmsClXLQn7/RTDWvVlS+qxfj3bWMUgiCnRcMuRAQyXD06FGFBDwrV67kSoG4ZizfSwu3HOZcCPYQSNhwhrSvQf3aVGNBuHn/OXr/2y1ctCmh/rA5ZPZ2p5lvtdbliuTg08q9R8H00ext7KMwrHMd6vVSJRbAcBwcOnMDRxWkduzoFzkYlo3tyqpMqEFrD5rNiYygXQEZyODmwhsoVLJwUGSS46Dos/7NsGHxv79ff5C+WWvKLZGYhQFt5M8OX4ceJrOKJt2hQ3u1du1a7evrS/v27VNFivzf38LOr4c0/x9EAN9aRFSMnrR4N63dc9ryLuLdLlkgq6pZJh8Vzu1D2TJ7aZjyXJwcWA0fERmt4Sx84/5jdeTcbfrjxFU43JqEuvl6pV4p9V7Xetrd1SkpksDUYuffF9W0pX/QHf9gbXwP+FZz+HiqOuULUtlC2SmHj5fOmMFNwbyA7xDjhmPw5dsP1bGLt+nAyRsEbYNBVvDN1S2XXw3pUEsXyZMlUY0GCEKzYSAIUayNnDCgmWomBOGFe9uFINh/yfSrr3aiVatWkqurq/rii0n67beHsroAmf+Gf7OZcxSkVsgmNA1EMfRtVZXe6liLCQLKIr81fUOiBME4LUDA1i2Xn9xcnDm0ERsGrlpl8rO939nRka7efUhvTF5Lfo9DUj12bEzF82WlJWM6a/QdCYLw5myKioplEmBsTsYcgRV+5+LiRHNHvELliuTkfwPLnYcustkjoctop3GVIjTlzRZ8C/wPSpcuTefPn9d169aljRs3kre3t03qHMsJz3zSizO+Jzb1pF4xc8Ql32KPd8D+r7f0kAACet2eU2r8wl3a7ATIFVXf6VRLNa5cBASXTVsJrblhFsBzDwND1Y9bjtCqXSc1zBLGNaRDTdWnVeUEDfrmd1Kv++O0mrR4D3wO+DF8V8Xz+apeLSpRjTJ5ycvd1WTdSOC9i/O96fuPghW0hZv2ndOPg8PYfwcP5fT1UrPebk1F8vha2omLgxCE/8Z3IQTB/uuox40br8aMGc0f0uuvv67nzZvHzPtBQCi1em8hRcWk/hSemEDs2LAsfWwOc9x/8jr1m7SGnZGs2ejjt2fyE3ClrdN6UwZ3Nw6FHDx9Pf1z+W4SDoG2gYvNMG+2TDAxaGRrhDNX02HzOKQxqXFmzOBGS8d0pZxZvEyRCJ/8TFfvPCSElCaGBwgH/DLa1S3Ft1y/fp1KlCihw8PDafjw4TR58mQOSbXlwi4Pk8T58+cpKirK8ghHVERFWUgCsIuNjeUU27gwVlzQKMHcVLNmTcqXL5/29PRMlo3ZljHKPU8XAazxzQdBuue4FfDf4c5z+XqpBR93pGyZMxjvhFUCahAFPH/i0l01aOp6jegcfm8yuKmFn3SkAjkyPyGc8Ux0TKzetO+sGv/j79p4z+BH8Gb7GurVhmW1SWuWLGdBfmtBFL5c+SdtP3iR/SqIlM7k5aZQDbVAjsz/+k6FIDzd985evQlBsBey5nbx0W7atEmjjPDjx49V/fr19a5du3iDwAfcfPhCevA4OFGhlprh4WQO2/3EN5pzM8cv3qHuY5cnqkFIqi+T2jSatk3vy0WSYmJj6IPvttGOQ+fZdyE1F5MPNxea91FHKpbXlN6478TVdOTC7UTJB57J7pOBTQV4FnbTl4YbTp8J77/AA17ZK8Z3oyzeHtzPqFGj9IQJExj/3377jerVq4dfW93AcRO0D3369NG7d+8GIbA8Y9HH2ggKdMU+Pj76iy++oJYtW0qCJhtxex5vw3u5ZMdxRAixlsDVxYnG9GlCzasVTVEkgkEUluw4pqYu5Tb5FN+mTgk1tk8TODRa3rtYrfXWA+fVx3O2W0wKObJ4qYVMTjzZB8LWdzsBbJnf/rDxoPp2zV9sNsFQcvhkUD+N7KyzZHR/wuQhBOF5fDuTPyYhCMnHLFlP4Ks6efIkCgFp/LdQoULqzJkzhDS+ODlDECIJkMmBySa5ZHP/EIiNKhWmaW+15Gdw2u86elmKCAKeDwmLojWf96DSBbOxSn/Kkj1wwiJn59QTBKhAR/VuRG3qlOSxfr16P83f/DccphP0JwB2hXL60MrPusEsoSKjo6nBkLlcbyKxjJDwGq9TtgB9/W47Nl0g9LRMmTJ07tw5XaVKFeRBYEdSW9chLkGIjIykypUrU4ECBSybMNo3TnH4JVJvG1qEwMBAunXrFl29epXd19Gnl5cXCIvq3r17gmpbmxdebnxmCOAEP3LudrX1rwusLYD2YNnYrpZ6ISkcGEwMCo7CF2/6cxNZMnrqleO7oV4Jbxp4r67dC9A9xy9XQaGR3HcGdxe14JOOukjuxH0FkjMe9BEeGa2nL9tLK3b9A9OoQuBF/YoF1dQhrTRMpQYBEYKQHGSf33uFIDyFtQkICKCePXtqJOKBfRuZ+qpVq8Y9T1n6By3dcTzJ0LyUDtFItTx1iIkgnLh0h7qNSZkGAc/DDgrv/xql83J7CzYfpunL/uBIg9Rcxqno1Ub/N4cgZLH7uOUUEgYv6H8TJ8ytZIFs9PPoznBsVNBuIPFUYk6T6AO+Ce91rUudG5Xj4UJI586dm0JCQvTEiRPV8OHDtbOzs80sLT5BmD59OnJdWEwU8X0n4mIE4gACceXKFYRV0urVq1kjkTNnTvrhhx+oYsWKtniqpwZ2ezyrAwIC2JSC2iNIL24r2bLHYJ5Fm3DyGzxtnTp8DqSfuNAY8m2k4uRuTEN/vXq/WrD5MGsinJwc9ayhrVTNMvn57xFR0Xryz3vU6t2n2LkBuH/5TmuqVTa/KfFR2h0+NPImzF73l1q56yRrKvBdfda/qUJ0gxCEZ/HW2a9PIQj2w9bSMoTB+PHjNfL7w1Hx7bffhjqZBdGuI5fpw9lbOclPGn7E3DeEKDyHJ7/ZgjeV1JgY0B4SEE0d3JKaVTV5+W/cd5Y+nrONowFSM3YTQdBUMKcPrZrQ3VwsijhR0rkbfgmaGYzIByRwMjs2Ur3B37MZJDENQtG8vjRp4Eucaho+A4sXL9b9+vVj8wLCTytWrGg5AdnyWsQnCDNnzlQdOnSg5ORQwLzDwsL0V199Rd988w2ThtatWyPBls2+ELaM9WncAz+Oxo0bYz6cQfTVV00ZLtPThRN2z89WKOOkX79CQZoxtHWqCQLek61/nef8ICDBDg4OemzfxqpljeIM78nL96j/pDX4RpmXtqpVXI3p0wSn+rQkB9wXMh4h62r3cctUQLApygIOkMiTgnBIrLloEP4bb70QhKewjvxxb92qW7VqxVS+UqVK+sCBAywAwMZRkyEtogHiTwX9Nq9ejL4Y+FKaEATkJ/igez3q3Lg8R17sOXaFhs7aSNAsplYQYKxIILVpci/KmsmTpzJ16R+c84CldjxBAxND4Vw+tGJcNz7BwMRQf/D3rOVIaCxRUTHUp3UVzpuA+1GUqWrVqvry5ctUrlw5JgjQHiRnHmlBEMxrpu/fv8/FomCG8vb2pp07dyo4ML5IF4hB2bJldUhICE2YMAEOual+L16k+Rsn+Tcmr1XIUIqrUrFc9MOHHVJNENDWkfO3aNLiPRQWGYWKp7pv6yqqTe0SfLiASW7RtqMcJuzk6KDWTXyNcvl6p0m/Ca1BbKzWq3efVBMX/W5KrOSg1FfD2lDNMvm5TyEIL9qbm/B4hSA8hXWE8IMgqlGjhn7w4IFCvP2NGzfJ1dWFT84DJq+jv8/eSHNHRbSNE8aEN5ozQTh64Tb1GLciySiGpODAqR11Gfq2rsJagwOnbtCgaevSpCYDxoqMbyAg3ZpW4GFA4zFo2npCauj4ghv358jiRWsm9CB3V2eKjo6hZu8uoEdByEz55KkV94KMfTe8HZe3xr//+OMPFGTiA9H06dPVO++8kyzXbjyYhgSBM9K8//770Gqwah4apq5duz6FtzPtuggNDQVBoNDQUDh+pkuCEBUdo9//dov6/dgVToyYO6u3WjyqE5kyEKbugn9DQHA450zAG+7p7qJdnR3VtbuP9Sffb1NnrvlxEGLRPFlgemOikLoeE38a39DtB0H06sglFB4ZZconUr+0+rR3IyEI9gL9GbQrBOEpgf748WPq1KmTRuplmBmuXbtO2bJl5d6ROnjBpsNpXkIZeRC6NK5AH3Svz4rBfSevsxoyqTDHpODApoCshW++UoMJAjIsDpi8hk0ZyTl5J9wHQgGJ1f9rYGZwcGAHP2SbPHr+1r+cODEWb0+EOXbBSYnvxWZ16RbCHP9NEEoXzE7fDG+nvT1cFUIQR44ciZBGmAMUajAULZr8LG9pSRCwQHPnzlWo+Im5I7Pj6NGj7bbB2+O1F4Jgikyas+EQzd1wiB1SkZQMeQt6NKtol1oE6AMJ0MYt3KWjoqOVs5OTnjiwmWpUqbDdtAfGu4NqtW9OX6/+OnUDlAWJk5TJ5KdYkyeJkuzxlT3dNoUgPCW8YVsePXo0ff7553xSXbRoEauUccEP4b1vNqd5ZUeu5tiuOp/6sZFsO3iBhn+1KcVRDPEJwt9nb9EbU9am2bjRPojGlqm9ETPO2KzefYo+X7TrX33gXoSQwWkSwh//Hjx9A/15wlQfwrjwe9hsR73emDo3Lstd3Lx5k6pUqcJq/dq1a9Pvv/9OTk5OyRbGaUkQMLClS5fSe++9x/ZlVJf88ssvEx1TUg6QKSFrSbUHLG1pM6UEIa3nEveTTqjt5OYAsXX+rI7Smk5duUcDp6zXoRGRCidrhOG+17WOale3VGpDDRParfS0ZX+oxduOwWFQZcvsSRu+6MXZRm1Zs9Rsf2A8v+w9rUb9sJOdFZHDZOOUngohxEIQUoPs8/OsEISntBbYOJYtWwZSwOr+9u3b65UrV7LNG+WMX/tsRaIe+ykZorExftKzISFZEv699o/TNHLudi7jnJLNAyaAgS9Xo36tq7IG4a/TN2jQ1HU8vJS0F39eGCNIDYrTvNelLmsR7j8Kpp6fraS7D4OeMGXgXhCB6UNaUb0KBRnTLxbvpqW/HnsiLwPuc3N1Rhpnypcto6mew7p1ukOHDsBeL126VHXu3DlFp620JAiQLfPnL1CffPKxdnJyQn4FGjt2bHyCoGNiYlRQUBDX9vDze6AfPPBjh0uYrbJkyYIf5eOThTw83K3OCVjgB9EciLSBX8b9+/d1cHCwioyM1KhomS1bNoV2fX19OZFT3Fh643k4J+LCf6tWrcomhvHjx6tu3brx701r5Uhubm6WMRnPwl8B/d65cwd5QjRyhXh4eOjs2XNQjhzZVbZs2cjNDXNh53wktFIg205OzuTu7mbhgfg9Tu94Z9AP2kfb9+7dV35+91EsDeNCYir4AMV/X3VkZKSClu/Ro0f0+HEAhYaGaBcXF5UhQwb2CQG+Hh6eFu1UUu97dHSsHvmDKdTRnC+AzWAdG5RWbeuUpKyZM6BKI5+0E8uomIxvXr8za6PaffwKV3wqkT8rLRndxeraJ6P9RG8Fxmeu3afeE1ajUiU7E88e8bKqWjKPDouIUqJBSAuUn20bQhCeEv74mC5cuKCxOYWEhCjEvCMOPkMGL86k2OfzVXTyyr1UZyWMe3LGB4sKiSjfjP7nbjhEX6/Zl+LaD3BS/BTVIeuX5s0NqZvfmbWJcGBPC4JgCBO09duX/SmjJxeEoW/WHCBUlDTCt+LehyyRHRtCM6DVyl3/0IQfd1mKNcF7CkKjda0SNLpPYy5Kg5BGOM+tWrWK8w4gk2LGjBmT5ZxoYJzWBGHUqNH0ww9zOUfGxIkTkTvDEuOOCV6+fFnNnz9f//333wrhkRCAhoCB8ITvAgRZyZIlqXfv3lSjRk3KkCHh7IxoDxqUn3/+mbZv365u374NAc1kA0IWawDsQFa8vb01TDCISkDJcuDGOmWtyc/Pj959912MhQX04cOHQWKQ74OyZ8/O9+D38L9BpkoIXfQNQoJw359++kldvXpVgyQg26SBLfpF8ig4kIJoNGzYkIKDg6FVoWPHjnHCseHDh5sTjsF/YwRdunRJVatWTY8YMQJOwZibOn78OEiHJR8FoizQpzlbJmfQRF4ShJaeOHFC3b17l4mOOX8Fh71ivqjP0bhxY2h2VM6cOZPUBGDO/gGhesS3m9WJi/c43TKIAkxoqFqaN5s3C/JyhXPC+598M3ogTwKyiCpHc2lnW0k3ohb6TFilTl+7z6Sgeqm89O3wdmn2PVrbHq/dfUQ9xpsON3gl3u9WV3VpUl4IgjXgXpC/C0F4iguFjQqln5Gxz8HBQZ07d44KFy7MI/hy5T5asOVwmjj8GQIUAtHszcwb3viFu2jtH6dS3AdU9V++04YaVCzIG9DaPado9LxfUx3mGHcJsLkiodHI3k2oXZ0SLNRv3g+gnhNW0qPAMMsJzqQhUazRGNDWlFPiz3+ucfpno1KlYbL44YP2XLIWF6IVIGzgh4AQR4QWpogdpKGTIsb54MEDzrZ5/PhxCEZCtk2cnvE3JFjatGkTm6ju3bvHOQby5s0LIqAyZ87MQgxaAFQOxc/Dhw9ZgCEr4yeffML3xovD19euXaNhw4bRn3/+SdAMQKCXL18eQp2gOXBzc2OtApxrgdmNGzeYPCAEc+zYsZyvAeQExOLVV19lgY8+oAXAmNGmm5sbEwT8omnTpnC8hP8NHTlyhGbNmsUEAZoFCGD0j5/MmTOrmJgYJgzwDYE5CG1grG3atIWGhXbv3q07depEM2bMMDKS6pdeeon++ecfJjAQ4nA6hdYAGoBMmTIpT09PJgMg6DDdwIwDLKdOncoF1IwcFCAkxYoVY1xR/tvPz08dOnRInz17ljUQSIQF7UiTJk2NbIUJmoEw5vuPQvTs9X+p3UcvU2BIJJd3hhnAXCCRYnWscnZ01Fkze6qieXwJCY0K5spMhXNnoeyZPcnDDU6IKMqUOAFHMSc4Ht/0e8zvd8NKhRRCkdOKsFvbHu8+DNY9xi1TDwPD2Cmze7MKanjXukIQrAH3gvxdCMJTXChssJMmTWIHOVzr169Xbdu25dMvShWjFLMh1FI7LLSDevK/zuzL6k0QhLdnbaS9J65y0ynZQEIjomjJ6M5UsWguPK+RLOWb1ftTnUkx/lyNsaP8cw4fPq3StGV/0MLNRyy2VcOE0qVJeXq/G6dHpgs3/anTqCUWAhQdE0N1yxckFJVBOmhkOxw3bhynVobq/MSJExCIKVbHpoUGwRCgc+bMYa0B1Ocvv/wyffvttyyA8XLgPcEpHQILghnagd69e0PoWdYR6wHzAwT55MmTNU7Q5rBDZIhkgW+QBIwbuTigRQHZeO+9EdSrV0+o0y1FhIw1QbtQ+48dO1YjmRPGh/7Hjx/PJBfC/Pr166z2R7sgEDAxfPjhh+qVV17h3+HdQz84eYNQ9OjRgyBwoSWoUaMGamAomCbi1sBAv0hfvWjRT3rhwgWEk/0HH3ygdv72G+3ZvVtDm4G8ExgnnOVAhkCukIcCGoGLFy9yZsuBAwdS7dp1lJubK8XExFJISDBIiA4Pj6AhQwYjDTr3C2Lx6aefqly5cj+RuRPjAO4LFiwg5KoAcQGh2bhxoypWrFiS6ZN5bYn0qcv31Kpd/9DRi3forn8QSjpbMmqCMJgIPVd1holNwcc2f45MVLVkXqpdNj+Ig87p68Wav/h1FBAe3fvzVXTnQSCHPrauzfkPUvR9p2TPQT2ZHuOWgQwxQXi1YVn1Uc8GQhBSAuZz+IwQhKe4KNgwsHG3bNmSNwM4KS5a9BOfKnBK7jxmKYWFJ5wqOLnDRF/w8t8+/XVydXHmU3nvCavo5GXEZyecvjipPtAeHI+2Tnud8ufIzKfCT+fuUL/sPc35C9LyMvUVRZ/0bEQgADBnIF9Erwmr6PaDAN78DIKAUs+fm2tN+AeFUrNh80nHmmri4D6Ee5XIZ4oWgboZp/RTp06xEIbAM92WbP9Ebi9hgtBRJ1ZNMi5GrCmJiYG9W02a9AWKPvEJHbkPfvxxkSpVqiRP4tSpU0i+pKEhKF68OG3ZskWZbfn/EhZmcsnCZ82aNWrYsGGs7m/Xrh1rSoy5Xr58WWP+Dx48oDfeeAOCkYV9Ejhw4R8I9l27dpGHhweHiebKlctSgAqNh4WFU7lyZdmMY4Q5xpuzRnTGli1b2IwCDc4nn6Bvky0+ofBUCGj4EQwY0F8fO3aMnwPxSYgggPDlz5+fQEI+/vhj9dprPbWHh3tcM4wxHD1jxkyaNm0qk4NPPvlE9evXX+M9TqSQEWN66dJl6tatK2s1QBKgCQQGSb0/xpqY3pdYdcc/iPYcv0K/Hb5EyBaK8uVI7gXSkNA3hL0BGjGUQ+/dojLVKJNPe3m4glFwv3f9A+n1iavp3sNgUspBd25UVo3oVvepEQQUVOsxbjndehDIJAflqEe93lgIQlpuiM+wLSEITxl8bC7FixfXUFfC+Qmnr4wZM2psHn0mribkKoADYGovJggZ3Gj7tD7s7Q+C8Nr4FXTm6v0UbR54Pl/2TLRyXDd2+nscFEZvTltPp6/e/1dYYVqMHW2A4CDfvJE4acPeM/TJ99vY7GBcTasWpUmDXuJ/giA0Hzafwy7hUIk0t/DBMHt06xEj3ldTp07RqKIIQYvTa0rJQUIEoVatWmyrTqoaJNYFRABC7MKFC6zCjoiIYJMAVPvQHJjzM/CpvFevXmySgpoc0RbQeFirxme2++tZs2apqVOnaoTVHjt2nDJmNCXOgYq+b9++fLKfP38+1a9f3xaShBBd1bdvXyYd338/V7VqZUrhbVyhoWH/IggGvhjTgQMHdK9evdiXwJwtktmZDWugUTET5A4+I8A3MYKAfpo3b844urs/WUDIPE74XqhatWrxNwiNA8wd1sZhCPpz585T48aNmNyB7MCEA3xteecNUgvSg4XANw8t14PHoVxWffvBC/w9gYibNEsmrYJxgSx4e7rrT3s1UI0qFeJ31z8wlJ0EQZxB/FvUKKY+6980Ve+1LXMx7nkYFMYEAZoRaBA6NS6rPuwhGoTkYPg83ysE4SmvDhzLhgwZwvn3EYO/b99+qlatKm/6i7cfpUmLd7MAtGHTTHLk2GC8PNxo+4w+5ObixMKg/6S1nI0NV3La59NurKa3O9am3i0rMSFAKNcbU9YRStAmpy1b4WZBGh1DQzrUov5tqnLEQnBYBPsiXL7pb+kzMYIAJcLsES9TjVKmuhGwzTdp0oQzJ7Zo0YJVy7ZIpqTGG1+DYOvc4t6HdcEPxvTxxx+zlsBwPMRYoW2CLR3CCLZ/a+QgTttcF6Fu3bpIzsVmAZhWMOc9e/ZoRElg/N999x0EqlUoTCfoS5wuHCr3N954QzVp0iQ5BEGPGzeOYErBKX/atGkKZa5tfXfwgUyaNEnNmjWL80QkRRBWrFih6tSpk2DiK2D90UcfaSSkgn/CX3/9pTJlymSTmcks4DXGPn36dG36fvcZPh4pWX6LJgykAc6MkZHR6nFION17FEwwO27ce5Zu+wfCvGCJiMAB4q2OtVT3ZuW5eFLP8SvUlTuPmE7UKZ9fzXq7jc24pmjQcR5CdBF8IB4GhrKTYr/WVdSb7WuIBiG1wD4nzwtBeMoLgU15//79KCvMaks4Wr355pucPe/izQcELUJQaESqP3C0DdPClmm9KXMGdz5Vf/L9dtry17lkOymiLZCCnz7txAWScP28/RinQk7KgSq10KLfrJkzEGrO5/b15s30lz/P0pj5O00Z4YkIYWOwueKC+rb1+z+ytqR84Zz09bttuYoeNt+ZM2fChs12b5wue/bsaVUoWht/fIKAypBwCIwTWZBoE3DWQzgfHOIqVqyoS5QowWprY1CY686dO3XPnj1Z/Q9zSPXq1W0SZOjUOIG+995wtWzZMoW9wHAAACAASURBVJ0rVy7as2cPQghRvZKdZWFPr1+/Pn399dcIZbSqmYC/QWhoqFGM6V+FrZLSIODZzp07s1MkHAqNE741jOMSnj17/qCePV9jDUx8goA05vBBQD4LfF+Yb0LkAyGinTp1UseOHdMgKCkwM+kzZ84wOYLzKEKXGzRokOp3KS4OZr8UioqJ1aFhkerklfv08/ajdOD0DXOdEk2e7q768wHNVK1y+fUbk9YiSyq/G1VK5KY577fnkMdkYJuiWzFOmEniRjGM7dNYtalTUghCihB9/h4SgvCU1wQf1ePHATp37lxsS61bty42KU6/DGLw/ndb6cCp66kOd2ShznHJr1jSC2OTmfTznmRGHZi0BxWK5KLvRrxM7i5OhHBHZGREJsW0MIcktgSsRYiJZdvrO6+aaijAXgtNyImLd5i0QLsw6JUa3MTh87ep38TVTBCmDWlJTaoW5V0yICBQ161bh+scwBkOqnoPD49Ub6AJVXNs2bKlTUWWILzgwR+34mFcgQbHOzgCzp49Gw6VEKxPOCXa+NrqVatWq6FD38JpF97/CpECENYopoRTNH5fqlQpatSoEWpSqIIFC2pfX1+cqvlvccdk7bSfFEFAXgWQEWhy3n33XUIoYnIqHOJdQGgnTCMwN8QnCK1bt2ahj+qcmCeIUEIXnDhbt27NWpXBgwejqFSyhLvp+33MER8gCJ999pmCdiY5BbpsXDvDYZmZcGBIBH29ep9as/u0RvQDzA+1y+bjMsufLfxNbTpwjkkB/IPWTDCVC7e2XraOI6nv89iFO9Rv0hqNAwj2m59GvqpwiJBESalF9/l4XgjCM1gHbP7I4HfgwAE+8fz++++6Vq1afDJbtvMfmrT4d3J05Kj/FI+OTyFwhGxagUsc4zpzzY+6jF7KTn+2bh7GaWbWO22pXvkC3A5Un8O/3sREwdZ2UjoRk6nElRZ83JEK5fLhZnYcukhj5v9KEZHRNGFAMy5IhWvR1iOs1ahROh+hxLW3hys7UyKs7f3339fw5J8yZQo75qUKXPNk4hMEaIM6duyYJsICbQ8YMEBv3ryZi0lt3ryZiUdy8AZ2OLHj5I5nN23apMuWLcsvFUIhYXtHiB9CFNEuyAoEK2z3CLXMnz+/RiglTuMFCxZEGKJGIqbEfCySIghIPlSnTm3t7+9P48aNV/3797NZG2K8O7du3dLvvPMOQa2fEEE4evSohl/J8uXLFeaS0IXoBpht4AeB3A4gFMm94Buyd+9eU/bOwYPxbjF2MBHgnYSwxAUCC/NectYsKWEcEhal+36xSl246c/Yoe3l47rpXUcuq5nL/9SktPJ0c6afR3ehvNkypkm/SWGDb2vO+r/U7HWH2PyRyctNbZnSm32ehCAk9616Pu8XgvBs1kXPmzeP7cpQR0+ZMkUPG/auwoZy/sYDVtmh+FBqNxZsWMXy+tJPIztx9sSIqBiuHHnplr8lV4CVDYD/nN3Hi/MpoIYDrlE//Eq//HnGruYFY1yGFqHnSxVpeGdkV1QUHBqpR87boQ6evsFRCigTjfve/WoTl8SdMrgltaxRzJSJ8b6fbtq0CZLgsPMaEuLkzp07TU5X8QnCtGnTUG9DpcVpEkKoW7duGtECEHqrVq1KdrvA5O+//+aIDbxLa9euZQ0KLvwNZaZhdvjzzz85zh+na5yOEQ6KH8wP5g3kDIBjJ4gK/BVwAvfx8fkXhkkRhIcPH1HdunXYrIE8Av36pYwgvP3222yiS4wgNGvWDGusEO2Q0AXzSosWLTgnAkIvYeoxnAdTshV06dKFwy9BPhGRsHDzYbp69xE3hRohb3WsyeGJaXTpGcv3qp+2HePMkrGxpGePaMcHC5gPHweHs5atS+Oy9G6XenY3M0RGRlPviavozFU/fqXKFcmhFnzUgd81IQhptOLPuBkhCM9gAfBBw1kRceFIa9u8eXMNxypENeBU3uuzFZxVMbUbC/pB/P+K8V2pAEITiWjTvrM06ocdPGtrBATPYzwD2lWjIe1NDmUIa2r/yU/EiVFsaCMt4MU44Lj5zbvtCDZW+BQcPndLzd1wkLPGgQhERsdQo7fmUq2y+Wlk70aUwd1UKRO1DXBShpBD6F+bNm2SfXJNbA72JAhwphs0aJBGDgP4NmzdujUtNAgs5ONewAh44ncQmjdv3uRcCgiFhDC9dOkSEwdkTMTf8Q6gYiPyAuTMmfMJkpAUQcCz8LtBW++//4EaNuydZK0DxomMizAxYFzxCULbtm0VsjjC2XPOnDmJEgTMx9AgfPTRR5xUKTWaOuRXgDkG7yCyCb739Wb4CjCe+XNkVDjNoxZDWlzAYMuB8zTqh+0EJQUIAgozVSuVV4+Z/6vae/wa95vB3Vltm95Hu7smr3x5csbIJp87D6nLmGUUHR3Lj/ZtXZUGt6/B6yrlnpOD5vN7rxCEZ7Q2UM8hkcvRo0c53PHPP/dR6dKleKdesPkwfbVqX5r4ISCeCrkCPhvQlAkHasl/+N022n3sCiEhi7UYbjcXZ1o7sQdlNxdPQtrj+Rv/RkSTVYKRdtAiXa9m4f/VO21ZiwBV7t2HwZxQBtedB0H00nsLaOPkXqxexYVTMbIm3rt3T8NG/fPPP2svL6800R6gfXsSBLwfSJyE1MJZs2aFWp3rAlgjdfGF/+rVa+itt4agvgOHSRqZO5NaG+NEDVMYHALxc/PmLfr2229YC4F54+RszoxosYNZc1JESOFff/3FoYUwxyR2yk9kbBpqfYQ6QrsRnyC0a9dO/f3331YJAsJLkZwMtR+gjYB5ILnmpoQ0DsapedTcHbTj74ssqLNm8lCLRnayJPtK7feAfvHdvv/tFibuIAhj+jZS7eqU1pv2nVUIATbn4NCf9GqoOtQvkywSlpzxwYFyxrI/1NJfT/BcsU/8PPpVVShXFiEIyQHyOb9XCMKzWyB2QkP6XJgZZsyYQUOHDkWyEzp55S4NmLyWwiNSnzQJmwoyyK38rDubG3Bdu/uYuo9bziGKvDsmkCjI2ARrlslPXw1rw+QCYYcdPv2Zbtx7nCxBlRYQsxbB2ZF+GtmZiuf1tWx8ho8EnC/hWzG8a11yUA4UExPNNQLgoe/o6MiFsZAwKDkC1tq44xIEhP5Nnz49zUwMmNe2bdtQtAlhfWr9+g26cuVKyRJmIBkInfzxxx+5RsP+/fvZeS8gIICLE8EUgugFWwQkxuPv788JlhB+Cb8EhIqi3oKBk5U8CBoJmZB3ARqRr776SiGk09b1wFxgwsFPQmGOthIEhIyiOBeSLsHkNG/ePCaMto4DqnS0gfwlwASpl0HcmDDGxhIyiy7YfIQrK7q7ONOUIS11zdJ504SU/l+DsIP9HWI16SlvtlBNqxbRyKjYf9Iade3uYxbYyCGy5vPuhMqKtqyvtXf9SeJJ+tJtf+o8agkndIC7U7OqRdTEQS+xWQNYigYhOYg+v/cKQXhGa4OPHbngS5QowXnsGzVqpKBOxgYOQdz3izV04tKdNDEzoK8GFQvRF4Ne4pKs2EFQYhqVHWE3TShUkW3/0bHsBIhQQj6RX/Ojnp+teCrOifGXBePBpti8WjEa27cJq09xD34PTUKb93+kX2f2oYwZ3FllDgfQNm3aKAi1Fi1aqBUrVqAaYcq9PhN4T+JpENSkSZO4sFBa+CCYVeqsDsf7AX8V5CCw1Tsdz/v5+WnY5FGUCXkPQEjx/NChQ1lAwkFvyZIl7Gdgy2eANkeNGgUbv4b9HrUUihQpYitB4LBNpD6GfwXmAxW/tQRFxhpfunRZ9+nzOieXSoogQOjPnTs3Ue0EyPKsWTOZbKDuxK5dvyOBlE1C1ExGEbnAvixY/23btqnSpUszwcDffztymUZ8s4V9BJD6uFuz8mp4l7o2kTAb1kDPWX9QzVl/kNuHcJ7/EeqM5IaGTa/Zc0p9vuh342+6Q4PSakS3etrFyTFNCIp5fPr2g0A4A6tdRy5zXx5urvr7919WpQv+P225EAQbVvMFuEUIwjNaJGOzQTw1VL/wDt+zZw8IA4/op21HafryvcnOWZDQdFjYx8QSKh92blzOYrpA5rZZK/fRHf9Ay2PGSQrC2MPVmX6Z1JN8vD0seRS2HjyfJmNKCewGSZg8qAU1rlKEQyyjY2L19oPnVVSMpra1S/BGjcyESGONGHeE7G3ZsgXmHKubpNkeb/PQ4hMEqNxBEJBrIS0uFJRCxAVSE0OYQb2PaAJrJ0LMIzw8XE+ePJkTE0GYI0wyR44cnOvg/Q8+0Et+/hk1CTj1t61Om2aCoCEcYXfHs/nz57cQBKP2A1ItwxER/gJxT+ZYF+R1gKkAZjUkHGrWrBmbPxLDy0ykuX4JcAA5AO6JmRisOSmCUz569Fg1a9ZUo5oqxoi0zHAytEGLoM0Jt7hwU506daARYdOPcd1/FKy7jlmmHgWFsRLON5OH+npYW9be2dB+kq9NRFSMHjRlrTp28Q7zpuw+GdTPozprH28P1maEhEfpj+dsQ10XSwbGgS9XV71aVNKIeLD23tjwzuoHASE0ZekftO0v7AOK67wM71JHdWjwpDlDCIINaL4AtwhBeLaLpBHnDkc6OC3iZIK4bGyCMAMMmLyGoDpM7cZimAsgUGcMbU01SuUzh1ESp0iduXIf/XHiCmsTjF0ENv9m1UxpjNE/cr3DvGCvzIm2LgOIC/wh4FNRpXge1hbgVAjbq5GgCKdinFQhJBHWCNMNTskGDkw0TBkMWdWOOgfQ5kB1DMFVuHBhbbb3J3mytjdBgBBA8h/UQEB4IHxWvv/+eyYLiZ28MTcIr5UrV+mRIz/lUy3MAvBlMDBYv369RnVE+BYgFwDyEqAMs5X3TMNREf4DOMVXqVKF8yigVLaxdjCzlC1blkMI+/btywWe4o1THz16VA0cOJCdFVFsCmuDxElweHRxcbFkPwSTCQsLU/BZmD17tkZFSdwHHPC7VBAEDn1FmWukScb13nvvKZQAj1v8Kv77iGcwf5hsEHqKe5ctW4YkV0+k1sZJ/stV+9RP244yGYP6vUyhbGriGy10nmy2aSoS6JvV+Ov3nlaTf95N4ZExHFb4ct1S6qPXGmpnJ5MGCGt9434ADftyI125/QiPKMQ+dqhfWg1oV01nywQflpTFTsfEan3j/mOaueJP9fuRK9y/i7MjoXrjkA41LaYFY+xCEGzd0Z7v+4QgPMP1wQf96NEjQg17eFcXLVpU4XQFpzRc4xb8Rit2neAQxbQiCWgHKYirlmDhagnxQsKTL1fto+MX7lB0bAwfNiYObE4taxTnsew5dpWGzvqFHRuZRPB/bdJMpynCwAy23pL5s9GPn7zKMddxsOHwtXr16qFEL+zkGipgCFSQLpCe2NgYjvtHPDzU7Dt27NCHDx9mcmCWkFwZ8Pvvv0f8f5Kq4adAEFiYgUTCfAEBjEyNsJsXKVKU3NxcuYaDIRygug8KClbfffetNhdn4hLK0EzFFdQ44cP8cvbsWT5pwvQAgQtSlFCOA2AOoQ8fAuRNQJ9jx45Vffr0faIOBwgXnEJBIEC0EDWCXAoODkjqoVFRkseL2hIwL4Ak8HrGxHBthIYNGypUq8SFmgvo69q1a5zkCZo2nPSRbhq1JFJJEBiyQYMGcaVLjAEmD+RYQDhnfBMR1vnWrVvqrbfe0iAncK4cM3as6tunz7/eD7SFjJ4ojOb3OMSSHjl3Vm+16NNXKbOXh/l3CWaCfuJbMWu0mNceOXdTDZ6+AaHK5kgFF26vQM7M8fcGHRIWodp+yJFG3BciHorm8VHT32pFubNm1EhoZEvKbqN/1IvYf/KGmrb0D7p27zHbTmA+aVatiPpsQHPtiAbjXf8iCG80U82qFk3TvcBoLLV7o10G9R9pVAjCM1xI84mWHckgANzc3NRXX33FoVz4gM9d96PuY5ez7T21H4Fxeoaz4TfD21G1knn+NXPOBR8VQ+FR0VyMCaWW3V2dOSX0m9PXq70nrhE2CxdHR4tgSO24kgu/MQ+YTDrUK0Nj+ja2YAOtwGuvvYaQUdi5sWlBfc01LwwyZBZIXHAIlyEQ8ayZ8fAGjFA+CFackBObY3wnRdQKSEsTgxkbrqQIogNzA7L3YcwQ5sjmBz8CjA+nW1SpRP0F5DfA7+rVq0dz5nyvvLwyxBdkGkXDXn/9dXXq1Cm+F74vKDQFLUWBAgWUq5sb3b93j1XqCCuEYyI0EzAHwMkP2q4EtA6INOC/A2dgj6RLmAfqYMDuby5sxI5+CxYsgHOuxlqBXMR9F4zqknny5NHIM9CqVSvOfojS0AkRBGhJQAptMDEY3UB7hPoUav78+fw+ILtmvnz5dLVq1UCs2IkT2RuRi+LatWsK2SCRN2HcuHGqR48eBjlLiCXrizf91RtT1mlTjQLTBTLbqHIh1bdVFYQdM0OAYiuhbwC/BCQ37z9WU5bsob9O32RzGu5FyO/UwS1U3fIF/sUyDKEeEBKuuo9dRrf8giztuzg5qErFc3Nm0orFcpKzsxNO/glesbFaRTExuM7Jx+76B2l0b6YC8EXUFYrlpO/efZlcXf5dBTMuQYAqo13dUqq0OU17cr/5xO7PldWLapctkFb+HWk1rP9UO0IQnvFy4oM+dOiQRi55bIDY1OG9jo0UyUaQMRCxz8nJfhh/SnFNDKhuWKFoTotQDY+IIFcXFxY6xqnCuJ8lpjlGPjA0khRpFRASTr8fuUxzNhykwOBwJgpPiyQY2oNCubLQG+2qUbWSecnHm50SecrY5EeMGKGXLl3KVRJZSpnUHBwJgFwI8OaH93zdunVZPYzCQU5OznT5ymUaM3o0axUMwQwVOhIfJRaOB3Xyx598TIcOHuQxvPXWW0gilCZOivHWkKeCU/Xs2bPV2rVrOX9G3HUyrxWEsq5evTq9884wVblyJa6XkMj6sJBGfoW5c+dytUSc5OO3abTr7u6ucYpHkabSpUtzoaL47RqEF5Uyv/76a24TWg9cyDAZLyyS5xQYGKjgRAltApIo4X74N0CLhhTTuXPnxhz43bxz544lkyKI2OTJk3nhsQ4jRrynTp8+zaHDY8aMUTb6gTAxuHLlqpo+fZr+9ddfQYIsMtN4f/BtINoDfi2dO3dWefPm5fcqsffeENKXbj2ksQt+VScv33sCVpgEMnu5c4RBjixenCnUy8OFySoKkiGt8m2/QEKlRP+AkCdKQePeUa83VI0qF/mXWt/y4ppzW6CdeRsPKdRNAUYGU0A/Pl5uClVSs/tkoNzZMpKXuwsfDPwfh3K/CBt+EBhCQSGRZhhMrbPqIE6VycJ5fBR8ggrl8nmilkd8gmA8m3bbrdKNKxdSUwa3FIKQdqD+qyUhCHYE19amYQtGCB6c6ZCyddeuXVzpDtfBMzfp9c9XcvRBSgSxsS0gbhoqRjj3GTvgnj1/6EGDBhK8sGGDRSQFTkhxiYF5DnE3TY6CgCfzyLk76PC5W6kiL7ZiZBIEsVSpeB6aNKg5+Wb0jD80LuCE+cKf4969+xQYGMCnUycnZ+3p6cH1Bby9vfkUmNAGD9U4ahLAeQ2NwT4/ceJEhSJKiVx8ujcuhKiy93oCYaPJmWdC9/5f3WzyMbh48aICoYTqH2PAGOF0mCdPHjhmslremg3IaBPvn7+/v0LUw6NHj3BSZkGNdxFY+fpm1fARQLlos8YlSadCkEpkAg0PD1MYHyQTBKyLi0nQ/x+v/5tHEsMnLpZXrlzVAwb0pzNnzhB8KKBNMD/HQsw8nwTXNin8DWLz6NFjaErUw4f+FBgYRFrHsskhR46cVLhwIW2u75Cc9dXBYZH066ELatlvJ+jMFZRGd0hQY8CvjPkvxg34HbBD7QWETLauXYJee6mSzpcNuT9ses94apdv+6s1u0/R2j2nTKHNyuEJzYHJWmiGMo70N8gAfBmcHByoXoWCHNGEtvYcRx4VmCpIg7S8362ual27pEVYgyA0fvsHCo0w+TWlyRUPuUaVC2NPE4KQJuAm3IgQBDuCm4ymNRzrUPQFAm3AgAGE6oPYnANDI+jdLzdxmeaUCB7sEAhXfLN9DerXpio5O5rSvkJl3K5dO3369GlLKl2omHGqhi8E1KwoFcySUmsF8wPaMdIt4/cnLt3l9MZQo6ZkbMnAhzd/eEz/8EF7KlEgm0ktoImdOC/ffsgqU5CouJeh/TBrRowTjnlOJp4UV5ZDUEJFjagSNP/555/DLq0QBZCY0I7XX3KmlKJ7DcIXd274nSF4DAGcnPWI36ax5kYfxr/NktemcSekifDze0Dbtm3ljIzwu0FxKFvHifaQCAmneJCXr7/+msNYbRqMDTfFxyA2lgsiwfnV8g3YOtZ43Wn4zDwMCFX/XLlHf526we8ryjk/CgrXUVExFB3Lfhj8GEyAcLj1cHVSON1D04DsoXXLF6Q8WTNqDzcTybJ1LAYJhDby2t1H6s9/rtPpq/fw/+neoxAKC4/WMBsaFh70jTG4uzqqLBk9keyJyhfJSXXLFaB8OTJRRk83fcc/mH7aekQt2XFcGxGyXh4uauDLNahL43LsowDH4SU7jnNxNVym+xJeLnyDtmaNjRuRWyinj65dLj+/ljYssdySAgSEIKQANHs8cvfuXVS7U+fPn9eZM2fmrHewg+MD/+3wJRoy4xdyd02eFsF0qiLq0qQcDetch+OhMfbbt28jsyDK4yaops6RIwec96BZYKGK6AbYIY9dvE2dGpWjV+qWYnsqNpUfNh6ir1bvI+d4lf/SGiNssnCY/GxAM06EhI3nxy1HaMVvJzgHPQo5wexQMn9WypjBjXDiUjB/mA9mwAIpYfEcqmb6B4ZSUEgEF3YyZ5/j0zhMPMhuieRKe/b8oWrUqJ6g415azy89tIcshqjjAJNC165duXCWrZs7XsTJk6fQzJkz2ASBzJLQmLwolyGoY2JjYTrUIWGRbEJEzpOwyGhTBBGXaHfi1MwISwQZwH/hB2T2obGZGCRBaHVkVAy+aR0UFqGgUQgKjeTERvBtgD8BiDZMHp5urgiPVO5uzvEdGzUysq7adVJ9s+aARlZTXGUKZVc/fNjeyLuQoKYkrdcrOWQprftOD+0JQXhOVhnCdtq0qQhzhNpaDRs2jDdER0cHBYE2dOYvdNwU/2zTaZ3JARG1qlmCxvRpglAoPnkgnK9r164aJXETOuXB+3z16tUa5gZsSjhdTFj0O6sn8e/IyBiOboC6E6wfp6GuY5ZRZFS0TeNKKdzQYEwYgKgKU+XG349dprdn/GIR7qZjHpG7mzNl8XbnQjkZPd14jDCvBIVF0KOgMHa+hNq3YrFc9GmvRpTD5/8x7Jh3r169WIVfqVIl9raPG8aX0rHLcyYE4Ij42ms9adeu39i5ctOmTQq+BjachjncE6GTILeIUlmyZAn7lbzI2Cb0/cWdjw24pGr61vpPaq/Bs9iz9p28RqPn/cpkZs6I9jp3Vu9kaThSNQF52O4ICEGwO8S2d3Dt2nVq0eIlDRtr4cKF1ebNW3TRokVYkB84dYNen7iKkxdZ2zgMzUGhXJk5NTE+XlxQzSJ1LwpDGSrNOKPTOJkhD8OIESMsfWzef44+mrON/QyMq0LRXPTVsLYaBZEeBYUpjOvanUdWx2U7Ev++E7IADpaViyNrXCxNXfYHLdpyhE89RoSC8ZTJbmuySVvsuRBQWjNp6NasAvVpUZnJhHkT1Kj2CMe3U6dOwSmRzQvID/CiC6HUYG6HZzVyB4AE4/175ZVX4OPBOQUSOgkap+6LFy/RRx99yAmW8I6iUFT16tVTdZq2w9zSXZNMMJTSf5+9qZydHHWFIjmFHPzH3gIhCM/RgsKxa968H2jIkCHYQDlkbuHChZxpDurIWSv/pCXbjyUZOWCQg5y+XvT9iPZkTs7C9Rjef3+EnjVrFkLKLLPOmjWrLlOmjGrcuIlGEpwiRQrDA5zl6tHzt9RbM3/hKnXGaQLtwza5fGxXnSWjB7yu1VszfqFjF27blSBA7Ymy1UXyZGEzwcdzthEyQSL5U2IXwrJgmnBxciKQpebVi1GTKkUoX/aM5OgAYmHiDzCnIA4eUQKYHxLy/PzzEvLxyfxCn1Cfo1fbMhSEYKL+yPLly5noIU9D06ZNqUKFCpQliy+HRWINQkKC6fr1GyhHTfv37+Mwznz58iGxkxFiKGvznCxwXE2EtcPLczJkGYaNCAhBsBGop3VbQECgbtiwAdvB4Zk+d+5cDrVD/7AT9pm4ms5cu88exP/+GOHspCmbTwYa378pVS+Zl4eND3jq1KnYmDlpUMmSJTlNbOXKVUAItK9vVvL29mJbu8nJTen9p67TuAU71V3/QO7HOKXDUbFTo7I0ols9dhqE+WPw9PX0z6W7diMIhoPi4lGd2deA887vPqlW/X6SkPoVuRtABDB+JJWClgUhXP9r706Aq6ryPI7/rwQIspkoUVEEG6OIisCIGyiCYosbygBCa4Ha2C6lI+KMDmKDuCFNKziCFug4IC6gbLYSF1DLRuNY0IqCisMSwABBhUAQExKTO/U74cWItpXAeZIcvq/K6oZ+77x7Pue29//O8v83b9bE2hzVzI5r2cx+d3iaHdSoQSK4coGBjgoqw+AjjzwSaxe/qHTsMSsrK5IR/7Lzf9drLAsKtsdaZlDhJs2Wae+HcoBoU27ieKI2jCp1s5YlVBjqnHPOcZt4dURVRyz9XxktIoDA7gIECDXvnoinTJliyvKm3d6dOnWK9AtXewP00tnqax+aZdt3FFX8qi/vQvmGRG1wGnntue6Xsl6aylVRneuuuy5Wyl4lx9H6b+X88QkC/ctb6/MqKavkLMp5kAhEEjMTGWkN7b+H/at2VLsHqAKEG/861z7L2ZS0B6q+O63xgfbCPVfYoenuyGGs5YKt2wujgh1F2gUea7NXSp06pro0mm3Q8ocChcQGxB+HOYp37ixy+Q6U7Ef1BBLLLTrGNmnSZLfUcMAvZIerebdK7fcaogAAFhdJREFU7byiXb84VRPBVq1a6RI8qTS38iAoWNB9pftdgUHHjh2jY4891gVuv5LToXZCcNUI1HABAoQaNkDl06s7XBU/rbnqX4pDhgyJlfEtkQJ2weJVdv/Ut90D/MeD4Ob2GtzWr4v1PueEXWeUXRIm7Rx3D0NNoydmA1zwUFbmdlFr+WL9NwVuFuCdj1fbe5+scXnWK7/0k1tHrh4bcom1bZVRsbNfAcINY+fY52u+TlqAoOvUzMGzf+5nDRuU52nY7VV5x/TPfl1qM1Vp6Q+qihitWLFCefij5557Lt66dWtFMzrvrr0X+ocH0W/3f4rEPoPK+RES365jlntybPO3u3q+CYGwBQgQaub4xtpBr6NgOhLWqFGjaNq0afGll15asTFLD+THZmbbspyv3RKCptRv7dvZurY/OnG2P1Yyna5duyqBTvzRRx+pGE7Fr/6cjfm2ev1m+2RlnsuxsGrDFrdPYVfVt5+o6Fd4h8zmOg1hzQ9p/JNAQL/grx87x5WCTtaUvIKYzie1tMdv77WrpkKZm13RS/slKmWBdIGCckloVqCoaKdt2LDe7S1YsmRJrOqOS5cudeWGKz2ElFwoevTRR3Wu/hczBNbMW4SrQgABBJIrQICQXN+9aV0bCl2lOeXfT09Pj+bOfdk6dz7zJw9inZ8uLi2zpg3ru80DiS/Mzc11RYeWLVsWdevWzaWRTWTBW7BopT0w7R2XVlWfUKKSRJE37ftP5GTVBsAjM5rajZedZr8/9diKpEKVk/Qoneufxs62/1v3bdICBB2h7NPtJBt5TXndBRVa0qyKgoATTjhBRZXchrfS0lJXrEmFr5YvXx7pfZol2O0414+56evVizp37qwkVRWlkJMV5OzNjcBnEUAAgX0hQICwL9Sr8J27lhpipUCeOXOmPuEy+s2dO9fOPffciin+yg+0xINQKXgHDhwYK8++PqjNX8u//NJatWxZMWX7/c6SeG3e1ki5FVRffl1evurJW/2UOqYTECcf09y6tGtpLQ49yBrsqpiYaH/x4n9Y27bHuwI/WuYY/NBsW7V+c5IChPICUpodUSZIvebNy7Krrx7kSv9W4fWzhC3y0MzK8OHDo9NPP/3X6hVUoXneggACCIQpQIBQs8fVVdO79NJL3dS4ggQ93PTw156E9PSDy3/9l+cLVnU6JZBRKd547dq1iZ653fnKEDhr1qxIOfF31SFwD84ynVrYlWWocs6AROH4yul2S0p+iEaNuifOyspy1QVV+EgBwh8fmu2WK5Lx69tlQCwts7/cdKFdcFp5uViVP1ZpXlXXS8yK7J70JXEtSkGcmppqbdq00fFFl0K6Xbt2Kpv8kwJVNfs24OoQQACB316AAOG3N6/uN8ba4X3JJZe4qXUXJURRlJ6erhMO1rZtW6VmdrUVVKtepXn1Ul0FVdOrtPkr1hGxYcOGuRz2SjiTeIj+0oO90gM3VuGaGTOmR5MnT3bHL9XOu+/+3Zo1O8RlJ9TRyzUbtyQtQFDg8j939TElYtFr+PDhSrATH3zwwfbMM8+4oCk/P98lgiouLrEGDVLdKQ0VZlKRoYyMjFh/rlxoKBnBTHUHlvcjgAACNVmAAKEmj86P1xavWLHCJYjRqYRdD++fVMVL1GTVRkTNOIwfPz4aM2ZMPHHiRLc+n3gpM+Dhhx+usrV21tln21EtWrgSyI0bN3YlchNLG9u2bbPc3Nzo3XffNe34X7NmTUVqZlV/VK0IfS6/oNAGPfiSfbVpa9ICBGVLnDFqgLU6vDz3/g033GCTJ0+OVblQmy+V7OnXhpGd8LXjJucqEUCgZgkQINSs8finV6OHfH5+fqwCN1OnTjXVVKgcKGgqvUWLFq4MrvYt6By5agq89tprNn78o/bll8tNexMSn9EvaP3ybtiwoStjq2n4RFrhnTt3us1+27dvjxLJajRLoTPqJSUlkWYQFi58r9IMwkxbk6RUy7rexg3r2wv39LfmB5fngtBpg3nz5rmET0uWLHGnM3ghgAACCPgVIEDw65ns1lwhp6+++so++OCDeOHChbZx40ZTEpkuXbpEZ5xxhh122GGuFmzl+gTFxcW2fv16W7hwods/oLoD+pyCAGWsqzTDUDmHgFI8u6n6vn37qoZD1L9/f+1tiFq1ahV/+OGHUbNmGVawo9CuGzPHVuQm5xSDAoQjmjW1qcP7mlI7689dunSJs7OzXXa9t956S+Wqk+1O+wgggMB+J0CAUAuHPJGJrrxmffnsuh6SlZMg7d6txGdU40FBwZYtW+K8vLxIswpr1651+xy0jq82dFpCG/natGkTZWZmxhkZGdHmzZtjBSA5OTnKxBgvXrzYpW1WoqRk5kFQ8KLiUBOH9rKGDeq5WQwtcaxbty7u37+/6Ygi+wlq4U3MJSOAQI0XIECo8UOUvAtU0KAHsBIHVZ5J0ANX0/Z16/5YOXLTpq+VgyFevXq1AgOXeEl7GZSaOZmplnWC4fxTM2309edb3ZQUW706xzp1OiVWWl6dZBg3bpyAyM2fvNuElhFAYD8VIEDYTwe+ut1WRsczzzwzXrVqlTsB8emnS+3II49wlR5veuRvtnTVxqRsUlTlxqt7/ovd3r+LmyV5//33Y1Vb/P7776MHHnggvvPOO5lBqO5g8n4EEECgCgIECFVA4i3mkhJ17tzZHaNUlUnlZVD53R1FxfZv416xj5NU7lkVLIcP6m5X9jjZDcNLL70UDxw40C2tTJo0OR40aCABAjcoAgggkAQBAoQkoIbY5JYt+W6JQSmMdeph2bJl1qpVK1Oq5yH/9aotXp7rfQZBQYBmEB699RJXnVJ/njBhQjx06FBllYynz5hhF/bsSYAQ4g1HnxBAYJ8LECDs8yGoHRdQUFDgTg9o5iA1NTX65JNPLDMz0/QL/z8ef82yl65NSoCgPZjPjbzCVZBU7QUd45wwYYIp98Ebb7xhHTp0YP9B7biFuEoEEKhlAgQItWzA9tXlKqeCAgRlUkxJSYk++ugjO/HEE90v/LsmvWlv/WOV1TnA77NaMwYNU+vZjHsHWPNDmmgjpU4uRHPmzIm1vJGdna0TFfuKhO9FAAEEghYgQAh6eP11TrkUunbtqvwHLtXz+++/b6eddpqrk3DvlLftb+99bnU85yNQgKBqklPu6mMHN21ohYWFrqbE4sWLlWLaFi1a5JY7eCGAAAII+BcgQPBvGmSLOgp5/vnnx0qxrGOF8+cvsO7du1lpWWxjn/+7vbDgE1N5aJ8vBQintDnSHrnlImt8YH3bsiU/PuGEtpaXl2fdu3eP5s+fX1HV0uf30hYCCCCAgBkBAndBlQSUL+GKK66IZ82a5TYLqjJk7969XWbHJ+Z+aPqnXkqdKrVV1Tf9UFZm/bq1szuuPMvqpaTYF198Ye3bt1fVShs8eLDqMbBBsaqYvA8BBBCopgABQjXB9te3Kyi4+eabY5VaVrDwxBNPuKJJKoSk2YP7prxtDerX9cpTVFxit/c/2665sKObKVBdCdVh0PePGzcuuvXWW13paq9fSmMIIIAAAk6AAIEbocoCDz74YDxixAh3muC+++6zu+++291Dr2Yvt3+fMM8OTPVbNOn7omL7680X2kVntHHX+NRTT8UKSpTlcfr06ZGqVpJmucrDxxsRQACBagkQIFSLa/9+88yZM23AgAGx9iPceOONNnHi4xZFFmUvW2vXPDDT1Urw9dKMRXFJqU2/d4CdePShLigZNmxY/PDDD7uTC7NmzVbKZQIEX+C0gwACCOwmQIDALVFlgUWLFrmjjsXFxdFFF12krIausFPOhi122V3T7ABFC5GfGX8FCKreOP2eAe4/VaSpT58+9uabb1qnTp3iF154wVq3bu3ny6oswBsRQACB/UeAAGH/Geu97mlubq4df/zx7mF9yimn2Lx58ywjI8O2fVdkvf7zGdv6XaGXUwUKDrS5oFuH39kDfzrf7W3YsGGjdenS2dasWRP37t1byw1RWlraXveJBhBAAAEEflmAAIE7o8oCSpZ0zDHH2MaNG61ly5aWlZXlAoaSH0rtrklv2PxFK62Oh6OOChCUwvmhGy+wXl2Od7MSCkYuv/xyVZ6M77//fi03RNq4yAsBBBBAIDkCBAjJcQ2yVR0v7NixY/zZZ5+5dMua5u/Vq5c79vjOxzk29LFX93qZQW3p1eTAVJs2op+1yGjqylFfddVV8YsvvqglhTgrKyvq2bNnkMZ0CgEEEKgpAgQINWUkasF1lJaWxj169LB33nlHVxsNHTo0Hjt2rMtFsKXge+vz5+ctv0DLDHu6NSA2xQfKzjjmpp7W45RjXPKl5cuX23nnnWcbNmxwNRiWLFlizZs339MvqQXSXCICCCCw7wUIEPb9GNSaK9Cv+2uvvTaeNm2aThVEJ510UrxgwYIoIyMjVj6EibP/1ya9/KF7qFd3s2Ji5kABwtHN0+z5kQMstV4dNzsxevToeOTIkZEClH79+kVTp06NNYNRa+C4UAQQQKAWChAg1MJB21eXrIf1888/HyuLYVFRkeoguGBBmwYVIOR/V2h/HD3bcjZsdgFCVYKERGCgPpXFsbU+It1mjPpDRdrmnJwc69atm61bt07LGvHs2XPsggt+TwbFfXUT8L0IILDfCBAg7DdD7aejBQXbrU2b49xGRe0H6Nu3rylIqF+/vgsSPs/52m6fmGV5Wwos2pXkcPdAoXJQoBkDnYxMb3Kg9et+kl3Zo31FPoUdO3bYoEGD4jlz5rj7VMsM2qxYr149Zg/8DCetIIAAAv9UgACBm6NaAnpQX3bZZfbKK6+46f8mTZrYlClTTH+nQKCsLI6++nqr3fnE6/bpqjyrX/fn9Rm0DbHkhzL3vUdlNLU/9Ghv53VqbYelN664FrV92223xUrpXFJSYmlpaSrzbKrmWJWZiWp1ijcjgAACCPxMgACBm6JaAnpwv/766/GAAQNs27Zt7rOZmZn25JNPVjy8NZOgY4oLFq90/6z/tsB2FBa7ZYMmDVNdCecOmYdb+8zmdvRhB1nqbjUcNm/ebDfddJO9/PLLVlxcrP0GNn78eLv++uv1dcweVGvEeDMCCCCwZwIECHvmtl9/SsWSRo0aFY8ePdr9uterWbNm9vjjj6s+QqxaCQoS9PeJpEe7Ti+65QT9D7+07KAETLNnz7YhQ4bE27Ztc0ca1dbIkSPtjjvusJSUFAKE/frOo/MIIPBbChAg/Jba4XxXrKRJKpz07LPPJoKBuE6dOta/f38bMWJE1Lp1a5dV8deWAxRoFBXtjHNzv7KpU6dGTz/9dLxp0ybdky62aNSokekY5eDBg2OCg3BuHnqCAAK1Q4AAoXaMU028yjgvL88GDhxo8+fPT/yyjxUQKP2yNhTecsst0cknt3fZFfX3iQd/YWGhffrpp9HMmTPj7Oxs00mFb7/9NrF04Npo0aKFli0inWCoW7cuZZ1r4h3ANSGAQNACBAhBD2/SOxd/8803NmbMGLdHQBUXE3sENHug5QHVS2jatKnbR6DlCAUHWj7QcoIyJGoWQRsf3QejyNq2bWv33nuvde/ePWrSpImCBY40Jn0Y+QIEEEDg5wIECNwVeysQFxUV2dKlS23SpEk2Y8YMV8yp0uuXNhVWBAQKIjp06GAXX3yxnXXWWdauXbtIAUV5vMB+xL0dHD6PAAII7KkAAcKeyvG5nwhoEqCwsDBeuXKlK8n89ttvR2vXro23bt0aFRUVuYBAwYD2FaSnp9txxx2n0tF26qmnRlpO0GxBSkoKQQH3FQIIIFBDBAgQashAhHAZiQRIURTFRUU77ZtvvjYdWdR/N4tdgNC4ceNIAUJaWlqsZYjEaQdmC0K4A+gDAgiEJECAENJo0hcEEEAAAQQ8CRAgeIKkGQQQQAABBEISIEAIaTTpCwIIIIAAAp4ECBA8QdIMAggggAACIQkQIIQ0mvQFAQQQQAABTwIECJ4gaQYBBBBAAIGQBAgQQhpN+oIAAggggIAnAQIET5A0gwACCCCAQEgCBAghjSZ9QQABBBBAwJMAAYInSJpBAAEEEEAgJAEChJBGk74ggAACCCDgSYAAwRMkzSCAAAIIIBCSAAFCSKNJXxBAAAEEEPAkQIDgCZJmEEAAAQQQCEmAACGk0aQvCCCAAAIIeBIgQPAESTMIIIAAAgiEJECAENJo0hcEEEAAAQQ8CRAgeIKkGQQQQAABBEISIEAIaTTpCwIIIIAAAp4ECBA8QdIMAggggAACIQkQIIQ0mvQFAQQQQAABTwIECJ4gaQYBBBBAAIGQBAgQQhpN+oIAAggggIAnAQIET5A0gwACCCCAQEgCBAghjSZ9QQABBBBAwJMAAYInSJpBAAEEEEAgJAEChJBGk74ggAACCCDgSYAAwRMkzSCAAAIIIBCSAAFCSKNJXxBAAAEEEPAkQIDgCZJmEEAAAQQQCEmAACGk0aQvCCCAAAIIeBIgQPAESTMIIIAAAgiEJECAENJo0hcEEEAAAQQ8CRAgeIKkGQQQQAABBEISIEAIaTTpCwIIIIAAAp4ECBA8QdIMAggggAACIQkQIIQ0mvQFAQQQQAABTwIECJ4gaQYBBBBAAIGQBAgQQhpN+oIAAggggIAnAQIET5A0gwACCCCAQEgCBAghjSZ9QQABBBBAwJMAAYInSJpBAAEEEEAgJAEChJBGk74ggAACCCDgSYAAwRMkzSCAAAIIIBCSAAFCSKNJXxBAAAEEEPAkQIDgCZJmEEAAAQQQCEmAACGk0aQvCCCAAAIIeBIgQPAESTMIIIAAAgiEJECAENJo0hcEEEAAAQQ8CRAgeIKkGQQQQAABBEISIEAIaTTpCwIIIIAAAp4ECBA8QdIMAggggAACIQkQIIQ0mvQFAQQQQAABTwIECJ4gaQYBBBBAAIGQBAgQQhpN+oIAAggggIAnAQIET5A0gwACCCCAQEgCBAghjSZ9QQABBBBAwJMAAYInSJpBAAEEEEAgJAEChJBGk74ggAACCCDgSYAAwRMkzSCAAAIIIBCSAAFCSKNJXxBAAAEEEPAkQIDgCZJmEEAAAQQQCEmAACGk0aQvCCCAAAIIeBIgQPAESTMIIIAAAgiEJECAENJo0hcEEEAAAQQ8CRAgeIKkGQQQQAABBEISIEAIaTTpCwIIIIAAAp4ECBA8QdIMAggggAACIQkQIIQ0mvQFAQQQQAABTwIECJ4gaQYBBBBAAIGQBAgQQhpN+oIAAggggIAnAQIET5A0gwACCCCAQEgCBAghjSZ9QQABBBBAwJMAAYInSJpBAAEEEEAgJAEChJBGk74ggAACCCDgSYAAwRMkzSCAAAIIIBCSAAFCSKNJXxBAAAEEEPAkQIDgCZJmEEAAAQQQCEmAACGk0aQvCCCAAAIIeBIgQPAESTMIIIAAAgiEJECAENJo0hcEEEAAAQQ8CRAgeIKkGQQQQAABBEISIEAIaTTpCwIIIIAAAp4ECBA8QdIMAggggAACIQkQIIQ0mvQFAQQQQAABTwIECJ4gaQYBBBBAAIGQBAgQQhpN+oIAAggggIAnAQIET5A0gwACCCCAQEgC/w95mk4WG9BgyQAAAABJRU5ErkJggg==;" parent="KNDpphYwNKjy-yqR0-zG-34" vertex="1">
          <mxGeometry x="50" y="90" width="280" height="160" as="geometry" />
        </mxCell>
        <mxCell id="KNDpphYwNKjy-yqR0-zG-23" value="" style="group" parent="KNDpphYwNKjy-yqR0-zG-19" vertex="1" connectable="0">
          <mxGeometry x="1190" y="4" width="370" height="340" as="geometry" />
        </mxCell>
        <mxCell id="KNDpphYwNKjy-yqR0-zG-30" value="" style="group" parent="KNDpphYwNKjy-yqR0-zG-23" vertex="1" connectable="0">
          <mxGeometry width="370" height="340" as="geometry" />
        </mxCell>
        <mxCell id="KNDpphYwNKjy-yqR0-zG-24" value="Analysis" style="whiteSpace=wrap;html=1;fontSize=22;fillColor=#1ba1e2;strokeColor=#006EAF;fontColor=#ffffff;rounded=1;labelBackgroundColor=none;labelBorderColor=default;verticalAlign=top;spacing=10;" parent="KNDpphYwNKjy-yqR0-zG-30" vertex="1">
          <mxGeometry width="370" height="340" as="geometry" />
        </mxCell>
        <mxCell id="cgpDBAOj4SX_Cv4YCDQl-0" value="" style="shape=image;verticalLabelPosition=bottom;labelBackgroundColor=default;verticalAlign=top;aspect=fixed;imageAspect=0;image=https://nexacu.com/media/4mibe53v/webp-net-compress-image.jpg;" vertex="1" parent="KNDpphYwNKjy-yqR0-zG-30">
          <mxGeometry x="26.809999999999945" y="96" width="316.38" height="160" as="geometry" />
        </mxCell>
        <mxCell id="KNDpphYwNKjy-yqR0-zG-28" value="" style="edgeStyle=orthogonalEdgeStyle;rounded=0;orthogonalLoop=1;jettySize=auto;html=1;fontSize=22;" parent="KNDpphYwNKjy-yqR0-zG-19" source="KNDpphYwNKjy-yqR0-zG-17" edge="1">
          <mxGeometry relative="1" as="geometry">
            <mxPoint x="1190" y="94" as="targetPoint" />
            <Array as="points">
              <mxPoint x="1190" y="94" />
            </Array>
          </mxGeometry>
        </mxCell>
        <mxCell id="CisExYW3H4FbfbOQDLme-4" style="edgeStyle=orthogonalEdgeStyle;rounded=0;orthogonalLoop=1;jettySize=auto;html=1;exitX=0.5;exitY=1;exitDx=0;exitDy=0;entryX=0.5;entryY=0;entryDx=0;entryDy=0;" edge="1" parent="KNDpphYwNKjy-yqR0-zG-19" source="KNDpphYwNKjy-yqR0-zG-7" target="CisExYW3H4FbfbOQDLme-1">
          <mxGeometry relative="1" as="geometry" />
        </mxCell>
      </root>
    </mxGraphModel>
  </diagram>
  <diagram id="oxmQhjL-40yjeNB1wkFB" name="DataModels">
    <mxGraphModel dx="1293" dy="674" grid="1" gridSize="10" guides="1" tooltips="1" connect="1" arrows="1" fold="1" page="1" pageScale="1" pageWidth="827" pageHeight="1169" math="0" shadow="0">
      <root>
        <mxCell id="0" />
        <mxCell id="1" parent="0" />
        <mxCell id="dvqYY9wqBAOjDPslqXJJ-6" value="dimdate" style="shape=table;startSize=30;container=1;collapsible=0;childLayout=tableLayout;fixedRows=1;rowLines=0;fontStyle=0;strokeColor=default;fontSize=16;labelBackgroundColor=none;labelBorderColor=default;" parent="1" vertex="1">
          <mxGeometry x="40" y="30" width="200" height="150" as="geometry" />
        </mxCell>
        <mxCell id="dvqYY9wqBAOjDPslqXJJ-7" value="" style="shape=tableRow;horizontal=0;startSize=0;swimlaneHead=0;swimlaneBody=0;top=0;left=0;bottom=0;right=0;collapsible=0;dropTarget=0;fillColor=none;points=[[0,0.5],[1,0.5]];portConstraint=eastwest;strokeColor=inherit;fontSize=16;labelBackgroundColor=none;labelBorderColor=default;" parent="dvqYY9wqBAOjDPslqXJJ-6" vertex="1">
          <mxGeometry y="30" width="200" height="30" as="geometry" />
        </mxCell>
        <mxCell id="dvqYY9wqBAOjDPslqXJJ-8" value="1" style="shape=partialRectangle;html=1;whiteSpace=wrap;connectable=0;fillColor=none;top=0;left=0;bottom=0;right=0;overflow=hidden;pointerEvents=1;strokeColor=inherit;fontSize=16;labelBackgroundColor=none;labelBorderColor=default;" parent="dvqYY9wqBAOjDPslqXJJ-7" vertex="1">
          <mxGeometry width="40" height="30" as="geometry">
            <mxRectangle width="40" height="30" as="alternateBounds" />
          </mxGeometry>
        </mxCell>
        <mxCell id="dvqYY9wqBAOjDPslqXJJ-9" value="game_date" style="shape=partialRectangle;html=1;whiteSpace=wrap;connectable=0;fillColor=none;top=0;left=0;bottom=0;right=0;align=left;spacingLeft=6;overflow=hidden;strokeColor=inherit;fontSize=16;labelBackgroundColor=none;labelBorderColor=default;" parent="dvqYY9wqBAOjDPslqXJJ-7" vertex="1">
          <mxGeometry x="40" width="160" height="30" as="geometry">
            <mxRectangle width="160" height="30" as="alternateBounds" />
          </mxGeometry>
        </mxCell>
        <mxCell id="dvqYY9wqBAOjDPslqXJJ-10" value="" style="shape=tableRow;horizontal=0;startSize=0;swimlaneHead=0;swimlaneBody=0;top=0;left=0;bottom=0;right=0;collapsible=0;dropTarget=0;fillColor=none;points=[[0,0.5],[1,0.5]];portConstraint=eastwest;strokeColor=inherit;fontSize=16;labelBackgroundColor=none;labelBorderColor=default;" parent="dvqYY9wqBAOjDPslqXJJ-6" vertex="1">
          <mxGeometry y="60" width="200" height="30" as="geometry" />
        </mxCell>
        <mxCell id="dvqYY9wqBAOjDPslqXJJ-11" value="2" style="shape=partialRectangle;html=1;whiteSpace=wrap;connectable=0;fillColor=none;top=0;left=0;bottom=0;right=0;overflow=hidden;strokeColor=inherit;fontSize=16;labelBackgroundColor=none;labelBorderColor=default;" parent="dvqYY9wqBAOjDPslqXJJ-10" vertex="1">
          <mxGeometry width="40" height="30" as="geometry">
            <mxRectangle width="40" height="30" as="alternateBounds" />
          </mxGeometry>
        </mxCell>
        <mxCell id="dvqYY9wqBAOjDPslqXJJ-12" value="game_year" style="shape=partialRectangle;html=1;whiteSpace=wrap;connectable=0;fillColor=none;top=0;left=0;bottom=0;right=0;align=left;spacingLeft=6;overflow=hidden;strokeColor=inherit;fontSize=16;labelBackgroundColor=none;labelBorderColor=default;" parent="dvqYY9wqBAOjDPslqXJJ-10" vertex="1">
          <mxGeometry x="40" width="160" height="30" as="geometry">
            <mxRectangle width="160" height="30" as="alternateBounds" />
          </mxGeometry>
        </mxCell>
        <mxCell id="dvqYY9wqBAOjDPslqXJJ-13" value="" style="shape=tableRow;horizontal=0;startSize=0;swimlaneHead=0;swimlaneBody=0;top=0;left=0;bottom=0;right=0;collapsible=0;dropTarget=0;fillColor=none;points=[[0,0.5],[1,0.5]];portConstraint=eastwest;strokeColor=inherit;fontSize=16;labelBackgroundColor=none;labelBorderColor=default;" parent="dvqYY9wqBAOjDPslqXJJ-6" vertex="1">
          <mxGeometry y="90" width="200" height="30" as="geometry" />
        </mxCell>
        <mxCell id="dvqYY9wqBAOjDPslqXJJ-14" value="3" style="shape=partialRectangle;html=1;whiteSpace=wrap;connectable=0;fillColor=none;top=0;left=0;bottom=0;right=0;overflow=hidden;strokeColor=inherit;fontSize=16;labelBackgroundColor=none;labelBorderColor=default;" parent="dvqYY9wqBAOjDPslqXJJ-13" vertex="1">
          <mxGeometry width="40" height="30" as="geometry">
            <mxRectangle width="40" height="30" as="alternateBounds" />
          </mxGeometry>
        </mxCell>
        <mxCell id="dvqYY9wqBAOjDPslqXJJ-15" value="game_month" style="shape=partialRectangle;html=1;whiteSpace=wrap;connectable=0;fillColor=none;top=0;left=0;bottom=0;right=0;align=left;spacingLeft=6;overflow=hidden;strokeColor=inherit;fontSize=16;labelBackgroundColor=none;labelBorderColor=default;" parent="dvqYY9wqBAOjDPslqXJJ-13" vertex="1">
          <mxGeometry x="40" width="160" height="30" as="geometry">
            <mxRectangle width="160" height="30" as="alternateBounds" />
          </mxGeometry>
        </mxCell>
        <mxCell id="dvqYY9wqBAOjDPslqXJJ-30" style="shape=tableRow;horizontal=0;startSize=0;swimlaneHead=0;swimlaneBody=0;top=0;left=0;bottom=0;right=0;collapsible=0;dropTarget=0;fillColor=none;points=[[0,0.5],[1,0.5]];portConstraint=eastwest;strokeColor=inherit;fontSize=16;labelBackgroundColor=none;labelBorderColor=default;" parent="dvqYY9wqBAOjDPslqXJJ-6" vertex="1">
          <mxGeometry y="120" width="200" height="30" as="geometry" />
        </mxCell>
        <mxCell id="dvqYY9wqBAOjDPslqXJJ-31" value="4" style="shape=partialRectangle;html=1;whiteSpace=wrap;connectable=0;fillColor=none;top=0;left=0;bottom=0;right=0;overflow=hidden;strokeColor=inherit;fontSize=16;labelBackgroundColor=none;labelBorderColor=default;" parent="dvqYY9wqBAOjDPslqXJJ-30" vertex="1">
          <mxGeometry width="40" height="30" as="geometry">
            <mxRectangle width="40" height="30" as="alternateBounds" />
          </mxGeometry>
        </mxCell>
        <mxCell id="dvqYY9wqBAOjDPslqXJJ-32" value="game_day_of_week" style="shape=partialRectangle;html=1;whiteSpace=wrap;connectable=0;fillColor=none;top=0;left=0;bottom=0;right=0;align=left;spacingLeft=6;overflow=hidden;strokeColor=inherit;fontSize=16;labelBackgroundColor=none;labelBorderColor=default;" parent="dvqYY9wqBAOjDPslqXJJ-30" vertex="1">
          <mxGeometry x="40" width="160" height="30" as="geometry">
            <mxRectangle width="160" height="30" as="alternateBounds" />
          </mxGeometry>
        </mxCell>
        <mxCell id="dvqYY9wqBAOjDPslqXJJ-36" value="player_gamelog" style="shape=table;startSize=30;container=1;collapsible=0;childLayout=tableLayout;fixedRows=1;rowLines=0;fontStyle=0;strokeColor=default;fontSize=16;labelBackgroundColor=none;labelBorderColor=default;" parent="1" vertex="1">
          <mxGeometry x="280" y="30" width="200" height="930" as="geometry" />
        </mxCell>
        <mxCell id="dvqYY9wqBAOjDPslqXJJ-37" value="" style="shape=tableRow;horizontal=0;startSize=0;swimlaneHead=0;swimlaneBody=0;top=0;left=0;bottom=0;right=0;collapsible=0;dropTarget=0;fillColor=none;points=[[0,0.5],[1,0.5]];portConstraint=eastwest;strokeColor=inherit;fontSize=16;labelBackgroundColor=none;labelBorderColor=default;" parent="dvqYY9wqBAOjDPslqXJJ-36" vertex="1">
          <mxGeometry y="30" width="200" height="30" as="geometry" />
        </mxCell>
        <mxCell id="dvqYY9wqBAOjDPslqXJJ-38" value="1" style="shape=partialRectangle;html=1;whiteSpace=wrap;connectable=0;fillColor=none;top=0;left=0;bottom=0;right=0;overflow=hidden;pointerEvents=1;strokeColor=inherit;fontSize=16;labelBackgroundColor=none;labelBorderColor=default;" parent="dvqYY9wqBAOjDPslqXJJ-37" vertex="1">
          <mxGeometry width="40" height="30" as="geometry">
            <mxRectangle width="40" height="30" as="alternateBounds" />
          </mxGeometry>
        </mxCell>
        <mxCell id="dvqYY9wqBAOjDPslqXJJ-39" value="rk" style="shape=partialRectangle;html=1;whiteSpace=wrap;connectable=0;fillColor=none;top=0;left=0;bottom=0;right=0;align=left;spacingLeft=6;overflow=hidden;strokeColor=inherit;fontSize=16;labelBackgroundColor=none;labelBorderColor=default;" parent="dvqYY9wqBAOjDPslqXJJ-37" vertex="1">
          <mxGeometry x="40" width="160" height="30" as="geometry">
            <mxRectangle width="160" height="30" as="alternateBounds" />
          </mxGeometry>
        </mxCell>
        <mxCell id="dvqYY9wqBAOjDPslqXJJ-40" value="" style="shape=tableRow;horizontal=0;startSize=0;swimlaneHead=0;swimlaneBody=0;top=0;left=0;bottom=0;right=0;collapsible=0;dropTarget=0;fillColor=none;points=[[0,0.5],[1,0.5]];portConstraint=eastwest;strokeColor=inherit;fontSize=16;labelBackgroundColor=none;labelBorderColor=default;" parent="dvqYY9wqBAOjDPslqXJJ-36" vertex="1">
          <mxGeometry y="60" width="200" height="30" as="geometry" />
        </mxCell>
        <mxCell id="dvqYY9wqBAOjDPslqXJJ-41" value="2" style="shape=partialRectangle;html=1;whiteSpace=wrap;connectable=0;fillColor=none;top=0;left=0;bottom=0;right=0;overflow=hidden;strokeColor=inherit;fontSize=16;labelBackgroundColor=none;labelBorderColor=default;" parent="dvqYY9wqBAOjDPslqXJJ-40" vertex="1">
          <mxGeometry width="40" height="30" as="geometry">
            <mxRectangle width="40" height="30" as="alternateBounds" />
          </mxGeometry>
        </mxCell>
        <mxCell id="dvqYY9wqBAOjDPslqXJJ-42" value="date" style="shape=partialRectangle;html=1;whiteSpace=wrap;connectable=0;fillColor=none;top=0;left=0;bottom=0;right=0;align=left;spacingLeft=6;overflow=hidden;strokeColor=inherit;fontSize=16;labelBackgroundColor=none;labelBorderColor=default;" parent="dvqYY9wqBAOjDPslqXJJ-40" vertex="1">
          <mxGeometry x="40" width="160" height="30" as="geometry">
            <mxRectangle width="160" height="30" as="alternateBounds" />
          </mxGeometry>
        </mxCell>
        <mxCell id="dvqYY9wqBAOjDPslqXJJ-43" value="" style="shape=tableRow;horizontal=0;startSize=0;swimlaneHead=0;swimlaneBody=0;top=0;left=0;bottom=0;right=0;collapsible=0;dropTarget=0;fillColor=none;points=[[0,0.5],[1,0.5]];portConstraint=eastwest;strokeColor=inherit;fontSize=16;labelBackgroundColor=none;labelBorderColor=default;" parent="dvqYY9wqBAOjDPslqXJJ-36" vertex="1">
          <mxGeometry y="90" width="200" height="30" as="geometry" />
        </mxCell>
        <mxCell id="dvqYY9wqBAOjDPslqXJJ-44" value="3" style="shape=partialRectangle;html=1;whiteSpace=wrap;connectable=0;fillColor=none;top=0;left=0;bottom=0;right=0;overflow=hidden;strokeColor=inherit;fontSize=16;labelBackgroundColor=none;labelBorderColor=default;" parent="dvqYY9wqBAOjDPslqXJJ-43" vertex="1">
          <mxGeometry width="40" height="30" as="geometry">
            <mxRectangle width="40" height="30" as="alternateBounds" />
          </mxGeometry>
        </mxCell>
        <mxCell id="dvqYY9wqBAOjDPslqXJJ-45" value="game" style="shape=partialRectangle;html=1;whiteSpace=wrap;connectable=0;fillColor=none;top=0;left=0;bottom=0;right=0;align=left;spacingLeft=6;overflow=hidden;strokeColor=inherit;fontSize=16;labelBackgroundColor=none;labelBorderColor=default;" parent="dvqYY9wqBAOjDPslqXJJ-43" vertex="1">
          <mxGeometry x="40" width="160" height="30" as="geometry">
            <mxRectangle width="160" height="30" as="alternateBounds" />
          </mxGeometry>
        </mxCell>
        <mxCell id="dvqYY9wqBAOjDPslqXJJ-46" style="shape=tableRow;horizontal=0;startSize=0;swimlaneHead=0;swimlaneBody=0;top=0;left=0;bottom=0;right=0;collapsible=0;dropTarget=0;fillColor=none;points=[[0,0.5],[1,0.5]];portConstraint=eastwest;strokeColor=inherit;fontSize=16;labelBackgroundColor=none;labelBorderColor=default;" parent="dvqYY9wqBAOjDPslqXJJ-36" vertex="1">
          <mxGeometry y="120" width="200" height="30" as="geometry" />
        </mxCell>
        <mxCell id="dvqYY9wqBAOjDPslqXJJ-47" value="4" style="shape=partialRectangle;html=1;whiteSpace=wrap;connectable=0;fillColor=none;top=0;left=0;bottom=0;right=0;overflow=hidden;strokeColor=inherit;fontSize=16;labelBackgroundColor=none;labelBorderColor=default;" parent="dvqYY9wqBAOjDPslqXJJ-46" vertex="1">
          <mxGeometry width="40" height="30" as="geometry">
            <mxRectangle width="40" height="30" as="alternateBounds" />
          </mxGeometry>
        </mxCell>
        <mxCell id="dvqYY9wqBAOjDPslqXJJ-48" value="age" style="shape=partialRectangle;html=1;whiteSpace=wrap;connectable=0;fillColor=none;top=0;left=0;bottom=0;right=0;align=left;spacingLeft=6;overflow=hidden;strokeColor=inherit;fontSize=16;labelBackgroundColor=none;labelBorderColor=default;" parent="dvqYY9wqBAOjDPslqXJJ-46" vertex="1">
          <mxGeometry x="40" width="160" height="30" as="geometry">
            <mxRectangle width="160" height="30" as="alternateBounds" />
          </mxGeometry>
        </mxCell>
        <mxCell id="dvqYY9wqBAOjDPslqXJJ-49" style="shape=tableRow;horizontal=0;startSize=0;swimlaneHead=0;swimlaneBody=0;top=0;left=0;bottom=0;right=0;collapsible=0;dropTarget=0;fillColor=none;points=[[0,0.5],[1,0.5]];portConstraint=eastwest;strokeColor=inherit;fontSize=16;labelBackgroundColor=none;labelBorderColor=default;" parent="dvqYY9wqBAOjDPslqXJJ-36" vertex="1">
          <mxGeometry y="150" width="200" height="30" as="geometry" />
        </mxCell>
        <mxCell id="dvqYY9wqBAOjDPslqXJJ-50" value="5" style="shape=partialRectangle;html=1;whiteSpace=wrap;connectable=0;fillColor=none;top=0;left=0;bottom=0;right=0;overflow=hidden;strokeColor=inherit;fontSize=16;labelBackgroundColor=none;labelBorderColor=default;" parent="dvqYY9wqBAOjDPslqXJJ-49" vertex="1">
          <mxGeometry width="40" height="30" as="geometry">
            <mxRectangle width="40" height="30" as="alternateBounds" />
          </mxGeometry>
        </mxCell>
        <mxCell id="dvqYY9wqBAOjDPslqXJJ-51" value="team" style="shape=partialRectangle;html=1;whiteSpace=wrap;connectable=0;fillColor=none;top=0;left=0;bottom=0;right=0;align=left;spacingLeft=6;overflow=hidden;strokeColor=inherit;fontSize=16;labelBackgroundColor=none;labelBorderColor=default;" parent="dvqYY9wqBAOjDPslqXJJ-49" vertex="1">
          <mxGeometry x="40" width="160" height="30" as="geometry">
            <mxRectangle width="160" height="30" as="alternateBounds" />
          </mxGeometry>
        </mxCell>
        <mxCell id="dvqYY9wqBAOjDPslqXJJ-61" style="shape=tableRow;horizontal=0;startSize=0;swimlaneHead=0;swimlaneBody=0;top=0;left=0;bottom=0;right=0;collapsible=0;dropTarget=0;fillColor=none;points=[[0,0.5],[1,0.5]];portConstraint=eastwest;strokeColor=inherit;fontSize=16;labelBackgroundColor=none;labelBorderColor=default;" parent="dvqYY9wqBAOjDPslqXJJ-36" vertex="1">
          <mxGeometry y="180" width="200" height="30" as="geometry" />
        </mxCell>
        <mxCell id="dvqYY9wqBAOjDPslqXJJ-62" value="6" style="shape=partialRectangle;html=1;whiteSpace=wrap;connectable=0;fillColor=none;top=0;left=0;bottom=0;right=0;overflow=hidden;strokeColor=inherit;fontSize=16;labelBackgroundColor=none;labelBorderColor=default;" parent="dvqYY9wqBAOjDPslqXJJ-61" vertex="1">
          <mxGeometry width="40" height="30" as="geometry">
            <mxRectangle width="40" height="30" as="alternateBounds" />
          </mxGeometry>
        </mxCell>
        <mxCell id="dvqYY9wqBAOjDPslqXJJ-63" value="ha" style="shape=partialRectangle;html=1;whiteSpace=wrap;connectable=0;fillColor=none;top=0;left=0;bottom=0;right=0;align=left;spacingLeft=6;overflow=hidden;strokeColor=inherit;fontSize=16;labelBackgroundColor=none;labelBorderColor=default;" parent="dvqYY9wqBAOjDPslqXJJ-61" vertex="1">
          <mxGeometry x="40" width="160" height="30" as="geometry">
            <mxRectangle width="160" height="30" as="alternateBounds" />
          </mxGeometry>
        </mxCell>
        <mxCell id="dvqYY9wqBAOjDPslqXJJ-58" style="shape=tableRow;horizontal=0;startSize=0;swimlaneHead=0;swimlaneBody=0;top=0;left=0;bottom=0;right=0;collapsible=0;dropTarget=0;fillColor=none;points=[[0,0.5],[1,0.5]];portConstraint=eastwest;strokeColor=inherit;fontSize=16;labelBackgroundColor=none;labelBorderColor=default;" parent="dvqYY9wqBAOjDPslqXJJ-36" vertex="1">
          <mxGeometry y="210" width="200" height="30" as="geometry" />
        </mxCell>
        <mxCell id="dvqYY9wqBAOjDPslqXJJ-59" value="7" style="shape=partialRectangle;html=1;whiteSpace=wrap;connectable=0;fillColor=none;top=0;left=0;bottom=0;right=0;overflow=hidden;strokeColor=inherit;fontSize=16;labelBackgroundColor=none;labelBorderColor=default;" parent="dvqYY9wqBAOjDPslqXJJ-58" vertex="1">
          <mxGeometry width="40" height="30" as="geometry">
            <mxRectangle width="40" height="30" as="alternateBounds" />
          </mxGeometry>
        </mxCell>
        <mxCell id="dvqYY9wqBAOjDPslqXJJ-60" value="opp" style="shape=partialRectangle;html=1;whiteSpace=wrap;connectable=0;fillColor=none;top=0;left=0;bottom=0;right=0;align=left;spacingLeft=6;overflow=hidden;strokeColor=inherit;fontSize=16;labelBackgroundColor=none;labelBorderColor=default;" parent="dvqYY9wqBAOjDPslqXJJ-58" vertex="1">
          <mxGeometry x="40" width="160" height="30" as="geometry">
            <mxRectangle width="160" height="30" as="alternateBounds" />
          </mxGeometry>
        </mxCell>
        <mxCell id="dvqYY9wqBAOjDPslqXJJ-55" style="shape=tableRow;horizontal=0;startSize=0;swimlaneHead=0;swimlaneBody=0;top=0;left=0;bottom=0;right=0;collapsible=0;dropTarget=0;fillColor=none;points=[[0,0.5],[1,0.5]];portConstraint=eastwest;strokeColor=inherit;fontSize=16;labelBackgroundColor=none;labelBorderColor=default;" parent="dvqYY9wqBAOjDPslqXJJ-36" vertex="1">
          <mxGeometry y="240" width="200" height="30" as="geometry" />
        </mxCell>
        <mxCell id="dvqYY9wqBAOjDPslqXJJ-56" value="8" style="shape=partialRectangle;html=1;whiteSpace=wrap;connectable=0;fillColor=none;top=0;left=0;bottom=0;right=0;overflow=hidden;strokeColor=inherit;fontSize=16;labelBackgroundColor=none;labelBorderColor=default;" parent="dvqYY9wqBAOjDPslqXJJ-55" vertex="1">
          <mxGeometry width="40" height="30" as="geometry">
            <mxRectangle width="40" height="30" as="alternateBounds" />
          </mxGeometry>
        </mxCell>
        <mxCell id="dvqYY9wqBAOjDPslqXJJ-57" value="wl" style="shape=partialRectangle;html=1;whiteSpace=wrap;connectable=0;fillColor=none;top=0;left=0;bottom=0;right=0;align=left;spacingLeft=6;overflow=hidden;strokeColor=inherit;fontSize=16;labelBackgroundColor=none;labelBorderColor=default;" parent="dvqYY9wqBAOjDPslqXJJ-55" vertex="1">
          <mxGeometry x="40" width="160" height="30" as="geometry">
            <mxRectangle width="160" height="30" as="alternateBounds" />
          </mxGeometry>
        </mxCell>
        <mxCell id="dvqYY9wqBAOjDPslqXJJ-52" style="shape=tableRow;horizontal=0;startSize=0;swimlaneHead=0;swimlaneBody=0;top=0;left=0;bottom=0;right=0;collapsible=0;dropTarget=0;fillColor=none;points=[[0,0.5],[1,0.5]];portConstraint=eastwest;strokeColor=inherit;fontSize=16;labelBackgroundColor=none;labelBorderColor=default;" parent="dvqYY9wqBAOjDPslqXJJ-36" vertex="1">
          <mxGeometry y="270" width="200" height="30" as="geometry" />
        </mxCell>
        <mxCell id="dvqYY9wqBAOjDPslqXJJ-53" value="9" style="shape=partialRectangle;html=1;whiteSpace=wrap;connectable=0;fillColor=none;top=0;left=0;bottom=0;right=0;overflow=hidden;strokeColor=inherit;fontSize=16;labelBackgroundColor=none;labelBorderColor=default;" parent="dvqYY9wqBAOjDPslqXJJ-52" vertex="1">
          <mxGeometry width="40" height="30" as="geometry">
            <mxRectangle width="40" height="30" as="alternateBounds" />
          </mxGeometry>
        </mxCell>
        <mxCell id="dvqYY9wqBAOjDPslqXJJ-54" value="goal" style="shape=partialRectangle;html=1;whiteSpace=wrap;connectable=0;fillColor=none;top=0;left=0;bottom=0;right=0;align=left;spacingLeft=6;overflow=hidden;strokeColor=inherit;fontSize=16;labelBackgroundColor=none;labelBorderColor=default;" parent="dvqYY9wqBAOjDPslqXJJ-52" vertex="1">
          <mxGeometry x="40" width="160" height="30" as="geometry">
            <mxRectangle width="160" height="30" as="alternateBounds" />
          </mxGeometry>
        </mxCell>
        <mxCell id="dvqYY9wqBAOjDPslqXJJ-76" style="shape=tableRow;horizontal=0;startSize=0;swimlaneHead=0;swimlaneBody=0;top=0;left=0;bottom=0;right=0;collapsible=0;dropTarget=0;fillColor=none;points=[[0,0.5],[1,0.5]];portConstraint=eastwest;strokeColor=inherit;fontSize=16;labelBackgroundColor=none;labelBorderColor=default;" parent="dvqYY9wqBAOjDPslqXJJ-36" vertex="1">
          <mxGeometry y="300" width="200" height="30" as="geometry" />
        </mxCell>
        <mxCell id="dvqYY9wqBAOjDPslqXJJ-77" value="10" style="shape=partialRectangle;html=1;whiteSpace=wrap;connectable=0;fillColor=none;top=0;left=0;bottom=0;right=0;overflow=hidden;strokeColor=inherit;fontSize=16;labelBackgroundColor=none;labelBorderColor=default;" parent="dvqYY9wqBAOjDPslqXJJ-76" vertex="1">
          <mxGeometry width="40" height="30" as="geometry">
            <mxRectangle width="40" height="30" as="alternateBounds" />
          </mxGeometry>
        </mxCell>
        <mxCell id="dvqYY9wqBAOjDPslqXJJ-78" value="assist" style="shape=partialRectangle;html=1;whiteSpace=wrap;connectable=0;fillColor=none;top=0;left=0;bottom=0;right=0;align=left;spacingLeft=6;overflow=hidden;strokeColor=inherit;fontSize=16;labelBackgroundColor=none;labelBorderColor=default;" parent="dvqYY9wqBAOjDPslqXJJ-76" vertex="1">
          <mxGeometry x="40" width="160" height="30" as="geometry">
            <mxRectangle width="160" height="30" as="alternateBounds" />
          </mxGeometry>
        </mxCell>
        <mxCell id="dvqYY9wqBAOjDPslqXJJ-73" style="shape=tableRow;horizontal=0;startSize=0;swimlaneHead=0;swimlaneBody=0;top=0;left=0;bottom=0;right=0;collapsible=0;dropTarget=0;fillColor=none;points=[[0,0.5],[1,0.5]];portConstraint=eastwest;strokeColor=inherit;fontSize=16;labelBackgroundColor=none;labelBorderColor=default;" parent="dvqYY9wqBAOjDPslqXJJ-36" vertex="1">
          <mxGeometry y="330" width="200" height="30" as="geometry" />
        </mxCell>
        <mxCell id="dvqYY9wqBAOjDPslqXJJ-74" value="11" style="shape=partialRectangle;html=1;whiteSpace=wrap;connectable=0;fillColor=none;top=0;left=0;bottom=0;right=0;overflow=hidden;strokeColor=inherit;fontSize=16;labelBackgroundColor=none;labelBorderColor=default;" parent="dvqYY9wqBAOjDPslqXJJ-73" vertex="1">
          <mxGeometry width="40" height="30" as="geometry">
            <mxRectangle width="40" height="30" as="alternateBounds" />
          </mxGeometry>
        </mxCell>
        <mxCell id="dvqYY9wqBAOjDPslqXJJ-75" value="points" style="shape=partialRectangle;html=1;whiteSpace=wrap;connectable=0;fillColor=none;top=0;left=0;bottom=0;right=0;align=left;spacingLeft=6;overflow=hidden;strokeColor=inherit;fontSize=16;labelBackgroundColor=none;labelBorderColor=default;" parent="dvqYY9wqBAOjDPslqXJJ-73" vertex="1">
          <mxGeometry x="40" width="160" height="30" as="geometry">
            <mxRectangle width="160" height="30" as="alternateBounds" />
          </mxGeometry>
        </mxCell>
        <mxCell id="dvqYY9wqBAOjDPslqXJJ-70" style="shape=tableRow;horizontal=0;startSize=0;swimlaneHead=0;swimlaneBody=0;top=0;left=0;bottom=0;right=0;collapsible=0;dropTarget=0;fillColor=none;points=[[0,0.5],[1,0.5]];portConstraint=eastwest;strokeColor=inherit;fontSize=16;labelBackgroundColor=none;labelBorderColor=default;" parent="dvqYY9wqBAOjDPslqXJJ-36" vertex="1">
          <mxGeometry y="360" width="200" height="30" as="geometry" />
        </mxCell>
        <mxCell id="dvqYY9wqBAOjDPslqXJJ-71" value="12" style="shape=partialRectangle;html=1;whiteSpace=wrap;connectable=0;fillColor=none;top=0;left=0;bottom=0;right=0;overflow=hidden;strokeColor=inherit;fontSize=16;labelBackgroundColor=none;labelBorderColor=default;" parent="dvqYY9wqBAOjDPslqXJJ-70" vertex="1">
          <mxGeometry width="40" height="30" as="geometry">
            <mxRectangle width="40" height="30" as="alternateBounds" />
          </mxGeometry>
        </mxCell>
        <mxCell id="dvqYY9wqBAOjDPslqXJJ-72" value="plus_minus" style="shape=partialRectangle;html=1;whiteSpace=wrap;connectable=0;fillColor=none;top=0;left=0;bottom=0;right=0;align=left;spacingLeft=6;overflow=hidden;strokeColor=inherit;fontSize=16;labelBackgroundColor=none;labelBorderColor=default;" parent="dvqYY9wqBAOjDPslqXJJ-70" vertex="1">
          <mxGeometry x="40" width="160" height="30" as="geometry">
            <mxRectangle width="160" height="30" as="alternateBounds" />
          </mxGeometry>
        </mxCell>
        <mxCell id="dvqYY9wqBAOjDPslqXJJ-67" style="shape=tableRow;horizontal=0;startSize=0;swimlaneHead=0;swimlaneBody=0;top=0;left=0;bottom=0;right=0;collapsible=0;dropTarget=0;fillColor=none;points=[[0,0.5],[1,0.5]];portConstraint=eastwest;strokeColor=inherit;fontSize=16;labelBackgroundColor=none;labelBorderColor=default;" parent="dvqYY9wqBAOjDPslqXJJ-36" vertex="1">
          <mxGeometry y="390" width="200" height="30" as="geometry" />
        </mxCell>
        <mxCell id="dvqYY9wqBAOjDPslqXJJ-68" value="13" style="shape=partialRectangle;html=1;whiteSpace=wrap;connectable=0;fillColor=none;top=0;left=0;bottom=0;right=0;overflow=hidden;strokeColor=inherit;fontSize=16;labelBackgroundColor=none;labelBorderColor=default;" parent="dvqYY9wqBAOjDPslqXJJ-67" vertex="1">
          <mxGeometry width="40" height="30" as="geometry">
            <mxRectangle width="40" height="30" as="alternateBounds" />
          </mxGeometry>
        </mxCell>
        <mxCell id="dvqYY9wqBAOjDPslqXJJ-69" value="pim" style="shape=partialRectangle;html=1;whiteSpace=wrap;connectable=0;fillColor=none;top=0;left=0;bottom=0;right=0;align=left;spacingLeft=6;overflow=hidden;strokeColor=inherit;fontSize=16;labelBackgroundColor=none;labelBorderColor=default;" parent="dvqYY9wqBAOjDPslqXJJ-67" vertex="1">
          <mxGeometry x="40" width="160" height="30" as="geometry">
            <mxRectangle width="160" height="30" as="alternateBounds" />
          </mxGeometry>
        </mxCell>
        <mxCell id="dvqYY9wqBAOjDPslqXJJ-64" style="shape=tableRow;horizontal=0;startSize=0;swimlaneHead=0;swimlaneBody=0;top=0;left=0;bottom=0;right=0;collapsible=0;dropTarget=0;fillColor=none;points=[[0,0.5],[1,0.5]];portConstraint=eastwest;strokeColor=inherit;fontSize=16;labelBackgroundColor=none;labelBorderColor=default;" parent="dvqYY9wqBAOjDPslqXJJ-36" vertex="1">
          <mxGeometry y="420" width="200" height="30" as="geometry" />
        </mxCell>
        <mxCell id="dvqYY9wqBAOjDPslqXJJ-65" value="14" style="shape=partialRectangle;html=1;whiteSpace=wrap;connectable=0;fillColor=none;top=0;left=0;bottom=0;right=0;overflow=hidden;strokeColor=inherit;fontSize=16;labelBackgroundColor=none;labelBorderColor=default;" parent="dvqYY9wqBAOjDPslqXJJ-64" vertex="1">
          <mxGeometry width="40" height="30" as="geometry">
            <mxRectangle width="40" height="30" as="alternateBounds" />
          </mxGeometry>
        </mxCell>
        <mxCell id="dvqYY9wqBAOjDPslqXJJ-66" value="even" style="shape=partialRectangle;html=1;whiteSpace=wrap;connectable=0;fillColor=none;top=0;left=0;bottom=0;right=0;align=left;spacingLeft=6;overflow=hidden;strokeColor=inherit;fontSize=16;labelBackgroundColor=none;labelBorderColor=default;" parent="dvqYY9wqBAOjDPslqXJJ-64" vertex="1">
          <mxGeometry x="40" width="160" height="30" as="geometry">
            <mxRectangle width="160" height="30" as="alternateBounds" />
          </mxGeometry>
        </mxCell>
        <mxCell id="dvqYY9wqBAOjDPslqXJJ-85" style="shape=tableRow;horizontal=0;startSize=0;swimlaneHead=0;swimlaneBody=0;top=0;left=0;bottom=0;right=0;collapsible=0;dropTarget=0;fillColor=none;points=[[0,0.5],[1,0.5]];portConstraint=eastwest;strokeColor=inherit;fontSize=16;labelBackgroundColor=none;labelBorderColor=default;" parent="dvqYY9wqBAOjDPslqXJJ-36" vertex="1">
          <mxGeometry y="450" width="200" height="30" as="geometry" />
        </mxCell>
        <mxCell id="dvqYY9wqBAOjDPslqXJJ-86" value="15" style="shape=partialRectangle;html=1;whiteSpace=wrap;connectable=0;fillColor=none;top=0;left=0;bottom=0;right=0;overflow=hidden;strokeColor=inherit;fontSize=16;labelBackgroundColor=none;labelBorderColor=default;" parent="dvqYY9wqBAOjDPslqXJJ-85" vertex="1">
          <mxGeometry width="40" height="30" as="geometry">
            <mxRectangle width="40" height="30" as="alternateBounds" />
          </mxGeometry>
        </mxCell>
        <mxCell id="dvqYY9wqBAOjDPslqXJJ-87" value="pplay" style="shape=partialRectangle;html=1;whiteSpace=wrap;connectable=0;fillColor=none;top=0;left=0;bottom=0;right=0;align=left;spacingLeft=6;overflow=hidden;strokeColor=inherit;fontSize=16;labelBackgroundColor=none;labelBorderColor=default;" parent="dvqYY9wqBAOjDPslqXJJ-85" vertex="1">
          <mxGeometry x="40" width="160" height="30" as="geometry">
            <mxRectangle width="160" height="30" as="alternateBounds" />
          </mxGeometry>
        </mxCell>
        <mxCell id="dvqYY9wqBAOjDPslqXJJ-82" style="shape=tableRow;horizontal=0;startSize=0;swimlaneHead=0;swimlaneBody=0;top=0;left=0;bottom=0;right=0;collapsible=0;dropTarget=0;fillColor=none;points=[[0,0.5],[1,0.5]];portConstraint=eastwest;strokeColor=inherit;fontSize=16;labelBackgroundColor=none;labelBorderColor=default;" parent="dvqYY9wqBAOjDPslqXJJ-36" vertex="1">
          <mxGeometry y="480" width="200" height="30" as="geometry" />
        </mxCell>
        <mxCell id="dvqYY9wqBAOjDPslqXJJ-83" value="16" style="shape=partialRectangle;html=1;whiteSpace=wrap;connectable=0;fillColor=none;top=0;left=0;bottom=0;right=0;overflow=hidden;strokeColor=inherit;fontSize=16;labelBackgroundColor=none;labelBorderColor=default;" parent="dvqYY9wqBAOjDPslqXJJ-82" vertex="1">
          <mxGeometry width="40" height="30" as="geometry">
            <mxRectangle width="40" height="30" as="alternateBounds" />
          </mxGeometry>
        </mxCell>
        <mxCell id="dvqYY9wqBAOjDPslqXJJ-84" value="shand" style="shape=partialRectangle;html=1;whiteSpace=wrap;connectable=0;fillColor=none;top=0;left=0;bottom=0;right=0;align=left;spacingLeft=6;overflow=hidden;strokeColor=inherit;fontSize=16;labelBackgroundColor=none;labelBorderColor=default;" parent="dvqYY9wqBAOjDPslqXJJ-82" vertex="1">
          <mxGeometry x="40" width="160" height="30" as="geometry">
            <mxRectangle width="160" height="30" as="alternateBounds" />
          </mxGeometry>
        </mxCell>
        <mxCell id="dvqYY9wqBAOjDPslqXJJ-79" style="shape=tableRow;horizontal=0;startSize=0;swimlaneHead=0;swimlaneBody=0;top=0;left=0;bottom=0;right=0;collapsible=0;dropTarget=0;fillColor=none;points=[[0,0.5],[1,0.5]];portConstraint=eastwest;strokeColor=inherit;fontSize=16;labelBackgroundColor=none;labelBorderColor=default;" parent="dvqYY9wqBAOjDPslqXJJ-36" vertex="1">
          <mxGeometry y="510" width="200" height="30" as="geometry" />
        </mxCell>
        <mxCell id="dvqYY9wqBAOjDPslqXJJ-80" value="17" style="shape=partialRectangle;html=1;whiteSpace=wrap;connectable=0;fillColor=none;top=0;left=0;bottom=0;right=0;overflow=hidden;strokeColor=inherit;fontSize=16;labelBackgroundColor=none;labelBorderColor=default;" parent="dvqYY9wqBAOjDPslqXJJ-79" vertex="1">
          <mxGeometry width="40" height="30" as="geometry">
            <mxRectangle width="40" height="30" as="alternateBounds" />
          </mxGeometry>
        </mxCell>
        <mxCell id="dvqYY9wqBAOjDPslqXJJ-81" value="gw" style="shape=partialRectangle;html=1;whiteSpace=wrap;connectable=0;fillColor=none;top=0;left=0;bottom=0;right=0;align=left;spacingLeft=6;overflow=hidden;strokeColor=inherit;fontSize=16;labelBackgroundColor=none;labelBorderColor=default;" parent="dvqYY9wqBAOjDPslqXJJ-79" vertex="1">
          <mxGeometry x="40" width="160" height="30" as="geometry">
            <mxRectangle width="160" height="30" as="alternateBounds" />
          </mxGeometry>
        </mxCell>
        <mxCell id="dvqYY9wqBAOjDPslqXJJ-88" style="shape=tableRow;horizontal=0;startSize=0;swimlaneHead=0;swimlaneBody=0;top=0;left=0;bottom=0;right=0;collapsible=0;dropTarget=0;fillColor=none;points=[[0,0.5],[1,0.5]];portConstraint=eastwest;strokeColor=inherit;fontSize=16;labelBackgroundColor=none;labelBorderColor=default;" parent="dvqYY9wqBAOjDPslqXJJ-36" vertex="1">
          <mxGeometry y="540" width="200" height="30" as="geometry" />
        </mxCell>
        <mxCell id="dvqYY9wqBAOjDPslqXJJ-89" value="18" style="shape=partialRectangle;html=1;whiteSpace=wrap;connectable=0;fillColor=none;top=0;left=0;bottom=0;right=0;overflow=hidden;strokeColor=inherit;fontSize=16;labelBackgroundColor=none;labelBorderColor=default;" parent="dvqYY9wqBAOjDPslqXJJ-88" vertex="1">
          <mxGeometry width="40" height="30" as="geometry">
            <mxRectangle width="40" height="30" as="alternateBounds" />
          </mxGeometry>
        </mxCell>
        <mxCell id="dvqYY9wqBAOjDPslqXJJ-90" value="ev" style="shape=partialRectangle;html=1;whiteSpace=wrap;connectable=0;fillColor=none;top=0;left=0;bottom=0;right=0;align=left;spacingLeft=6;overflow=hidden;strokeColor=inherit;fontSize=16;labelBackgroundColor=none;labelBorderColor=default;" parent="dvqYY9wqBAOjDPslqXJJ-88" vertex="1">
          <mxGeometry x="40" width="160" height="30" as="geometry">
            <mxRectangle width="160" height="30" as="alternateBounds" />
          </mxGeometry>
        </mxCell>
        <mxCell id="dvqYY9wqBAOjDPslqXJJ-91" style="shape=tableRow;horizontal=0;startSize=0;swimlaneHead=0;swimlaneBody=0;top=0;left=0;bottom=0;right=0;collapsible=0;dropTarget=0;fillColor=none;points=[[0,0.5],[1,0.5]];portConstraint=eastwest;strokeColor=inherit;fontSize=16;labelBackgroundColor=none;labelBorderColor=default;" parent="dvqYY9wqBAOjDPslqXJJ-36" vertex="1">
          <mxGeometry y="570" width="200" height="30" as="geometry" />
        </mxCell>
        <mxCell id="dvqYY9wqBAOjDPslqXJJ-92" value="19" style="shape=partialRectangle;html=1;whiteSpace=wrap;connectable=0;fillColor=none;top=0;left=0;bottom=0;right=0;overflow=hidden;strokeColor=inherit;fontSize=16;labelBackgroundColor=none;labelBorderColor=default;" parent="dvqYY9wqBAOjDPslqXJJ-91" vertex="1">
          <mxGeometry width="40" height="30" as="geometry">
            <mxRectangle width="40" height="30" as="alternateBounds" />
          </mxGeometry>
        </mxCell>
        <mxCell id="dvqYY9wqBAOjDPslqXJJ-93" value="pp" style="shape=partialRectangle;html=1;whiteSpace=wrap;connectable=0;fillColor=none;top=0;left=0;bottom=0;right=0;align=left;spacingLeft=6;overflow=hidden;strokeColor=inherit;fontSize=16;labelBackgroundColor=none;labelBorderColor=default;" parent="dvqYY9wqBAOjDPslqXJJ-91" vertex="1">
          <mxGeometry x="40" width="160" height="30" as="geometry">
            <mxRectangle width="160" height="30" as="alternateBounds" />
          </mxGeometry>
        </mxCell>
        <mxCell id="dvqYY9wqBAOjDPslqXJJ-94" style="shape=tableRow;horizontal=0;startSize=0;swimlaneHead=0;swimlaneBody=0;top=0;left=0;bottom=0;right=0;collapsible=0;dropTarget=0;fillColor=none;points=[[0,0.5],[1,0.5]];portConstraint=eastwest;strokeColor=inherit;fontSize=16;labelBackgroundColor=none;labelBorderColor=default;" parent="dvqYY9wqBAOjDPslqXJJ-36" vertex="1">
          <mxGeometry y="600" width="200" height="30" as="geometry" />
        </mxCell>
        <mxCell id="dvqYY9wqBAOjDPslqXJJ-95" value="20" style="shape=partialRectangle;html=1;whiteSpace=wrap;connectable=0;fillColor=none;top=0;left=0;bottom=0;right=0;overflow=hidden;strokeColor=inherit;fontSize=16;labelBackgroundColor=none;labelBorderColor=default;" parent="dvqYY9wqBAOjDPslqXJJ-94" vertex="1">
          <mxGeometry width="40" height="30" as="geometry">
            <mxRectangle width="40" height="30" as="alternateBounds" />
          </mxGeometry>
        </mxCell>
        <mxCell id="dvqYY9wqBAOjDPslqXJJ-96" value="sh" style="shape=partialRectangle;html=1;whiteSpace=wrap;connectable=0;fillColor=none;top=0;left=0;bottom=0;right=0;align=left;spacingLeft=6;overflow=hidden;strokeColor=inherit;fontSize=16;labelBackgroundColor=none;labelBorderColor=default;" parent="dvqYY9wqBAOjDPslqXJJ-94" vertex="1">
          <mxGeometry x="40" width="160" height="30" as="geometry">
            <mxRectangle width="160" height="30" as="alternateBounds" />
          </mxGeometry>
        </mxCell>
        <mxCell id="dvqYY9wqBAOjDPslqXJJ-97" style="shape=tableRow;horizontal=0;startSize=0;swimlaneHead=0;swimlaneBody=0;top=0;left=0;bottom=0;right=0;collapsible=0;dropTarget=0;fillColor=none;points=[[0,0.5],[1,0.5]];portConstraint=eastwest;strokeColor=inherit;fontSize=16;labelBackgroundColor=none;labelBorderColor=default;" parent="dvqYY9wqBAOjDPslqXJJ-36" vertex="1">
          <mxGeometry y="630" width="200" height="30" as="geometry" />
        </mxCell>
        <mxCell id="dvqYY9wqBAOjDPslqXJJ-98" value="21" style="shape=partialRectangle;html=1;whiteSpace=wrap;connectable=0;fillColor=none;top=0;left=0;bottom=0;right=0;overflow=hidden;strokeColor=inherit;fontSize=16;labelBackgroundColor=none;labelBorderColor=default;" parent="dvqYY9wqBAOjDPslqXJJ-97" vertex="1">
          <mxGeometry width="40" height="30" as="geometry">
            <mxRectangle width="40" height="30" as="alternateBounds" />
          </mxGeometry>
        </mxCell>
        <mxCell id="dvqYY9wqBAOjDPslqXJJ-99" value="s" style="shape=partialRectangle;html=1;whiteSpace=wrap;connectable=0;fillColor=none;top=0;left=0;bottom=0;right=0;align=left;spacingLeft=6;overflow=hidden;strokeColor=inherit;fontSize=16;labelBackgroundColor=none;labelBorderColor=default;" parent="dvqYY9wqBAOjDPslqXJJ-97" vertex="1">
          <mxGeometry x="40" width="160" height="30" as="geometry">
            <mxRectangle width="160" height="30" as="alternateBounds" />
          </mxGeometry>
        </mxCell>
        <mxCell id="dvqYY9wqBAOjDPslqXJJ-109" style="shape=tableRow;horizontal=0;startSize=0;swimlaneHead=0;swimlaneBody=0;top=0;left=0;bottom=0;right=0;collapsible=0;dropTarget=0;fillColor=none;points=[[0,0.5],[1,0.5]];portConstraint=eastwest;strokeColor=inherit;fontSize=16;labelBackgroundColor=none;labelBorderColor=default;" parent="dvqYY9wqBAOjDPslqXJJ-36" vertex="1">
          <mxGeometry y="660" width="200" height="30" as="geometry" />
        </mxCell>
        <mxCell id="dvqYY9wqBAOjDPslqXJJ-110" value="22" style="shape=partialRectangle;html=1;whiteSpace=wrap;connectable=0;fillColor=none;top=0;left=0;bottom=0;right=0;overflow=hidden;strokeColor=inherit;fontSize=16;labelBackgroundColor=none;labelBorderColor=default;" parent="dvqYY9wqBAOjDPslqXJJ-109" vertex="1">
          <mxGeometry width="40" height="30" as="geometry">
            <mxRectangle width="40" height="30" as="alternateBounds" />
          </mxGeometry>
        </mxCell>
        <mxCell id="dvqYY9wqBAOjDPslqXJJ-111" value="s_pct" style="shape=partialRectangle;html=1;whiteSpace=wrap;connectable=0;fillColor=none;top=0;left=0;bottom=0;right=0;align=left;spacingLeft=6;overflow=hidden;strokeColor=inherit;fontSize=16;labelBackgroundColor=none;labelBorderColor=default;" parent="dvqYY9wqBAOjDPslqXJJ-109" vertex="1">
          <mxGeometry x="40" width="160" height="30" as="geometry">
            <mxRectangle width="160" height="30" as="alternateBounds" />
          </mxGeometry>
        </mxCell>
        <mxCell id="dvqYY9wqBAOjDPslqXJJ-106" style="shape=tableRow;horizontal=0;startSize=0;swimlaneHead=0;swimlaneBody=0;top=0;left=0;bottom=0;right=0;collapsible=0;dropTarget=0;fillColor=none;points=[[0,0.5],[1,0.5]];portConstraint=eastwest;strokeColor=inherit;fontSize=16;labelBackgroundColor=none;labelBorderColor=default;" parent="dvqYY9wqBAOjDPslqXJJ-36" vertex="1">
          <mxGeometry y="690" width="200" height="30" as="geometry" />
        </mxCell>
        <mxCell id="dvqYY9wqBAOjDPslqXJJ-107" value="23" style="shape=partialRectangle;html=1;whiteSpace=wrap;connectable=0;fillColor=none;top=0;left=0;bottom=0;right=0;overflow=hidden;strokeColor=inherit;fontSize=16;labelBackgroundColor=none;labelBorderColor=default;" parent="dvqYY9wqBAOjDPslqXJJ-106" vertex="1">
          <mxGeometry width="40" height="30" as="geometry">
            <mxRectangle width="40" height="30" as="alternateBounds" />
          </mxGeometry>
        </mxCell>
        <mxCell id="dvqYY9wqBAOjDPslqXJJ-108" value="shft" style="shape=partialRectangle;html=1;whiteSpace=wrap;connectable=0;fillColor=none;top=0;left=0;bottom=0;right=0;align=left;spacingLeft=6;overflow=hidden;strokeColor=inherit;fontSize=16;labelBackgroundColor=none;labelBorderColor=default;" parent="dvqYY9wqBAOjDPslqXJJ-106" vertex="1">
          <mxGeometry x="40" width="160" height="30" as="geometry">
            <mxRectangle width="160" height="30" as="alternateBounds" />
          </mxGeometry>
        </mxCell>
        <mxCell id="dvqYY9wqBAOjDPslqXJJ-103" style="shape=tableRow;horizontal=0;startSize=0;swimlaneHead=0;swimlaneBody=0;top=0;left=0;bottom=0;right=0;collapsible=0;dropTarget=0;fillColor=none;points=[[0,0.5],[1,0.5]];portConstraint=eastwest;strokeColor=inherit;fontSize=16;labelBackgroundColor=none;labelBorderColor=default;" parent="dvqYY9wqBAOjDPslqXJJ-36" vertex="1">
          <mxGeometry y="720" width="200" height="30" as="geometry" />
        </mxCell>
        <mxCell id="dvqYY9wqBAOjDPslqXJJ-104" value="24" style="shape=partialRectangle;html=1;whiteSpace=wrap;connectable=0;fillColor=none;top=0;left=0;bottom=0;right=0;overflow=hidden;strokeColor=inherit;fontSize=16;labelBackgroundColor=none;labelBorderColor=default;" parent="dvqYY9wqBAOjDPslqXJJ-103" vertex="1">
          <mxGeometry width="40" height="30" as="geometry">
            <mxRectangle width="40" height="30" as="alternateBounds" />
          </mxGeometry>
        </mxCell>
        <mxCell id="dvqYY9wqBAOjDPslqXJJ-105" value="toi" style="shape=partialRectangle;html=1;whiteSpace=wrap;connectable=0;fillColor=none;top=0;left=0;bottom=0;right=0;align=left;spacingLeft=6;overflow=hidden;strokeColor=inherit;fontSize=16;labelBackgroundColor=none;labelBorderColor=default;" parent="dvqYY9wqBAOjDPslqXJJ-103" vertex="1">
          <mxGeometry x="40" width="160" height="30" as="geometry">
            <mxRectangle width="160" height="30" as="alternateBounds" />
          </mxGeometry>
        </mxCell>
        <mxCell id="dvqYY9wqBAOjDPslqXJJ-100" style="shape=tableRow;horizontal=0;startSize=0;swimlaneHead=0;swimlaneBody=0;top=0;left=0;bottom=0;right=0;collapsible=0;dropTarget=0;fillColor=none;points=[[0,0.5],[1,0.5]];portConstraint=eastwest;strokeColor=inherit;fontSize=16;labelBackgroundColor=none;labelBorderColor=default;" parent="dvqYY9wqBAOjDPslqXJJ-36" vertex="1">
          <mxGeometry y="750" width="200" height="30" as="geometry" />
        </mxCell>
        <mxCell id="dvqYY9wqBAOjDPslqXJJ-101" value="25" style="shape=partialRectangle;html=1;whiteSpace=wrap;connectable=0;fillColor=none;top=0;left=0;bottom=0;right=0;overflow=hidden;strokeColor=inherit;fontSize=16;labelBackgroundColor=none;labelBorderColor=default;" parent="dvqYY9wqBAOjDPslqXJJ-100" vertex="1">
          <mxGeometry width="40" height="30" as="geometry">
            <mxRectangle width="40" height="30" as="alternateBounds" />
          </mxGeometry>
        </mxCell>
        <mxCell id="dvqYY9wqBAOjDPslqXJJ-102" value="hit" style="shape=partialRectangle;html=1;whiteSpace=wrap;connectable=0;fillColor=none;top=0;left=0;bottom=0;right=0;align=left;spacingLeft=6;overflow=hidden;strokeColor=inherit;fontSize=16;labelBackgroundColor=none;labelBorderColor=default;" parent="dvqYY9wqBAOjDPslqXJJ-100" vertex="1">
          <mxGeometry x="40" width="160" height="30" as="geometry">
            <mxRectangle width="160" height="30" as="alternateBounds" />
          </mxGeometry>
        </mxCell>
        <mxCell id="dvqYY9wqBAOjDPslqXJJ-121" style="shape=tableRow;horizontal=0;startSize=0;swimlaneHead=0;swimlaneBody=0;top=0;left=0;bottom=0;right=0;collapsible=0;dropTarget=0;fillColor=none;points=[[0,0.5],[1,0.5]];portConstraint=eastwest;strokeColor=inherit;fontSize=16;labelBackgroundColor=none;labelBorderColor=default;" parent="dvqYY9wqBAOjDPslqXJJ-36" vertex="1">
          <mxGeometry y="780" width="200" height="30" as="geometry" />
        </mxCell>
        <mxCell id="dvqYY9wqBAOjDPslqXJJ-122" value="26" style="shape=partialRectangle;html=1;whiteSpace=wrap;connectable=0;fillColor=none;top=0;left=0;bottom=0;right=0;overflow=hidden;strokeColor=inherit;fontSize=16;labelBackgroundColor=none;labelBorderColor=default;" parent="dvqYY9wqBAOjDPslqXJJ-121" vertex="1">
          <mxGeometry width="40" height="30" as="geometry">
            <mxRectangle width="40" height="30" as="alternateBounds" />
          </mxGeometry>
        </mxCell>
        <mxCell id="dvqYY9wqBAOjDPslqXJJ-123" value="blk" style="shape=partialRectangle;html=1;whiteSpace=wrap;connectable=0;fillColor=none;top=0;left=0;bottom=0;right=0;align=left;spacingLeft=6;overflow=hidden;strokeColor=inherit;fontSize=16;labelBackgroundColor=none;labelBorderColor=default;" parent="dvqYY9wqBAOjDPslqXJJ-121" vertex="1">
          <mxGeometry x="40" width="160" height="30" as="geometry">
            <mxRectangle width="160" height="30" as="alternateBounds" />
          </mxGeometry>
        </mxCell>
        <mxCell id="dvqYY9wqBAOjDPslqXJJ-118" style="shape=tableRow;horizontal=0;startSize=0;swimlaneHead=0;swimlaneBody=0;top=0;left=0;bottom=0;right=0;collapsible=0;dropTarget=0;fillColor=none;points=[[0,0.5],[1,0.5]];portConstraint=eastwest;strokeColor=inherit;fontSize=16;labelBackgroundColor=none;labelBorderColor=default;" parent="dvqYY9wqBAOjDPslqXJJ-36" vertex="1">
          <mxGeometry y="810" width="200" height="30" as="geometry" />
        </mxCell>
        <mxCell id="dvqYY9wqBAOjDPslqXJJ-119" value="27" style="shape=partialRectangle;html=1;whiteSpace=wrap;connectable=0;fillColor=none;top=0;left=0;bottom=0;right=0;overflow=hidden;strokeColor=inherit;fontSize=16;labelBackgroundColor=none;labelBorderColor=default;" parent="dvqYY9wqBAOjDPslqXJJ-118" vertex="1">
          <mxGeometry width="40" height="30" as="geometry">
            <mxRectangle width="40" height="30" as="alternateBounds" />
          </mxGeometry>
        </mxCell>
        <mxCell id="dvqYY9wqBAOjDPslqXJJ-120" value="fow" style="shape=partialRectangle;html=1;whiteSpace=wrap;connectable=0;fillColor=none;top=0;left=0;bottom=0;right=0;align=left;spacingLeft=6;overflow=hidden;strokeColor=inherit;fontSize=16;labelBackgroundColor=none;labelBorderColor=default;" parent="dvqYY9wqBAOjDPslqXJJ-118" vertex="1">
          <mxGeometry x="40" width="160" height="30" as="geometry">
            <mxRectangle width="160" height="30" as="alternateBounds" />
          </mxGeometry>
        </mxCell>
        <mxCell id="dvqYY9wqBAOjDPslqXJJ-115" style="shape=tableRow;horizontal=0;startSize=0;swimlaneHead=0;swimlaneBody=0;top=0;left=0;bottom=0;right=0;collapsible=0;dropTarget=0;fillColor=none;points=[[0,0.5],[1,0.5]];portConstraint=eastwest;strokeColor=inherit;fontSize=16;labelBackgroundColor=none;labelBorderColor=default;" parent="dvqYY9wqBAOjDPslqXJJ-36" vertex="1">
          <mxGeometry y="840" width="200" height="30" as="geometry" />
        </mxCell>
        <mxCell id="dvqYY9wqBAOjDPslqXJJ-116" value="28" style="shape=partialRectangle;html=1;whiteSpace=wrap;connectable=0;fillColor=none;top=0;left=0;bottom=0;right=0;overflow=hidden;strokeColor=inherit;fontSize=16;labelBackgroundColor=none;labelBorderColor=default;" parent="dvqYY9wqBAOjDPslqXJJ-115" vertex="1">
          <mxGeometry width="40" height="30" as="geometry">
            <mxRectangle width="40" height="30" as="alternateBounds" />
          </mxGeometry>
        </mxCell>
        <mxCell id="dvqYY9wqBAOjDPslqXJJ-117" value="fo_pct" style="shape=partialRectangle;html=1;whiteSpace=wrap;connectable=0;fillColor=none;top=0;left=0;bottom=0;right=0;align=left;spacingLeft=6;overflow=hidden;strokeColor=inherit;fontSize=16;labelBackgroundColor=none;labelBorderColor=default;" parent="dvqYY9wqBAOjDPslqXJJ-115" vertex="1">
          <mxGeometry x="40" width="160" height="30" as="geometry">
            <mxRectangle width="160" height="30" as="alternateBounds" />
          </mxGeometry>
        </mxCell>
        <mxCell id="dvqYY9wqBAOjDPslqXJJ-112" style="shape=tableRow;horizontal=0;startSize=0;swimlaneHead=0;swimlaneBody=0;top=0;left=0;bottom=0;right=0;collapsible=0;dropTarget=0;fillColor=none;points=[[0,0.5],[1,0.5]];portConstraint=eastwest;strokeColor=inherit;fontSize=16;labelBackgroundColor=none;labelBorderColor=default;" parent="dvqYY9wqBAOjDPslqXJJ-36" vertex="1">
          <mxGeometry y="870" width="200" height="30" as="geometry" />
        </mxCell>
        <mxCell id="dvqYY9wqBAOjDPslqXJJ-113" value="29" style="shape=partialRectangle;html=1;whiteSpace=wrap;connectable=0;fillColor=none;top=0;left=0;bottom=0;right=0;overflow=hidden;strokeColor=inherit;fontSize=16;labelBackgroundColor=none;labelBorderColor=default;" parent="dvqYY9wqBAOjDPslqXJJ-112" vertex="1">
          <mxGeometry width="40" height="30" as="geometry">
            <mxRectangle width="40" height="30" as="alternateBounds" />
          </mxGeometry>
        </mxCell>
        <mxCell id="dvqYY9wqBAOjDPslqXJJ-114" value="year" style="shape=partialRectangle;html=1;whiteSpace=wrap;connectable=0;fillColor=none;top=0;left=0;bottom=0;right=0;align=left;spacingLeft=6;overflow=hidden;strokeColor=inherit;fontSize=16;labelBackgroundColor=none;labelBorderColor=default;" parent="dvqYY9wqBAOjDPslqXJJ-112" vertex="1">
          <mxGeometry x="40" width="160" height="30" as="geometry">
            <mxRectangle width="160" height="30" as="alternateBounds" />
          </mxGeometry>
        </mxCell>
        <mxCell id="dvqYY9wqBAOjDPslqXJJ-124" style="shape=tableRow;horizontal=0;startSize=0;swimlaneHead=0;swimlaneBody=0;top=0;left=0;bottom=0;right=0;collapsible=0;dropTarget=0;fillColor=none;points=[[0,0.5],[1,0.5]];portConstraint=eastwest;strokeColor=inherit;fontSize=16;labelBackgroundColor=none;labelBorderColor=default;" parent="dvqYY9wqBAOjDPslqXJJ-36" vertex="1">
          <mxGeometry y="900" width="200" height="30" as="geometry" />
        </mxCell>
        <mxCell id="dvqYY9wqBAOjDPslqXJJ-125" value="30" style="shape=partialRectangle;html=1;whiteSpace=wrap;connectable=0;fillColor=none;top=0;left=0;bottom=0;right=0;overflow=hidden;strokeColor=inherit;fontSize=16;labelBackgroundColor=none;labelBorderColor=default;" parent="dvqYY9wqBAOjDPslqXJJ-124" vertex="1">
          <mxGeometry width="40" height="30" as="geometry">
            <mxRectangle width="40" height="30" as="alternateBounds" />
          </mxGeometry>
        </mxCell>
        <mxCell id="dvqYY9wqBAOjDPslqXJJ-126" value="name" style="shape=partialRectangle;html=1;whiteSpace=wrap;connectable=0;fillColor=none;top=0;left=0;bottom=0;right=0;align=left;spacingLeft=6;overflow=hidden;strokeColor=inherit;fontSize=16;labelBackgroundColor=none;labelBorderColor=default;" parent="dvqYY9wqBAOjDPslqXJJ-124" vertex="1">
          <mxGeometry x="40" width="160" height="30" as="geometry">
            <mxRectangle width="160" height="30" as="alternateBounds" />
          </mxGeometry>
        </mxCell>
        <mxCell id="dvqYY9wqBAOjDPslqXJJ-127" value="player_scoringlog" style="shape=table;startSize=30;container=1;collapsible=0;childLayout=tableLayout;fixedRows=1;rowLines=0;fontStyle=0;strokeColor=default;fontSize=16;labelBackgroundColor=none;labelBorderColor=default;" parent="1" vertex="1">
          <mxGeometry x="520" y="30" width="210" height="480" as="geometry" />
        </mxCell>
        <mxCell id="dvqYY9wqBAOjDPslqXJJ-128" value="" style="shape=tableRow;horizontal=0;startSize=0;swimlaneHead=0;swimlaneBody=0;top=0;left=0;bottom=0;right=0;collapsible=0;dropTarget=0;fillColor=none;points=[[0,0.5],[1,0.5]];portConstraint=eastwest;strokeColor=inherit;fontSize=16;labelBackgroundColor=none;labelBorderColor=default;" parent="dvqYY9wqBAOjDPslqXJJ-127" vertex="1">
          <mxGeometry y="30" width="210" height="30" as="geometry" />
        </mxCell>
        <mxCell id="dvqYY9wqBAOjDPslqXJJ-129" value="1" style="shape=partialRectangle;html=1;whiteSpace=wrap;connectable=0;fillColor=none;top=0;left=0;bottom=0;right=0;overflow=hidden;pointerEvents=1;strokeColor=inherit;fontSize=16;labelBackgroundColor=none;labelBorderColor=default;" parent="dvqYY9wqBAOjDPslqXJJ-128" vertex="1">
          <mxGeometry width="40" height="30" as="geometry">
            <mxRectangle width="40" height="30" as="alternateBounds" />
          </mxGeometry>
        </mxCell>
        <mxCell id="dvqYY9wqBAOjDPslqXJJ-130" value="rk" style="shape=partialRectangle;html=1;whiteSpace=wrap;connectable=0;fillColor=none;top=0;left=0;bottom=0;right=0;align=left;spacingLeft=6;overflow=hidden;strokeColor=inherit;fontSize=16;labelBackgroundColor=none;labelBorderColor=default;" parent="dvqYY9wqBAOjDPslqXJJ-128" vertex="1">
          <mxGeometry x="40" width="170" height="30" as="geometry">
            <mxRectangle width="170" height="30" as="alternateBounds" />
          </mxGeometry>
        </mxCell>
        <mxCell id="dvqYY9wqBAOjDPslqXJJ-131" value="" style="shape=tableRow;horizontal=0;startSize=0;swimlaneHead=0;swimlaneBody=0;top=0;left=0;bottom=0;right=0;collapsible=0;dropTarget=0;fillColor=none;points=[[0,0.5],[1,0.5]];portConstraint=eastwest;strokeColor=inherit;fontSize=16;labelBackgroundColor=none;labelBorderColor=default;" parent="dvqYY9wqBAOjDPslqXJJ-127" vertex="1">
          <mxGeometry y="60" width="210" height="30" as="geometry" />
        </mxCell>
        <mxCell id="dvqYY9wqBAOjDPslqXJJ-132" value="2" style="shape=partialRectangle;html=1;whiteSpace=wrap;connectable=0;fillColor=none;top=0;left=0;bottom=0;right=0;overflow=hidden;strokeColor=inherit;fontSize=16;labelBackgroundColor=none;labelBorderColor=default;" parent="dvqYY9wqBAOjDPslqXJJ-131" vertex="1">
          <mxGeometry width="40" height="30" as="geometry">
            <mxRectangle width="40" height="30" as="alternateBounds" />
          </mxGeometry>
        </mxCell>
        <mxCell id="dvqYY9wqBAOjDPslqXJJ-133" value="date" style="shape=partialRectangle;html=1;whiteSpace=wrap;connectable=0;fillColor=none;top=0;left=0;bottom=0;right=0;align=left;spacingLeft=6;overflow=hidden;strokeColor=inherit;fontSize=16;labelBackgroundColor=none;labelBorderColor=default;" parent="dvqYY9wqBAOjDPslqXJJ-131" vertex="1">
          <mxGeometry x="40" width="170" height="30" as="geometry">
            <mxRectangle width="170" height="30" as="alternateBounds" />
          </mxGeometry>
        </mxCell>
        <mxCell id="dvqYY9wqBAOjDPslqXJJ-134" value="" style="shape=tableRow;horizontal=0;startSize=0;swimlaneHead=0;swimlaneBody=0;top=0;left=0;bottom=0;right=0;collapsible=0;dropTarget=0;fillColor=none;points=[[0,0.5],[1,0.5]];portConstraint=eastwest;strokeColor=inherit;fontSize=16;labelBackgroundColor=none;labelBorderColor=default;" parent="dvqYY9wqBAOjDPslqXJJ-127" vertex="1">
          <mxGeometry y="90" width="210" height="30" as="geometry" />
        </mxCell>
        <mxCell id="dvqYY9wqBAOjDPslqXJJ-135" value="3" style="shape=partialRectangle;html=1;whiteSpace=wrap;connectable=0;fillColor=none;top=0;left=0;bottom=0;right=0;overflow=hidden;strokeColor=inherit;fontSize=16;labelBackgroundColor=none;labelBorderColor=default;" parent="dvqYY9wqBAOjDPslqXJJ-134" vertex="1">
          <mxGeometry width="40" height="30" as="geometry">
            <mxRectangle width="40" height="30" as="alternateBounds" />
          </mxGeometry>
        </mxCell>
        <mxCell id="dvqYY9wqBAOjDPslqXJJ-136" value="tm" style="shape=partialRectangle;html=1;whiteSpace=wrap;connectable=0;fillColor=none;top=0;left=0;bottom=0;right=0;align=left;spacingLeft=6;overflow=hidden;strokeColor=inherit;fontSize=16;labelBackgroundColor=none;labelBorderColor=default;" parent="dvqYY9wqBAOjDPslqXJJ-134" vertex="1">
          <mxGeometry x="40" width="170" height="30" as="geometry">
            <mxRectangle width="170" height="30" as="alternateBounds" />
          </mxGeometry>
        </mxCell>
        <mxCell id="dvqYY9wqBAOjDPslqXJJ-137" style="shape=tableRow;horizontal=0;startSize=0;swimlaneHead=0;swimlaneBody=0;top=0;left=0;bottom=0;right=0;collapsible=0;dropTarget=0;fillColor=none;points=[[0,0.5],[1,0.5]];portConstraint=eastwest;strokeColor=inherit;fontSize=16;labelBackgroundColor=none;labelBorderColor=default;" parent="dvqYY9wqBAOjDPslqXJJ-127" vertex="1">
          <mxGeometry y="120" width="210" height="30" as="geometry" />
        </mxCell>
        <mxCell id="dvqYY9wqBAOjDPslqXJJ-138" value="4" style="shape=partialRectangle;html=1;whiteSpace=wrap;connectable=0;fillColor=none;top=0;left=0;bottom=0;right=0;overflow=hidden;strokeColor=inherit;fontSize=16;labelBackgroundColor=none;labelBorderColor=default;" parent="dvqYY9wqBAOjDPslqXJJ-137" vertex="1">
          <mxGeometry width="40" height="30" as="geometry">
            <mxRectangle width="40" height="30" as="alternateBounds" />
          </mxGeometry>
        </mxCell>
        <mxCell id="dvqYY9wqBAOjDPslqXJJ-139" value="ha" style="shape=partialRectangle;html=1;whiteSpace=wrap;connectable=0;fillColor=none;top=0;left=0;bottom=0;right=0;align=left;spacingLeft=6;overflow=hidden;strokeColor=inherit;fontSize=16;labelBackgroundColor=none;labelBorderColor=default;" parent="dvqYY9wqBAOjDPslqXJJ-137" vertex="1">
          <mxGeometry x="40" width="170" height="30" as="geometry">
            <mxRectangle width="170" height="30" as="alternateBounds" />
          </mxGeometry>
        </mxCell>
        <mxCell id="dvqYY9wqBAOjDPslqXJJ-140" style="shape=tableRow;horizontal=0;startSize=0;swimlaneHead=0;swimlaneBody=0;top=0;left=0;bottom=0;right=0;collapsible=0;dropTarget=0;fillColor=none;points=[[0,0.5],[1,0.5]];portConstraint=eastwest;strokeColor=inherit;fontSize=16;labelBackgroundColor=none;labelBorderColor=default;" parent="dvqYY9wqBAOjDPslqXJJ-127" vertex="1">
          <mxGeometry y="150" width="210" height="30" as="geometry" />
        </mxCell>
        <mxCell id="dvqYY9wqBAOjDPslqXJJ-141" value="5" style="shape=partialRectangle;html=1;whiteSpace=wrap;connectable=0;fillColor=none;top=0;left=0;bottom=0;right=0;overflow=hidden;strokeColor=inherit;fontSize=16;labelBackgroundColor=none;labelBorderColor=default;" parent="dvqYY9wqBAOjDPslqXJJ-140" vertex="1">
          <mxGeometry width="40" height="30" as="geometry">
            <mxRectangle width="40" height="30" as="alternateBounds" />
          </mxGeometry>
        </mxCell>
        <mxCell id="dvqYY9wqBAOjDPslqXJJ-142" value="opp" style="shape=partialRectangle;html=1;whiteSpace=wrap;connectable=0;fillColor=none;top=0;left=0;bottom=0;right=0;align=left;spacingLeft=6;overflow=hidden;strokeColor=inherit;fontSize=16;labelBackgroundColor=none;labelBorderColor=default;" parent="dvqYY9wqBAOjDPslqXJJ-140" vertex="1">
          <mxGeometry x="40" width="170" height="30" as="geometry">
            <mxRectangle width="170" height="30" as="alternateBounds" />
          </mxGeometry>
        </mxCell>
        <mxCell id="dvqYY9wqBAOjDPslqXJJ-143" style="shape=tableRow;horizontal=0;startSize=0;swimlaneHead=0;swimlaneBody=0;top=0;left=0;bottom=0;right=0;collapsible=0;dropTarget=0;fillColor=none;points=[[0,0.5],[1,0.5]];portConstraint=eastwest;strokeColor=inherit;fontSize=16;labelBackgroundColor=none;labelBorderColor=default;" parent="dvqYY9wqBAOjDPslqXJJ-127" vertex="1">
          <mxGeometry y="180" width="210" height="30" as="geometry" />
        </mxCell>
        <mxCell id="dvqYY9wqBAOjDPslqXJJ-144" value="6" style="shape=partialRectangle;html=1;whiteSpace=wrap;connectable=0;fillColor=none;top=0;left=0;bottom=0;right=0;overflow=hidden;strokeColor=inherit;fontSize=16;labelBackgroundColor=none;labelBorderColor=default;" parent="dvqYY9wqBAOjDPslqXJJ-143" vertex="1">
          <mxGeometry width="40" height="30" as="geometry">
            <mxRectangle width="40" height="30" as="alternateBounds" />
          </mxGeometry>
        </mxCell>
        <mxCell id="dvqYY9wqBAOjDPslqXJJ-145" value="p" style="shape=partialRectangle;html=1;whiteSpace=wrap;connectable=0;fillColor=none;top=0;left=0;bottom=0;right=0;align=left;spacingLeft=6;overflow=hidden;strokeColor=inherit;fontSize=16;labelBackgroundColor=none;labelBorderColor=default;" parent="dvqYY9wqBAOjDPslqXJJ-143" vertex="1">
          <mxGeometry x="40" width="170" height="30" as="geometry">
            <mxRectangle width="170" height="30" as="alternateBounds" />
          </mxGeometry>
        </mxCell>
        <mxCell id="dvqYY9wqBAOjDPslqXJJ-146" style="shape=tableRow;horizontal=0;startSize=0;swimlaneHead=0;swimlaneBody=0;top=0;left=0;bottom=0;right=0;collapsible=0;dropTarget=0;fillColor=none;points=[[0,0.5],[1,0.5]];portConstraint=eastwest;strokeColor=inherit;fontSize=16;labelBackgroundColor=none;labelBorderColor=default;" parent="dvqYY9wqBAOjDPslqXJJ-127" vertex="1">
          <mxGeometry y="210" width="210" height="30" as="geometry" />
        </mxCell>
        <mxCell id="dvqYY9wqBAOjDPslqXJJ-147" value="7" style="shape=partialRectangle;html=1;whiteSpace=wrap;connectable=0;fillColor=none;top=0;left=0;bottom=0;right=0;overflow=hidden;strokeColor=inherit;fontSize=16;labelBackgroundColor=none;labelBorderColor=default;" parent="dvqYY9wqBAOjDPslqXJJ-146" vertex="1">
          <mxGeometry width="40" height="30" as="geometry">
            <mxRectangle width="40" height="30" as="alternateBounds" />
          </mxGeometry>
        </mxCell>
        <mxCell id="dvqYY9wqBAOjDPslqXJJ-148" value="time" style="shape=partialRectangle;html=1;whiteSpace=wrap;connectable=0;fillColor=none;top=0;left=0;bottom=0;right=0;align=left;spacingLeft=6;overflow=hidden;strokeColor=inherit;fontSize=16;labelBackgroundColor=none;labelBorderColor=default;" parent="dvqYY9wqBAOjDPslqXJJ-146" vertex="1">
          <mxGeometry x="40" width="170" height="30" as="geometry">
            <mxRectangle width="170" height="30" as="alternateBounds" />
          </mxGeometry>
        </mxCell>
        <mxCell id="dvqYY9wqBAOjDPslqXJJ-149" style="shape=tableRow;horizontal=0;startSize=0;swimlaneHead=0;swimlaneBody=0;top=0;left=0;bottom=0;right=0;collapsible=0;dropTarget=0;fillColor=none;points=[[0,0.5],[1,0.5]];portConstraint=eastwest;strokeColor=inherit;fontSize=16;labelBackgroundColor=none;labelBorderColor=default;" parent="dvqYY9wqBAOjDPslqXJJ-127" vertex="1">
          <mxGeometry y="240" width="210" height="30" as="geometry" />
        </mxCell>
        <mxCell id="dvqYY9wqBAOjDPslqXJJ-150" value="8" style="shape=partialRectangle;html=1;whiteSpace=wrap;connectable=0;fillColor=none;top=0;left=0;bottom=0;right=0;overflow=hidden;strokeColor=inherit;fontSize=16;labelBackgroundColor=none;labelBorderColor=default;" parent="dvqYY9wqBAOjDPslqXJJ-149" vertex="1">
          <mxGeometry width="40" height="30" as="geometry">
            <mxRectangle width="40" height="30" as="alternateBounds" />
          </mxGeometry>
        </mxCell>
        <mxCell id="dvqYY9wqBAOjDPslqXJJ-151" value="type" style="shape=partialRectangle;html=1;whiteSpace=wrap;connectable=0;fillColor=none;top=0;left=0;bottom=0;right=0;align=left;spacingLeft=6;overflow=hidden;strokeColor=inherit;fontSize=16;labelBackgroundColor=none;labelBorderColor=default;" parent="dvqYY9wqBAOjDPslqXJJ-149" vertex="1">
          <mxGeometry x="40" width="170" height="30" as="geometry">
            <mxRectangle width="170" height="30" as="alternateBounds" />
          </mxGeometry>
        </mxCell>
        <mxCell id="dvqYY9wqBAOjDPslqXJJ-161" style="shape=tableRow;horizontal=0;startSize=0;swimlaneHead=0;swimlaneBody=0;top=0;left=0;bottom=0;right=0;collapsible=0;dropTarget=0;fillColor=none;points=[[0,0.5],[1,0.5]];portConstraint=eastwest;strokeColor=inherit;fontSize=16;labelBackgroundColor=none;labelBorderColor=default;" parent="dvqYY9wqBAOjDPslqXJJ-127" vertex="1">
          <mxGeometry y="270" width="210" height="30" as="geometry" />
        </mxCell>
        <mxCell id="dvqYY9wqBAOjDPslqXJJ-162" value="9" style="shape=partialRectangle;html=1;whiteSpace=wrap;connectable=0;fillColor=none;top=0;left=0;bottom=0;right=0;overflow=hidden;strokeColor=inherit;fontSize=16;labelBackgroundColor=none;labelBorderColor=default;" parent="dvqYY9wqBAOjDPslqXJJ-161" vertex="1">
          <mxGeometry width="40" height="30" as="geometry">
            <mxRectangle width="40" height="30" as="alternateBounds" />
          </mxGeometry>
        </mxCell>
        <mxCell id="dvqYY9wqBAOjDPslqXJJ-163" value="description" style="shape=partialRectangle;html=1;whiteSpace=wrap;connectable=0;fillColor=none;top=0;left=0;bottom=0;right=0;align=left;spacingLeft=6;overflow=hidden;strokeColor=inherit;fontSize=16;labelBackgroundColor=none;labelBorderColor=default;" parent="dvqYY9wqBAOjDPslqXJJ-161" vertex="1">
          <mxGeometry x="40" width="170" height="30" as="geometry">
            <mxRectangle width="170" height="30" as="alternateBounds" />
          </mxGeometry>
        </mxCell>
        <mxCell id="dvqYY9wqBAOjDPslqXJJ-158" style="shape=tableRow;horizontal=0;startSize=0;swimlaneHead=0;swimlaneBody=0;top=0;left=0;bottom=0;right=0;collapsible=0;dropTarget=0;fillColor=none;points=[[0,0.5],[1,0.5]];portConstraint=eastwest;strokeColor=inherit;fontSize=16;labelBackgroundColor=none;labelBorderColor=default;" parent="dvqYY9wqBAOjDPslqXJJ-127" vertex="1">
          <mxGeometry y="300" width="210" height="30" as="geometry" />
        </mxCell>
        <mxCell id="dvqYY9wqBAOjDPslqXJJ-159" value="10" style="shape=partialRectangle;html=1;whiteSpace=wrap;connectable=0;fillColor=none;top=0;left=0;bottom=0;right=0;overflow=hidden;strokeColor=inherit;fontSize=16;labelBackgroundColor=none;labelBorderColor=default;" parent="dvqYY9wqBAOjDPslqXJJ-158" vertex="1">
          <mxGeometry width="40" height="30" as="geometry">
            <mxRectangle width="40" height="30" as="alternateBounds" />
          </mxGeometry>
        </mxCell>
        <mxCell id="dvqYY9wqBAOjDPslqXJJ-160" value="year" style="shape=partialRectangle;html=1;whiteSpace=wrap;connectable=0;fillColor=none;top=0;left=0;bottom=0;right=0;align=left;spacingLeft=6;overflow=hidden;strokeColor=inherit;fontSize=16;labelBackgroundColor=none;labelBorderColor=default;" parent="dvqYY9wqBAOjDPslqXJJ-158" vertex="1">
          <mxGeometry x="40" width="170" height="30" as="geometry">
            <mxRectangle width="170" height="30" as="alternateBounds" />
          </mxGeometry>
        </mxCell>
        <mxCell id="dvqYY9wqBAOjDPslqXJJ-155" style="shape=tableRow;horizontal=0;startSize=0;swimlaneHead=0;swimlaneBody=0;top=0;left=0;bottom=0;right=0;collapsible=0;dropTarget=0;fillColor=none;points=[[0,0.5],[1,0.5]];portConstraint=eastwest;strokeColor=inherit;fontSize=16;labelBackgroundColor=none;labelBorderColor=default;" parent="dvqYY9wqBAOjDPslqXJJ-127" vertex="1">
          <mxGeometry y="330" width="210" height="30" as="geometry" />
        </mxCell>
        <mxCell id="dvqYY9wqBAOjDPslqXJJ-156" value="11" style="shape=partialRectangle;html=1;whiteSpace=wrap;connectable=0;fillColor=none;top=0;left=0;bottom=0;right=0;overflow=hidden;strokeColor=inherit;fontSize=16;labelBackgroundColor=none;labelBorderColor=default;" parent="dvqYY9wqBAOjDPslqXJJ-155" vertex="1">
          <mxGeometry width="40" height="30" as="geometry">
            <mxRectangle width="40" height="30" as="alternateBounds" />
          </mxGeometry>
        </mxCell>
        <mxCell id="dvqYY9wqBAOjDPslqXJJ-157" value="goal_scorer" style="shape=partialRectangle;html=1;whiteSpace=wrap;connectable=0;fillColor=none;top=0;left=0;bottom=0;right=0;align=left;spacingLeft=6;overflow=hidden;strokeColor=inherit;fontSize=16;labelBackgroundColor=none;labelBorderColor=default;" parent="dvqYY9wqBAOjDPslqXJJ-155" vertex="1">
          <mxGeometry x="40" width="170" height="30" as="geometry">
            <mxRectangle width="170" height="30" as="alternateBounds" />
          </mxGeometry>
        </mxCell>
        <mxCell id="dvqYY9wqBAOjDPslqXJJ-152" style="shape=tableRow;horizontal=0;startSize=0;swimlaneHead=0;swimlaneBody=0;top=0;left=0;bottom=0;right=0;collapsible=0;dropTarget=0;fillColor=none;points=[[0,0.5],[1,0.5]];portConstraint=eastwest;strokeColor=inherit;fontSize=16;labelBackgroundColor=none;labelBorderColor=default;" parent="dvqYY9wqBAOjDPslqXJJ-127" vertex="1">
          <mxGeometry y="360" width="210" height="30" as="geometry" />
        </mxCell>
        <mxCell id="dvqYY9wqBAOjDPslqXJJ-153" value="12" style="shape=partialRectangle;html=1;whiteSpace=wrap;connectable=0;fillColor=none;top=0;left=0;bottom=0;right=0;overflow=hidden;strokeColor=inherit;fontSize=16;labelBackgroundColor=none;labelBorderColor=default;" parent="dvqYY9wqBAOjDPslqXJJ-152" vertex="1">
          <mxGeometry width="40" height="30" as="geometry">
            <mxRectangle width="40" height="30" as="alternateBounds" />
          </mxGeometry>
        </mxCell>
        <mxCell id="dvqYY9wqBAOjDPslqXJJ-154" value="primary_assist" style="shape=partialRectangle;html=1;whiteSpace=wrap;connectable=0;fillColor=none;top=0;left=0;bottom=0;right=0;align=left;spacingLeft=6;overflow=hidden;strokeColor=inherit;fontSize=16;labelBackgroundColor=none;labelBorderColor=default;" parent="dvqYY9wqBAOjDPslqXJJ-152" vertex="1">
          <mxGeometry x="40" width="170" height="30" as="geometry">
            <mxRectangle width="170" height="30" as="alternateBounds" />
          </mxGeometry>
        </mxCell>
        <mxCell id="dvqYY9wqBAOjDPslqXJJ-170" style="shape=tableRow;horizontal=0;startSize=0;swimlaneHead=0;swimlaneBody=0;top=0;left=0;bottom=0;right=0;collapsible=0;dropTarget=0;fillColor=none;points=[[0,0.5],[1,0.5]];portConstraint=eastwest;strokeColor=inherit;fontSize=16;labelBackgroundColor=none;labelBorderColor=default;" parent="dvqYY9wqBAOjDPslqXJJ-127" vertex="1">
          <mxGeometry y="390" width="210" height="30" as="geometry" />
        </mxCell>
        <mxCell id="dvqYY9wqBAOjDPslqXJJ-171" value="13" style="shape=partialRectangle;html=1;whiteSpace=wrap;connectable=0;fillColor=none;top=0;left=0;bottom=0;right=0;overflow=hidden;strokeColor=inherit;fontSize=16;labelBackgroundColor=none;labelBorderColor=default;" parent="dvqYY9wqBAOjDPslqXJJ-170" vertex="1">
          <mxGeometry width="40" height="30" as="geometry">
            <mxRectangle width="40" height="30" as="alternateBounds" />
          </mxGeometry>
        </mxCell>
        <mxCell id="dvqYY9wqBAOjDPslqXJJ-172" value="secondary_assist" style="shape=partialRectangle;html=1;whiteSpace=wrap;connectable=0;fillColor=none;top=0;left=0;bottom=0;right=0;align=left;spacingLeft=6;overflow=hidden;strokeColor=inherit;fontSize=16;labelBackgroundColor=none;labelBorderColor=default;" parent="dvqYY9wqBAOjDPslqXJJ-170" vertex="1">
          <mxGeometry x="40" width="170" height="30" as="geometry">
            <mxRectangle width="170" height="30" as="alternateBounds" />
          </mxGeometry>
        </mxCell>
        <mxCell id="dvqYY9wqBAOjDPslqXJJ-167" style="shape=tableRow;horizontal=0;startSize=0;swimlaneHead=0;swimlaneBody=0;top=0;left=0;bottom=0;right=0;collapsible=0;dropTarget=0;fillColor=none;points=[[0,0.5],[1,0.5]];portConstraint=eastwest;strokeColor=inherit;fontSize=16;labelBackgroundColor=none;labelBorderColor=default;" parent="dvqYY9wqBAOjDPslqXJJ-127" vertex="1">
          <mxGeometry y="420" width="210" height="30" as="geometry" />
        </mxCell>
        <mxCell id="dvqYY9wqBAOjDPslqXJJ-168" value="14" style="shape=partialRectangle;html=1;whiteSpace=wrap;connectable=0;fillColor=none;top=0;left=0;bottom=0;right=0;overflow=hidden;strokeColor=inherit;fontSize=16;labelBackgroundColor=none;labelBorderColor=default;" parent="dvqYY9wqBAOjDPslqXJJ-167" vertex="1">
          <mxGeometry width="40" height="30" as="geometry">
            <mxRectangle width="40" height="30" as="alternateBounds" />
          </mxGeometry>
        </mxCell>
        <mxCell id="dvqYY9wqBAOjDPslqXJJ-169" value="tracked_player_name" style="shape=partialRectangle;html=1;whiteSpace=wrap;connectable=0;fillColor=none;top=0;left=0;bottom=0;right=0;align=left;spacingLeft=6;overflow=hidden;strokeColor=inherit;fontSize=16;labelBackgroundColor=none;labelBorderColor=default;" parent="dvqYY9wqBAOjDPslqXJJ-167" vertex="1">
          <mxGeometry x="40" width="170" height="30" as="geometry">
            <mxRectangle width="170" height="30" as="alternateBounds" />
          </mxGeometry>
        </mxCell>
        <mxCell id="dvqYY9wqBAOjDPslqXJJ-164" style="shape=tableRow;horizontal=0;startSize=0;swimlaneHead=0;swimlaneBody=0;top=0;left=0;bottom=0;right=0;collapsible=0;dropTarget=0;fillColor=none;points=[[0,0.5],[1,0.5]];portConstraint=eastwest;strokeColor=inherit;fontSize=16;labelBackgroundColor=none;labelBorderColor=default;" parent="dvqYY9wqBAOjDPslqXJJ-127" vertex="1">
          <mxGeometry y="450" width="210" height="30" as="geometry" />
        </mxCell>
        <mxCell id="dvqYY9wqBAOjDPslqXJJ-165" style="shape=partialRectangle;html=1;whiteSpace=wrap;connectable=0;fillColor=none;top=0;left=0;bottom=0;right=0;overflow=hidden;strokeColor=inherit;fontSize=16;labelBackgroundColor=none;labelBorderColor=default;" parent="dvqYY9wqBAOjDPslqXJJ-164" vertex="1">
          <mxGeometry width="40" height="30" as="geometry">
            <mxRectangle width="40" height="30" as="alternateBounds" />
          </mxGeometry>
        </mxCell>
        <mxCell id="dvqYY9wqBAOjDPslqXJJ-166" style="shape=partialRectangle;html=1;whiteSpace=wrap;connectable=0;fillColor=none;top=0;left=0;bottom=0;right=0;align=left;spacingLeft=6;overflow=hidden;strokeColor=inherit;fontSize=16;labelBackgroundColor=none;labelBorderColor=default;" parent="dvqYY9wqBAOjDPslqXJJ-164" vertex="1">
          <mxGeometry x="40" width="170" height="30" as="geometry">
            <mxRectangle width="170" height="30" as="alternateBounds" />
          </mxGeometry>
        </mxCell>
      </root>
    </mxGraphModel>
  </diagram>
</mxfile>
